ISO-10303-21;
HEADER;
/* Generated by software containing ST-Developer
 * from STEP Tools, Inc. (www.steptools.com) 
 */
/* OPTION: using custom renumber hook */

FILE_DESCRIPTION(
/* description */ ('STEP AP242 Edition 2',
'CAx-IF Rec.Pracs.---Representation and Presentation of Product Manufa
cturing Information (PMI)---4.0---2014-10-13',
'CAx-IF Rec.Pracs.---3D Tessellated Geometry---0.4---2014-09-14','2;1',
'CAx-IF Rec.Pracs.---User Defined Attributes---1.5---2016-08-15'),
/* implementation_level */ '2;1');

FILE_NAME(
/* name */ 'ECE148_Camera_Pivot - Camera_Chassis_Mount',
/* time_stamp */ '2026-09-03T00:28:57Z',
/* author */ (''),
/* organization */ (''),
/* preprocessor_version */ 'ST-DEVELOPER v20',
/* originating_system */ 'ONSHAPE BY PTC INC, 1.220',
/* authorisation */ '  ');

FILE_SCHEMA (('AP242_MANAGED_MODEL_BASED_3D_ENGINEERING_MIM_LF { 1 0 10303 442 3 1 4 }'));
ENDSEC;

DATA;
#10=SHAPE_REPRESENTATION_RELATIONSHIP('','',#1271,#11);
#11=ADVANCED_BREP_SHAPE_REPRESENTATION('',(#1269),#2125);
#12=PLANE('',#1288);
#13=PLANE('',#1289);
#14=PLANE('',#1290);
#15=PLANE('',#1311);
#16=PLANE('',#1317);
#17=PLANE('',#1318);
#18=PLANE('',#1319);
#19=PLANE('',#1320);
#20=PLANE('',#1323);
#21=PLANE('',#1326);
#22=PLANE('',#1329);
#23=PLANE('',#1334);
#24=PLANE('',#1337);
#25=PLANE('',#1342);
#26=PLANE('',#1345);
#27=PLANE('',#1348);
#28=PLANE('',#1351);
#29=PLANE('',#1354);
#30=PLANE('',#1355);
#31=PLANE('',#1358);
#32=PLANE('',#1359);
#33=PLANE('',#1362);
#34=PLANE('',#1365);
#35=PLANE('',#1368);
#36=PLANE('',#1371);
#37=PLANE('',#1374);
#38=PLANE('',#1375);
#39=PLANE('',#1382);
#40=PLANE('',#1383);
#41=PLANE('',#1384);
#42=PLANE('',#1385);
#43=PLANE('',#1386);
#44=PLANE('',#1389);
#45=PLANE('',#1392);
#46=PLANE('',#1395);
#47=PLANE('',#1398);
#48=LINE('',#1790,#160);
#49=LINE('',#1794,#161);
#50=LINE('',#1796,#162);
#51=LINE('',#1799,#163);
#52=LINE('',#1801,#164);
#53=LINE('',#1803,#165);
#54=LINE('',#1805,#166);
#55=LINE('',#1806,#167);
#56=LINE('',#1808,#168);
#57=LINE('',#1810,#169);
#58=LINE('',#1812,#170);
#59=LINE('',#1814,#171);
#60=LINE('',#1816,#172);
#61=LINE('',#1818,#173);
#62=LINE('',#1820,#174);
#63=LINE('',#1825,#175);
#64=LINE('',#1828,#176);
#65=LINE('',#1833,#177);
#66=LINE('',#1836,#178);
#67=LINE('',#1841,#179);
#68=LINE('',#1845,#180);
#69=LINE('',#1851,#181);
#70=LINE('',#1855,#182);
#71=LINE('',#1859,#183);
#72=LINE('',#1863,#184);
#73=LINE('',#1867,#185);
#74=LINE('',#1871,#186);
#75=LINE('',#1875,#187);
#76=LINE('',#1879,#188);
#77=LINE('',#1883,#189);
#78=LINE('',#1884,#190);
#79=LINE('',#1887,#191);
#80=LINE('',#1890,#192);
#81=LINE('',#1894,#193);
#82=LINE('',#1898,#194);
#83=LINE('',#1902,#195);
#84=LINE('',#1904,#196);
#85=LINE('',#1910,#197);
#86=LINE('',#1914,#198);
#87=LINE('',#1918,#199);
#88=LINE('',#1921,#200);
#89=LINE('',#1922,#201);
#90=LINE('',#1924,#202);
#91=LINE('',#1926,#203);
#92=LINE('',#1928,#204);
#93=LINE('',#1930,#205);
#94=LINE('',#1932,#206);
#95=LINE('',#1934,#207);
#96=LINE('',#1936,#208);
#97=LINE('',#1938,#209);
#98=LINE('',#1944,#210);
#99=LINE('',#1946,#211);
#100=LINE('',#1951,#212);
#101=LINE('',#1952,#213);
#102=LINE('',#1954,#214);
#103=LINE('',#1956,#215);
#104=LINE('',#1960,#216);
#105=LINE('',#1962,#217);
#106=LINE('',#1964,#218);
#107=LINE('',#1968,#219);
#108=LINE('',#1973,#220);
#109=LINE('',#1974,#221);
#110=LINE('',#1976,#222);
#111=LINE('',#1978,#223);
#112=LINE('',#1982,#224);
#113=LINE('',#1984,#225);
#114=LINE('',#1986,#226);
#115=LINE('',#1990,#227);
#116=LINE('',#1995,#228);
#117=LINE('',#1996,#229);
#118=LINE('',#1998,#230);
#119=LINE('',#2000,#231);
#120=LINE('',#2004,#232);
#121=LINE('',#2006,#233);
#122=LINE('',#2008,#234);
#123=LINE('',#2012,#235);
#124=LINE('',#2014,#236);
#125=LINE('',#2017,#237);
#126=LINE('',#2018,#238);
#127=LINE('',#2022,#239);
#128=LINE('',#2024,#240);
#129=LINE('',#2026,#241);
#130=LINE('',#2030,#242);
#131=LINE('',#2032,#243);
#132=LINE('',#2034,#244);
#133=LINE('',#2036,#245);
#134=LINE('',#2039,#246);
#135=LINE('',#2040,#247);
#136=LINE('',#2044,#248);
#137=LINE('',#2046,#249);
#138=LINE('',#2048,#250);
#139=LINE('',#2050,#251);
#140=LINE('',#2053,#252);
#141=LINE('',#2054,#253);
#142=LINE('',#2058,#254);
#143=LINE('',#2060,#255);
#144=LINE('',#2062,#256);
#145=LINE('',#2066,#257);
#146=LINE('',#2068,#258);
#147=LINE('',#2070,#259);
#148=LINE('',#2074,#260);
#149=LINE('',#2076,#261);
#150=LINE('',#2078,#262);
#151=LINE('',#2082,#263);
#152=LINE('',#2084,#264);
#153=LINE('',#2086,#265);
#154=LINE('',#2090,#266);
#155=LINE('',#2092,#267);
#156=LINE('',#2100,#268);
#157=LINE('',#2102,#269);
#158=LINE('',#2104,#270);
#159=LINE('',#2105,#271);
#160=VECTOR('',#1429,1.);
#161=VECTOR('',#1432,1.);
#162=VECTOR('',#1435,1.);
#163=VECTOR('',#1436,1.);
#164=VECTOR('',#1437,1.);
#165=VECTOR('',#1438,1.);
#166=VECTOR('',#1439,1.);
#167=VECTOR('',#1440,1.);
#168=VECTOR('',#1443,1.);
#169=VECTOR('',#1444,1.);
#170=VECTOR('',#1445,1.);
#171=VECTOR('',#1446,1.);
#172=VECTOR('',#1447,1.);
#173=VECTOR('',#1448,1.);
#174=VECTOR('',#1451,1.);
#175=VECTOR('',#1454,1.);
#176=VECTOR('',#1457,1.);
#177=VECTOR('',#1460,1.);
#178=VECTOR('',#1463,1.);
#179=VECTOR('',#1466,1.);
#180=VECTOR('',#1469,1.);
#181=VECTOR('',#1474,1.);
#182=VECTOR('',#1477,1.);
#183=VECTOR('',#1480,1.);
#184=VECTOR('',#1483,1.);
#185=VECTOR('',#1486,1.);
#186=VECTOR('',#1489,1.);
#187=VECTOR('',#1492,1.);
#188=VECTOR('',#1495,1.);
#189=VECTOR('',#1498,1.);
#190=VECTOR('',#1499,1.);
#191=VECTOR('',#1500,1.);
#192=VECTOR('',#1503,1.);
#193=VECTOR('',#1506,1.);
#194=VECTOR('',#1509,1.);
#195=VECTOR('',#1512,1.);
#196=VECTOR('',#1513,1.);
#197=VECTOR('',#1520,1.);
#198=VECTOR('',#1525,1.);
#199=VECTOR('',#1530,1.);
#200=VECTOR('',#1531,1.);
#201=VECTOR('',#1532,1.);
#202=VECTOR('',#1533,1.);
#203=VECTOR('',#1534,1.);
#204=VECTOR('',#1537,1.);
#205=VECTOR('',#1538,1.);
#206=VECTOR('',#1539,1.);
#207=VECTOR('',#1540,1.);
#208=VECTOR('',#1541,1.);
#209=VECTOR('',#1544,1.);
#210=VECTOR('',#1551,1.);
#211=VECTOR('',#1554,1.);
#212=VECTOR('',#1559,1.);
#213=VECTOR('',#1560,1.);
#214=VECTOR('',#1563,1.);
#215=VECTOR('',#1564,1.);
#216=VECTOR('',#1569,1.);
#217=VECTOR('',#1572,1.);
#218=VECTOR('',#1573,1.);
#219=VECTOR('',#1578,1.);
#220=VECTOR('',#1583,1.);
#221=VECTOR('',#1584,1.);
#222=VECTOR('',#1587,1.);
#223=VECTOR('',#1588,1.);
#224=VECTOR('',#1593,1.);
#225=VECTOR('',#1596,1.);
#226=VECTOR('',#1597,1.);
#227=VECTOR('',#1602,1.);
#228=VECTOR('',#1607,1.);
#229=VECTOR('',#1608,1.);
#230=VECTOR('',#1611,1.);
#231=VECTOR('',#1612,1.);
#232=VECTOR('',#1617,1.);
#233=VECTOR('',#1620,1.);
#234=VECTOR('',#1621,1.);
#235=VECTOR('',#1626,1.);
#236=VECTOR('',#1629,1.);
#237=VECTOR('',#1630,1.);
#238=VECTOR('',#1631,1.);
#239=VECTOR('',#1636,1.);
#240=VECTOR('',#1639,1.);
#241=VECTOR('',#1640,1.);
#242=VECTOR('',#1645,1.);
#243=VECTOR('',#1648,1.);
#244=VECTOR('',#1649,1.);
#245=VECTOR('',#1652,1.);
#246=VECTOR('',#1653,1.);
#247=VECTOR('',#1654,1.);
#248=VECTOR('',#1659,1.);
#249=VECTOR('',#1662,1.);
#250=VECTOR('',#1663,1.);
#251=VECTOR('',#1666,1.);
#252=VECTOR('',#1667,1.);
#253=VECTOR('',#1668,1.);
#254=VECTOR('',#1673,1.);
#255=VECTOR('',#1676,1.);
#256=VECTOR('',#1677,1.);
#257=VECTOR('',#1682,1.);
#258=VECTOR('',#1685,1.);
#259=VECTOR('',#1686,1.);
#260=VECTOR('',#1691,1.);
#261=VECTOR('',#1694,1.);
#262=VECTOR('',#1695,1.);
#263=VECTOR('',#1700,1.);
#264=VECTOR('',#1703,1.);
#265=VECTOR('',#1704,1.);
#266=VECTOR('',#1711,1.);
#267=VECTOR('',#1714,1.);
#268=VECTOR('',#1729,1.);
#269=VECTOR('',#1732,1.);
#270=VECTOR('',#1735,1.);
#271=VECTOR('',#1736,1.);
#272=ORIENTED_EDGE('',*,*,#616,.F.);
#273=ORIENTED_EDGE('',*,*,#617,.T.);
#274=ORIENTED_EDGE('',*,*,#618,.F.);
#275=ORIENTED_EDGE('',*,*,#619,.T.);
#276=ORIENTED_EDGE('',*,*,#620,.F.);
#277=ORIENTED_EDGE('',*,*,#621,.T.);
#278=ORIENTED_EDGE('',*,*,#622,.F.);
#279=ORIENTED_EDGE('',*,*,#623,.T.);
#280=ORIENTED_EDGE('',*,*,#624,.T.);
#281=ORIENTED_EDGE('',*,*,#625,.F.);
#282=ORIENTED_EDGE('',*,*,#626,.F.);
#283=ORIENTED_EDGE('',*,*,#627,.T.);
#284=ORIENTED_EDGE('',*,*,#628,.F.);
#285=ORIENTED_EDGE('',*,*,#629,.T.);
#286=ORIENTED_EDGE('',*,*,#630,.F.);
#287=ORIENTED_EDGE('',*,*,#631,.F.);
#288=ORIENTED_EDGE('',*,*,#632,.T.);
#289=ORIENTED_EDGE('',*,*,#626,.T.);
#290=ORIENTED_EDGE('',*,*,#633,.T.);
#291=ORIENTED_EDGE('',*,*,#624,.F.);
#292=ORIENTED_EDGE('',*,*,#634,.F.);
#293=ORIENTED_EDGE('',*,*,#635,.T.);
#294=ORIENTED_EDGE('',*,*,#636,.T.);
#295=ORIENTED_EDGE('',*,*,#637,.F.);
#296=ORIENTED_EDGE('',*,*,#638,.F.);
#297=ORIENTED_EDGE('',*,*,#639,.T.);
#298=ORIENTED_EDGE('',*,*,#640,.F.);
#299=ORIENTED_EDGE('',*,*,#641,.F.);
#300=ORIENTED_EDGE('',*,*,#642,.F.);
#301=ORIENTED_EDGE('',*,*,#643,.F.);
#302=ORIENTED_EDGE('',*,*,#644,.F.);
#303=ORIENTED_EDGE('',*,*,#645,.F.);
#304=ORIENTED_EDGE('',*,*,#646,.F.);
#305=ORIENTED_EDGE('',*,*,#647,.F.);
#306=ORIENTED_EDGE('',*,*,#648,.F.);
#307=ORIENTED_EDGE('',*,*,#649,.F.);
#308=ORIENTED_EDGE('',*,*,#650,.F.);
#309=ORIENTED_EDGE('',*,*,#651,.F.);
#310=ORIENTED_EDGE('',*,*,#652,.F.);
#311=ORIENTED_EDGE('',*,*,#653,.F.);
#312=ORIENTED_EDGE('',*,*,#654,.F.);
#313=ORIENTED_EDGE('',*,*,#655,.T.);
#314=ORIENTED_EDGE('',*,*,#656,.F.);
#315=ORIENTED_EDGE('',*,*,#657,.T.);
#316=ORIENTED_EDGE('',*,*,#658,.F.);
#317=ORIENTED_EDGE('',*,*,#659,.T.);
#318=ORIENTED_EDGE('',*,*,#660,.F.);
#319=ORIENTED_EDGE('',*,*,#661,.T.);
#320=ORIENTED_EDGE('',*,*,#662,.F.);
#321=ORIENTED_EDGE('',*,*,#663,.T.);
#322=ORIENTED_EDGE('',*,*,#664,.F.);
#323=ORIENTED_EDGE('',*,*,#665,.T.);
#324=ORIENTED_EDGE('',*,*,#666,.F.);
#325=ORIENTED_EDGE('',*,*,#667,.T.);
#326=ORIENTED_EDGE('',*,*,#668,.F.);
#327=ORIENTED_EDGE('',*,*,#669,.T.);
#328=ORIENTED_EDGE('',*,*,#670,.F.);
#329=ORIENTED_EDGE('',*,*,#671,.T.);
#330=ORIENTED_EDGE('',*,*,#672,.T.);
#331=ORIENTED_EDGE('',*,*,#673,.T.);
#332=ORIENTED_EDGE('',*,*,#633,.F.);
#333=ORIENTED_EDGE('',*,*,#625,.T.);
#334=ORIENTED_EDGE('',*,*,#639,.F.);
#335=ORIENTED_EDGE('',*,*,#674,.T.);
#336=ORIENTED_EDGE('',*,*,#675,.T.);
#337=ORIENTED_EDGE('',*,*,#676,.F.);
#338=ORIENTED_EDGE('',*,*,#677,.T.);
#339=ORIENTED_EDGE('',*,*,#678,.F.);
#340=ORIENTED_EDGE('',*,*,#679,.F.);
#341=ORIENTED_EDGE('',*,*,#680,.T.);
#342=ORIENTED_EDGE('',*,*,#681,.T.);
#343=ORIENTED_EDGE('',*,*,#682,.F.);
#344=ORIENTED_EDGE('',*,*,#683,.F.);
#345=ORIENTED_EDGE('',*,*,#684,.F.);
#346=ORIENTED_EDGE('',*,*,#627,.F.);
#347=ORIENTED_EDGE('',*,*,#632,.F.);
#348=ORIENTED_EDGE('',*,*,#685,.T.);
#349=ORIENTED_EDGE('',*,*,#634,.T.);
#350=ORIENTED_EDGE('',*,*,#686,.T.);
#351=ORIENTED_EDGE('',*,*,#687,.F.);
#352=ORIENTED_EDGE('',*,*,#688,.F.);
#353=ORIENTED_EDGE('',*,*,#682,.T.);
#354=ORIENTED_EDGE('',*,*,#689,.F.);
#355=ORIENTED_EDGE('',*,*,#690,.T.);
#356=ORIENTED_EDGE('',*,*,#672,.F.);
#357=ORIENTED_EDGE('',*,*,#688,.T.);
#358=ORIENTED_EDGE('',*,*,#691,.F.);
#359=ORIENTED_EDGE('',*,*,#692,.T.);
#360=ORIENTED_EDGE('',*,*,#693,.T.);
#361=ORIENTED_EDGE('',*,*,#686,.F.);
#362=ORIENTED_EDGE('',*,*,#681,.F.);
#363=ORIENTED_EDGE('',*,*,#694,.T.);
#364=ORIENTED_EDGE('',*,*,#695,.T.);
#365=ORIENTED_EDGE('',*,*,#696,.F.);
#366=ORIENTED_EDGE('',*,*,#697,.F.);
#367=ORIENTED_EDGE('',*,*,#698,.T.);
#368=ORIENTED_EDGE('',*,*,#685,.F.);
#369=ORIENTED_EDGE('',*,*,#631,.T.);
#370=ORIENTED_EDGE('',*,*,#699,.T.);
#371=ORIENTED_EDGE('',*,*,#635,.F.);
#372=ORIENTED_EDGE('',*,*,#700,.F.);
#373=ORIENTED_EDGE('',*,*,#701,.F.);
#374=ORIENTED_EDGE('',*,*,#691,.T.);
#375=ORIENTED_EDGE('',*,*,#687,.T.);
#376=ORIENTED_EDGE('',*,*,#698,.F.);
#377=ORIENTED_EDGE('',*,*,#702,.T.);
#378=ORIENTED_EDGE('',*,*,#692,.F.);
#379=ORIENTED_EDGE('',*,*,#702,.F.);
#380=ORIENTED_EDGE('',*,*,#697,.T.);
#381=ORIENTED_EDGE('',*,*,#703,.T.);
#382=ORIENTED_EDGE('',*,*,#704,.F.);
#383=ORIENTED_EDGE('',*,*,#705,.F.);
#384=ORIENTED_EDGE('',*,*,#666,.T.);
#385=ORIENTED_EDGE('',*,*,#706,.T.);
#386=ORIENTED_EDGE('',*,*,#707,.T.);
#387=ORIENTED_EDGE('',*,*,#708,.F.);
#388=ORIENTED_EDGE('',*,*,#667,.F.);
#389=ORIENTED_EDGE('',*,*,#705,.T.);
#390=ORIENTED_EDGE('',*,*,#709,.F.);
#391=ORIENTED_EDGE('',*,*,#710,.F.);
#392=ORIENTED_EDGE('',*,*,#668,.T.);
#393=ORIENTED_EDGE('',*,*,#708,.T.);
#394=ORIENTED_EDGE('',*,*,#711,.T.);
#395=ORIENTED_EDGE('',*,*,#712,.F.);
#396=ORIENTED_EDGE('',*,*,#669,.F.);
#397=ORIENTED_EDGE('',*,*,#710,.T.);
#398=ORIENTED_EDGE('',*,*,#713,.F.);
#399=ORIENTED_EDGE('',*,*,#714,.F.);
#400=ORIENTED_EDGE('',*,*,#670,.T.);
#401=ORIENTED_EDGE('',*,*,#712,.T.);
#402=ORIENTED_EDGE('',*,*,#715,.F.);
#403=ORIENTED_EDGE('',*,*,#716,.F.);
#404=ORIENTED_EDGE('',*,*,#660,.T.);
#405=ORIENTED_EDGE('',*,*,#717,.T.);
#406=ORIENTED_EDGE('',*,*,#718,.T.);
#407=ORIENTED_EDGE('',*,*,#719,.F.);
#408=ORIENTED_EDGE('',*,*,#661,.F.);
#409=ORIENTED_EDGE('',*,*,#716,.T.);
#410=ORIENTED_EDGE('',*,*,#720,.F.);
#411=ORIENTED_EDGE('',*,*,#721,.F.);
#412=ORIENTED_EDGE('',*,*,#662,.T.);
#413=ORIENTED_EDGE('',*,*,#719,.T.);
#414=ORIENTED_EDGE('',*,*,#722,.T.);
#415=ORIENTED_EDGE('',*,*,#723,.F.);
#416=ORIENTED_EDGE('',*,*,#663,.F.);
#417=ORIENTED_EDGE('',*,*,#721,.T.);
#418=ORIENTED_EDGE('',*,*,#724,.F.);
#419=ORIENTED_EDGE('',*,*,#725,.F.);
#420=ORIENTED_EDGE('',*,*,#664,.T.);
#421=ORIENTED_EDGE('',*,*,#723,.T.);
#422=ORIENTED_EDGE('',*,*,#726,.F.);
#423=ORIENTED_EDGE('',*,*,#727,.F.);
#424=ORIENTED_EDGE('',*,*,#654,.T.);
#425=ORIENTED_EDGE('',*,*,#728,.T.);
#426=ORIENTED_EDGE('',*,*,#729,.T.);
#427=ORIENTED_EDGE('',*,*,#730,.F.);
#428=ORIENTED_EDGE('',*,*,#655,.F.);
#429=ORIENTED_EDGE('',*,*,#727,.T.);
#430=ORIENTED_EDGE('',*,*,#731,.F.);
#431=ORIENTED_EDGE('',*,*,#732,.F.);
#432=ORIENTED_EDGE('',*,*,#656,.T.);
#433=ORIENTED_EDGE('',*,*,#730,.T.);
#434=ORIENTED_EDGE('',*,*,#733,.T.);
#435=ORIENTED_EDGE('',*,*,#734,.F.);
#436=ORIENTED_EDGE('',*,*,#657,.F.);
#437=ORIENTED_EDGE('',*,*,#732,.T.);
#438=ORIENTED_EDGE('',*,*,#735,.F.);
#439=ORIENTED_EDGE('',*,*,#736,.F.);
#440=ORIENTED_EDGE('',*,*,#658,.T.);
#441=ORIENTED_EDGE('',*,*,#734,.T.);
#442=ORIENTED_EDGE('',*,*,#737,.F.);
#443=ORIENTED_EDGE('',*,*,#738,.F.);
#444=ORIENTED_EDGE('',*,*,#648,.T.);
#445=ORIENTED_EDGE('',*,*,#739,.T.);
#446=ORIENTED_EDGE('',*,*,#740,.F.);
#447=ORIENTED_EDGE('',*,*,#741,.F.);
#448=ORIENTED_EDGE('',*,*,#649,.T.);
#449=ORIENTED_EDGE('',*,*,#738,.T.);
#450=ORIENTED_EDGE('',*,*,#742,.F.);
#451=ORIENTED_EDGE('',*,*,#743,.F.);
#452=ORIENTED_EDGE('',*,*,#650,.T.);
#453=ORIENTED_EDGE('',*,*,#741,.T.);
#454=ORIENTED_EDGE('',*,*,#744,.F.);
#455=ORIENTED_EDGE('',*,*,#745,.F.);
#456=ORIENTED_EDGE('',*,*,#651,.T.);
#457=ORIENTED_EDGE('',*,*,#743,.T.);
#458=ORIENTED_EDGE('',*,*,#746,.F.);
#459=ORIENTED_EDGE('',*,*,#747,.F.);
#460=ORIENTED_EDGE('',*,*,#652,.T.);
#461=ORIENTED_EDGE('',*,*,#745,.T.);
#462=ORIENTED_EDGE('',*,*,#748,.F.);
#463=ORIENTED_EDGE('',*,*,#749,.F.);
#464=ORIENTED_EDGE('',*,*,#644,.T.);
#465=ORIENTED_EDGE('',*,*,#750,.T.);
#466=ORIENTED_EDGE('',*,*,#751,.F.);
#467=ORIENTED_EDGE('',*,*,#752,.F.);
#468=ORIENTED_EDGE('',*,*,#645,.T.);
#469=ORIENTED_EDGE('',*,*,#749,.T.);
#470=ORIENTED_EDGE('',*,*,#753,.F.);
#471=ORIENTED_EDGE('',*,*,#754,.F.);
#472=ORIENTED_EDGE('',*,*,#646,.T.);
#473=ORIENTED_EDGE('',*,*,#752,.T.);
#474=ORIENTED_EDGE('',*,*,#755,.F.);
#475=ORIENTED_EDGE('',*,*,#756,.F.);
#476=ORIENTED_EDGE('',*,*,#640,.T.);
#477=ORIENTED_EDGE('',*,*,#757,.T.);
#478=ORIENTED_EDGE('',*,*,#758,.F.);
#479=ORIENTED_EDGE('',*,*,#759,.F.);
#480=ORIENTED_EDGE('',*,*,#641,.T.);
#481=ORIENTED_EDGE('',*,*,#756,.T.);
#482=ORIENTED_EDGE('',*,*,#760,.F.);
#483=ORIENTED_EDGE('',*,*,#761,.F.);
#484=ORIENTED_EDGE('',*,*,#642,.T.);
#485=ORIENTED_EDGE('',*,*,#759,.T.);
#486=ORIENTED_EDGE('',*,*,#762,.T.);
#487=ORIENTED_EDGE('',*,*,#763,.F.);
#488=ORIENTED_EDGE('',*,*,#674,.F.);
#489=ORIENTED_EDGE('',*,*,#638,.T.);
#490=ORIENTED_EDGE('',*,*,#764,.T.);
#491=ORIENTED_EDGE('',*,*,#765,.F.);
#492=ORIENTED_EDGE('',*,*,#675,.F.);
#493=ORIENTED_EDGE('',*,*,#763,.T.);
#494=ORIENTED_EDGE('',*,*,#766,.F.);
#495=ORIENTED_EDGE('',*,*,#767,.F.);
#496=ORIENTED_EDGE('',*,*,#676,.T.);
#497=ORIENTED_EDGE('',*,*,#765,.T.);
#498=ORIENTED_EDGE('',*,*,#768,.T.);
#499=ORIENTED_EDGE('',*,*,#769,.F.);
#500=ORIENTED_EDGE('',*,*,#677,.F.);
#501=ORIENTED_EDGE('',*,*,#767,.T.);
#502=ORIENTED_EDGE('',*,*,#770,.F.);
#503=ORIENTED_EDGE('',*,*,#771,.F.);
#504=ORIENTED_EDGE('',*,*,#678,.T.);
#505=ORIENTED_EDGE('',*,*,#769,.T.);
#506=ORIENTED_EDGE('',*,*,#772,.F.);
#507=ORIENTED_EDGE('',*,*,#773,.F.);
#508=ORIENTED_EDGE('',*,*,#679,.T.);
#509=ORIENTED_EDGE('',*,*,#771,.T.);
#510=ORIENTED_EDGE('',*,*,#774,.T.);
#511=ORIENTED_EDGE('',*,*,#694,.F.);
#512=ORIENTED_EDGE('',*,*,#680,.F.);
#513=ORIENTED_EDGE('',*,*,#773,.T.);
#514=ORIENTED_EDGE('',*,*,#775,.T.);
#515=ORIENTED_EDGE('',*,*,#717,.F.);
#516=ORIENTED_EDGE('',*,*,#665,.F.);
#517=ORIENTED_EDGE('',*,*,#725,.T.);
#518=ORIENTED_EDGE('',*,*,#776,.T.);
#519=ORIENTED_EDGE('',*,*,#728,.F.);
#520=ORIENTED_EDGE('',*,*,#659,.F.);
#521=ORIENTED_EDGE('',*,*,#736,.T.);
#522=ORIENTED_EDGE('',*,*,#777,.F.);
#523=ORIENTED_EDGE('',*,*,#739,.F.);
#524=ORIENTED_EDGE('',*,*,#653,.T.);
#525=ORIENTED_EDGE('',*,*,#747,.T.);
#526=ORIENTED_EDGE('',*,*,#778,.F.);
#527=ORIENTED_EDGE('',*,*,#750,.F.);
#528=ORIENTED_EDGE('',*,*,#647,.T.);
#529=ORIENTED_EDGE('',*,*,#754,.T.);
#530=ORIENTED_EDGE('',*,*,#779,.F.);
#531=ORIENTED_EDGE('',*,*,#757,.F.);
#532=ORIENTED_EDGE('',*,*,#643,.T.);
#533=ORIENTED_EDGE('',*,*,#761,.T.);
#534=ORIENTED_EDGE('',*,*,#780,.T.);
#535=ORIENTED_EDGE('',*,*,#706,.F.);
#536=ORIENTED_EDGE('',*,*,#671,.F.);
#537=ORIENTED_EDGE('',*,*,#714,.T.);
#538=ORIENTED_EDGE('',*,*,#673,.F.);
#539=ORIENTED_EDGE('',*,*,#690,.F.);
#540=ORIENTED_EDGE('',*,*,#781,.T.);
#541=ORIENTED_EDGE('',*,*,#628,.T.);
#542=ORIENTED_EDGE('',*,*,#622,.T.);
#543=ORIENTED_EDGE('',*,*,#620,.T.);
#544=ORIENTED_EDGE('',*,*,#618,.T.);
#545=ORIENTED_EDGE('',*,*,#616,.T.);
#546=ORIENTED_EDGE('',*,*,#782,.F.);
#547=ORIENTED_EDGE('',*,*,#693,.F.);
#548=ORIENTED_EDGE('',*,*,#703,.F.);
#549=ORIENTED_EDGE('',*,*,#696,.T.);
#550=ORIENTED_EDGE('',*,*,#783,.T.);
#551=ORIENTED_EDGE('',*,*,#636,.F.);
#552=ORIENTED_EDGE('',*,*,#699,.F.);
#553=ORIENTED_EDGE('',*,*,#630,.T.);
#554=ORIENTED_EDGE('',*,*,#781,.F.);
#555=ORIENTED_EDGE('',*,*,#689,.T.);
#556=ORIENTED_EDGE('',*,*,#782,.T.);
#557=ORIENTED_EDGE('',*,*,#629,.F.);
#558=ORIENTED_EDGE('',*,*,#637,.T.);
#559=ORIENTED_EDGE('',*,*,#783,.F.);
#560=ORIENTED_EDGE('',*,*,#695,.F.);
#561=ORIENTED_EDGE('',*,*,#774,.F.);
#562=ORIENTED_EDGE('',*,*,#772,.T.);
#563=ORIENTED_EDGE('',*,*,#770,.T.);
#564=ORIENTED_EDGE('',*,*,#768,.F.);
#565=ORIENTED_EDGE('',*,*,#766,.T.);
#566=ORIENTED_EDGE('',*,*,#764,.F.);
#567=ORIENTED_EDGE('',*,*,#762,.F.);
#568=ORIENTED_EDGE('',*,*,#755,.T.);
#569=ORIENTED_EDGE('',*,*,#779,.T.);
#570=ORIENTED_EDGE('',*,*,#760,.T.);
#571=ORIENTED_EDGE('',*,*,#758,.T.);
#572=ORIENTED_EDGE('',*,*,#748,.T.);
#573=ORIENTED_EDGE('',*,*,#778,.T.);
#574=ORIENTED_EDGE('',*,*,#753,.T.);
#575=ORIENTED_EDGE('',*,*,#751,.T.);
#576=ORIENTED_EDGE('',*,*,#737,.T.);
#577=ORIENTED_EDGE('',*,*,#777,.T.);
#578=ORIENTED_EDGE('',*,*,#746,.T.);
#579=ORIENTED_EDGE('',*,*,#744,.T.);
#580=ORIENTED_EDGE('',*,*,#742,.T.);
#581=ORIENTED_EDGE('',*,*,#740,.T.);
#582=ORIENTED_EDGE('',*,*,#726,.T.);
#583=ORIENTED_EDGE('',*,*,#776,.F.);
#584=ORIENTED_EDGE('',*,*,#735,.T.);
#585=ORIENTED_EDGE('',*,*,#733,.F.);
#586=ORIENTED_EDGE('',*,*,#731,.T.);
#587=ORIENTED_EDGE('',*,*,#729,.F.);
#588=ORIENTED_EDGE('',*,*,#715,.T.);
#589=ORIENTED_EDGE('',*,*,#775,.F.);
#590=ORIENTED_EDGE('',*,*,#724,.T.);
#591=ORIENTED_EDGE('',*,*,#722,.F.);
#592=ORIENTED_EDGE('',*,*,#720,.T.);
#593=ORIENTED_EDGE('',*,*,#718,.F.);
#594=ORIENTED_EDGE('',*,*,#704,.T.);
#595=ORIENTED_EDGE('',*,*,#780,.F.);
#596=ORIENTED_EDGE('',*,*,#713,.T.);
#597=ORIENTED_EDGE('',*,*,#711,.F.);
#598=ORIENTED_EDGE('',*,*,#709,.T.);
#599=ORIENTED_EDGE('',*,*,#707,.F.);
#600=ORIENTED_EDGE('',*,*,#784,.F.);
#601=ORIENTED_EDGE('',*,*,#683,.T.);
#602=ORIENTED_EDGE('',*,*,#623,.F.);
#603=ORIENTED_EDGE('',*,*,#784,.T.);
#604=ORIENTED_EDGE('',*,*,#785,.F.);
#605=ORIENTED_EDGE('',*,*,#700,.T.);
#606=ORIENTED_EDGE('',*,*,#621,.F.);
#607=ORIENTED_EDGE('',*,*,#785,.T.);
#608=ORIENTED_EDGE('',*,*,#786,.F.);
#609=ORIENTED_EDGE('',*,*,#701,.T.);
#610=ORIENTED_EDGE('',*,*,#619,.F.);
#611=ORIENTED_EDGE('',*,*,#786,.T.);
#612=ORIENTED_EDGE('',*,*,#787,.F.);
#613=ORIENTED_EDGE('',*,*,#684,.T.);
#614=ORIENTED_EDGE('',*,*,#617,.F.);
#615=ORIENTED_EDGE('',*,*,#787,.T.);
#616=EDGE_CURVE('',#788,#788,#908,.T.);
#617=EDGE_CURVE('',#789,#789,#909,.T.);
#618=EDGE_CURVE('',#790,#790,#910,.T.);
#619=EDGE_CURVE('',#791,#791,#911,.T.);
#620=EDGE_CURVE('',#792,#792,#912,.T.);
#621=EDGE_CURVE('',#793,#793,#913,.T.);
#622=EDGE_CURVE('',#794,#794,#914,.T.);
#623=EDGE_CURVE('',#795,#795,#915,.T.);
#624=EDGE_CURVE('',#796,#797,#916,.T.);
#625=EDGE_CURVE('',#798,#797,#48,.T.);
#626=EDGE_CURVE('',#799,#798,#917,.T.);
#627=EDGE_CURVE('',#799,#796,#49,.T.);
#628=EDGE_CURVE('',#800,#801,#50,.T.);
#629=EDGE_CURVE('',#800,#802,#51,.T.);
#630=EDGE_CURVE('',#803,#802,#52,.T.);
#631=EDGE_CURVE('',#804,#803,#53,.T.);
#632=EDGE_CURVE('',#804,#799,#54,.T.);
#633=EDGE_CURVE('',#798,#801,#55,.T.);
#634=EDGE_CURVE('',#805,#796,#56,.T.);
#635=EDGE_CURVE('',#805,#806,#57,.T.);
#636=EDGE_CURVE('',#806,#807,#58,.T.);
#637=EDGE_CURVE('',#808,#807,#59,.T.);
#638=EDGE_CURVE('',#809,#808,#60,.T.);
#639=EDGE_CURVE('',#809,#797,#61,.T.);
#640=EDGE_CURVE('',#810,#811,#62,.T.);
#641=EDGE_CURVE('',#812,#810,#918,.T.);
#642=EDGE_CURVE('',#813,#812,#63,.T.);
#643=EDGE_CURVE('',#811,#813,#919,.T.);
#644=EDGE_CURVE('',#814,#815,#64,.T.);
#645=EDGE_CURVE('',#816,#814,#920,.T.);
#646=EDGE_CURVE('',#817,#816,#65,.T.);
#647=EDGE_CURVE('',#815,#817,#921,.T.);
#648=EDGE_CURVE('',#818,#819,#66,.T.);
#649=EDGE_CURVE('',#820,#818,#922,.T.);
#650=EDGE_CURVE('',#821,#820,#67,.T.);
#651=EDGE_CURVE('',#822,#821,#923,.T.);
#652=EDGE_CURVE('',#823,#822,#68,.T.);
#653=EDGE_CURVE('',#819,#823,#924,.T.);
#654=EDGE_CURVE('',#824,#825,#925,.T.);
#655=EDGE_CURVE('',#824,#826,#69,.T.);
#656=EDGE_CURVE('',#827,#826,#926,.T.);
#657=EDGE_CURVE('',#827,#828,#70,.T.);
#658=EDGE_CURVE('',#829,#828,#927,.T.);
#659=EDGE_CURVE('',#829,#825,#71,.T.);
#660=EDGE_CURVE('',#830,#831,#928,.T.);
#661=EDGE_CURVE('',#830,#832,#72,.T.);
#662=EDGE_CURVE('',#833,#832,#929,.T.);
#663=EDGE_CURVE('',#833,#834,#73,.T.);
#664=EDGE_CURVE('',#835,#834,#930,.T.);
#665=EDGE_CURVE('',#835,#831,#74,.T.);
#666=EDGE_CURVE('',#836,#837,#931,.T.);
#667=EDGE_CURVE('',#836,#838,#75,.T.);
#668=EDGE_CURVE('',#839,#838,#932,.T.);
#669=EDGE_CURVE('',#839,#840,#76,.T.);
#670=EDGE_CURVE('',#841,#840,#933,.T.);
#671=EDGE_CURVE('',#841,#837,#77,.T.);
#672=EDGE_CURVE('',#842,#843,#78,.T.);
#673=EDGE_CURVE('',#843,#801,#79,.T.);
#674=EDGE_CURVE('',#809,#844,#934,.T.);
#675=EDGE_CURVE('',#844,#845,#80,.T.);
#676=EDGE_CURVE('',#846,#845,#935,.T.);
#677=EDGE_CURVE('',#846,#847,#81,.T.);
#678=EDGE_CURVE('',#848,#847,#936,.T.);
#679=EDGE_CURVE('',#849,#848,#82,.T.);
#680=EDGE_CURVE('',#849,#850,#937,.T.);
#681=EDGE_CURVE('',#850,#851,#83,.T.);
#682=EDGE_CURVE('',#842,#851,#84,.T.);
#683=EDGE_CURVE('',#852,#852,#938,.T.);
#684=EDGE_CURVE('',#853,#853,#939,.T.);
#685=EDGE_CURVE('',#804,#805,#85,.T.);
#686=EDGE_CURVE('',#851,#854,#940,.T.);
#687=EDGE_CURVE('',#855,#854,#86,.T.);
#688=EDGE_CURVE('',#842,#855,#941,.T.);
#689=EDGE_CURVE('',#856,#857,#87,.T.);
#690=EDGE_CURVE('',#856,#843,#88,.T.);
#691=EDGE_CURVE('',#858,#855,#89,.T.);
#692=EDGE_CURVE('',#858,#859,#90,.T.);
#693=EDGE_CURVE('',#859,#857,#91,.T.);
#694=EDGE_CURVE('',#850,#860,#92,.T.);
#695=EDGE_CURVE('',#860,#861,#93,.T.);
#696=EDGE_CURVE('',#862,#861,#94,.T.);
#697=EDGE_CURVE('',#863,#862,#95,.T.);
#698=EDGE_CURVE('',#863,#854,#96,.T.);
#699=EDGE_CURVE('',#803,#806,#97,.T.);
#700=EDGE_CURVE('',#864,#864,#942,.T.);
#701=EDGE_CURVE('',#865,#865,#943,.T.);
#702=EDGE_CURVE('',#863,#858,#98,.T.);
#703=EDGE_CURVE('',#862,#859,#99,.T.);
#704=EDGE_CURVE('',#866,#867,#944,.T.);
#705=EDGE_CURVE('',#836,#866,#100,.T.);
#706=EDGE_CURVE('',#837,#867,#101,.T.);
#707=EDGE_CURVE('',#866,#868,#102,.T.);
#708=EDGE_CURVE('',#838,#868,#103,.T.);
#709=EDGE_CURVE('',#869,#868,#945,.T.);
#710=EDGE_CURVE('',#839,#869,#104,.T.);
#711=EDGE_CURVE('',#869,#870,#105,.T.);
#712=EDGE_CURVE('',#840,#870,#106,.T.);
#713=EDGE_CURVE('',#871,#870,#946,.T.);
#714=EDGE_CURVE('',#841,#871,#107,.T.);
#715=EDGE_CURVE('',#872,#873,#947,.T.);
#716=EDGE_CURVE('',#830,#872,#108,.T.);
#717=EDGE_CURVE('',#831,#873,#109,.T.);
#718=EDGE_CURVE('',#872,#874,#110,.T.);
#719=EDGE_CURVE('',#832,#874,#111,.T.);
#720=EDGE_CURVE('',#875,#874,#948,.T.);
#721=EDGE_CURVE('',#833,#875,#112,.T.);
#722=EDGE_CURVE('',#875,#876,#113,.T.);
#723=EDGE_CURVE('',#834,#876,#114,.T.);
#724=EDGE_CURVE('',#877,#876,#949,.T.);
#725=EDGE_CURVE('',#835,#877,#115,.T.);
#726=EDGE_CURVE('',#878,#879,#950,.T.);
#727=EDGE_CURVE('',#824,#878,#116,.T.);
#728=EDGE_CURVE('',#825,#879,#117,.T.);
#729=EDGE_CURVE('',#878,#880,#118,.T.);
#730=EDGE_CURVE('',#826,#880,#119,.T.);
#731=EDGE_CURVE('',#881,#880,#951,.T.);
#732=EDGE_CURVE('',#827,#881,#120,.T.);
#733=EDGE_CURVE('',#881,#882,#121,.T.);
#734=EDGE_CURVE('',#828,#882,#122,.T.);
#735=EDGE_CURVE('',#883,#882,#952,.T.);
#736=EDGE_CURVE('',#829,#883,#123,.T.);
#737=EDGE_CURVE('',#884,#885,#124,.T.);
#738=EDGE_CURVE('',#818,#884,#125,.T.);
#739=EDGE_CURVE('',#819,#885,#126,.T.);
#740=EDGE_CURVE('',#886,#884,#953,.T.);
#741=EDGE_CURVE('',#820,#886,#127,.T.);
#742=EDGE_CURVE('',#887,#886,#128,.T.);
#743=EDGE_CURVE('',#821,#887,#129,.T.);
#744=EDGE_CURVE('',#888,#887,#954,.T.);
#745=EDGE_CURVE('',#822,#888,#130,.T.);
#746=EDGE_CURVE('',#889,#888,#131,.T.);
#747=EDGE_CURVE('',#823,#889,#132,.T.);
#748=EDGE_CURVE('',#890,#891,#133,.T.);
#749=EDGE_CURVE('',#814,#890,#134,.T.);
#750=EDGE_CURVE('',#815,#891,#135,.T.);
#751=EDGE_CURVE('',#892,#890,#955,.T.);
#752=EDGE_CURVE('',#816,#892,#136,.T.);
#753=EDGE_CURVE('',#893,#892,#137,.T.);
#754=EDGE_CURVE('',#817,#893,#138,.T.);
#755=EDGE_CURVE('',#894,#895,#139,.T.);
#756=EDGE_CURVE('',#810,#894,#140,.T.);
#757=EDGE_CURVE('',#811,#895,#141,.T.);
#758=EDGE_CURVE('',#896,#894,#956,.T.);
#759=EDGE_CURVE('',#812,#896,#142,.T.);
#760=EDGE_CURVE('',#897,#896,#143,.T.);
#761=EDGE_CURVE('',#813,#897,#144,.T.);
#762=EDGE_CURVE('',#808,#898,#957,.T.);
#763=EDGE_CURVE('',#844,#898,#145,.T.);
#764=EDGE_CURVE('',#898,#899,#146,.T.);
#765=EDGE_CURVE('',#845,#899,#147,.T.);
#766=EDGE_CURVE('',#900,#899,#958,.T.);
#767=EDGE_CURVE('',#846,#900,#148,.T.);
#768=EDGE_CURVE('',#900,#901,#149,.T.);
#769=EDGE_CURVE('',#847,#901,#150,.T.);
#770=EDGE_CURVE('',#902,#901,#959,.T.);
#771=EDGE_CURVE('',#848,#902,#151,.T.);
#772=EDGE_CURVE('',#903,#902,#152,.T.);
#773=EDGE_CURVE('',#849,#903,#153,.T.);
#774=EDGE_CURVE('',#903,#860,#960,.T.);
#775=EDGE_CURVE('',#877,#873,#154,.T.);
#776=EDGE_CURVE('',#883,#879,#155,.T.);
#777=EDGE_CURVE('',#885,#889,#961,.T.);
#778=EDGE_CURVE('',#891,#893,#962,.T.);
#779=EDGE_CURVE('',#895,#897,#963,.T.);
#780=EDGE_CURVE('',#871,#867,#156,.T.);
#781=EDGE_CURVE('',#856,#800,#157,.T.);
#782=EDGE_CURVE('',#857,#802,#158,.T.);
#783=EDGE_CURVE('',#861,#807,#159,.T.);
#784=EDGE_CURVE('',#904,#904,#964,.T.);
#785=EDGE_CURVE('',#905,#905,#965,.T.);
#786=EDGE_CURVE('',#906,#906,#966,.T.);
#787=EDGE_CURVE('',#907,#907,#967,.T.);
#788=VERTEX_POINT('',#1768);
#789=VERTEX_POINT('',#1770);
#790=VERTEX_POINT('',#1773);
#791=VERTEX_POINT('',#1775);
#792=VERTEX_POINT('',#1778);
#793=VERTEX_POINT('',#1780);
#794=VERTEX_POINT('',#1783);
#795=VERTEX_POINT('',#1785);
#796=VERTEX_POINT('',#1788);
#797=VERTEX_POINT('',#1789);
#798=VERTEX_POINT('',#1791);
#799=VERTEX_POINT('',#1793);
#800=VERTEX_POINT('',#1797);
#801=VERTEX_POINT('',#1798);
#802=VERTEX_POINT('',#1800);
#803=VERTEX_POINT('',#1802);
#804=VERTEX_POINT('',#1804);
#805=VERTEX_POINT('',#1809);
#806=VERTEX_POINT('',#1811);
#807=VERTEX_POINT('',#1813);
#808=VERTEX_POINT('',#1815);
#809=VERTEX_POINT('',#1817);
#810=VERTEX_POINT('',#1821);
#811=VERTEX_POINT('',#1822);
#812=VERTEX_POINT('',#1824);
#813=VERTEX_POINT('',#1826);
#814=VERTEX_POINT('',#1829);
#815=VERTEX_POINT('',#1830);
#816=VERTEX_POINT('',#1832);
#817=VERTEX_POINT('',#1834);
#818=VERTEX_POINT('',#1837);
#819=VERTEX_POINT('',#1838);
#820=VERTEX_POINT('',#1840);
#821=VERTEX_POINT('',#1842);
#822=VERTEX_POINT('',#1844);
#823=VERTEX_POINT('',#1846);
#824=VERTEX_POINT('',#1849);
#825=VERTEX_POINT('',#1850);
#826=VERTEX_POINT('',#1852);
#827=VERTEX_POINT('',#1854);
#828=VERTEX_POINT('',#1856);
#829=VERTEX_POINT('',#1858);
#830=VERTEX_POINT('',#1861);
#831=VERTEX_POINT('',#1862);
#832=VERTEX_POINT('',#1864);
#833=VERTEX_POINT('',#1866);
#834=VERTEX_POINT('',#1868);
#835=VERTEX_POINT('',#1870);
#836=VERTEX_POINT('',#1873);
#837=VERTEX_POINT('',#1874);
#838=VERTEX_POINT('',#1876);
#839=VERTEX_POINT('',#1878);
#840=VERTEX_POINT('',#1880);
#841=VERTEX_POINT('',#1882);
#842=VERTEX_POINT('',#1885);
#843=VERTEX_POINT('',#1886);
#844=VERTEX_POINT('',#1889);
#845=VERTEX_POINT('',#1891);
#846=VERTEX_POINT('',#1893);
#847=VERTEX_POINT('',#1895);
#848=VERTEX_POINT('',#1897);
#849=VERTEX_POINT('',#1899);
#850=VERTEX_POINT('',#1901);
#851=VERTEX_POINT('',#1903);
#852=VERTEX_POINT('',#1907);
#853=VERTEX_POINT('',#1909);
#854=VERTEX_POINT('',#1913);
#855=VERTEX_POINT('',#1915);
#856=VERTEX_POINT('',#1919);
#857=VERTEX_POINT('',#1920);
#858=VERTEX_POINT('',#1923);
#859=VERTEX_POINT('',#1925);
#860=VERTEX_POINT('',#1929);
#861=VERTEX_POINT('',#1931);
#862=VERTEX_POINT('',#1933);
#863=VERTEX_POINT('',#1935);
#864=VERTEX_POINT('',#1941);
#865=VERTEX_POINT('',#1943);
#866=VERTEX_POINT('',#1949);
#867=VERTEX_POINT('',#1950);
#868=VERTEX_POINT('',#1955);
#869=VERTEX_POINT('',#1959);
#870=VERTEX_POINT('',#1963);
#871=VERTEX_POINT('',#1967);
#872=VERTEX_POINT('',#1971);
#873=VERTEX_POINT('',#1972);
#874=VERTEX_POINT('',#1977);
#875=VERTEX_POINT('',#1981);
#876=VERTEX_POINT('',#1985);
#877=VERTEX_POINT('',#1989);
#878=VERTEX_POINT('',#1993);
#879=VERTEX_POINT('',#1994);
#880=VERTEX_POINT('',#1999);
#881=VERTEX_POINT('',#2003);
#882=VERTEX_POINT('',#2007);
#883=VERTEX_POINT('',#2011);
#884=VERTEX_POINT('',#2015);
#885=VERTEX_POINT('',#2016);
#886=VERTEX_POINT('',#2021);
#887=VERTEX_POINT('',#2025);
#888=VERTEX_POINT('',#2029);
#889=VERTEX_POINT('',#2033);
#890=VERTEX_POINT('',#2037);
#891=VERTEX_POINT('',#2038);
#892=VERTEX_POINT('',#2043);
#893=VERTEX_POINT('',#2047);
#894=VERTEX_POINT('',#2051);
#895=VERTEX_POINT('',#2052);
#896=VERTEX_POINT('',#2057);
#897=VERTEX_POINT('',#2061);
#898=VERTEX_POINT('',#2065);
#899=VERTEX_POINT('',#2069);
#900=VERTEX_POINT('',#2073);
#901=VERTEX_POINT('',#2077);
#902=VERTEX_POINT('',#2081);
#903=VERTEX_POINT('',#2085);
#904=VERTEX_POINT('',#2110);
#905=VERTEX_POINT('',#2114);
#906=VERTEX_POINT('',#2118);
#907=VERTEX_POINT('',#2122);
#908=CIRCLE('',#1274,0.00165);
#909=CIRCLE('',#1275,0.00165);
#910=CIRCLE('',#1277,0.00165);
#911=CIRCLE('',#1278,0.00165);
#912=CIRCLE('',#1280,0.00165);
#913=CIRCLE('',#1281,0.00165);
#914=CIRCLE('',#1283,0.00165);
#915=CIRCLE('',#1284,0.00165);
#916=CIRCLE('',#1286,0.025);
#917=CIRCLE('',#1287,0.025);
#918=CIRCLE('',#1291,0.002);
#919=CIRCLE('',#1292,0.002);
#920=CIRCLE('',#1293,0.002);
#921=CIRCLE('',#1294,0.002);
#922=CIRCLE('',#1295,0.0015);
#923=CIRCLE('',#1296,0.00150000000000004);
#924=CIRCLE('',#1297,0.0015);
#925=CIRCLE('',#1298,0.0015);
#926=CIRCLE('',#1299,0.0015);
#927=CIRCLE('',#1300,0.0015);
#928=CIRCLE('',#1301,0.0015);
#929=CIRCLE('',#1302,0.0015);
#930=CIRCLE('',#1303,0.0015);
#931=CIRCLE('',#1304,0.0015);
#932=CIRCLE('',#1305,0.0015);
#933=CIRCLE('',#1306,0.00150000000000007);
#934=CIRCLE('',#1307,0.006);
#935=CIRCLE('',#1308,0.0175);
#936=CIRCLE('',#1309,0.0175);
#937=CIRCLE('',#1310,0.006);
#938=CIRCLE('',#1312,0.002);
#939=CIRCLE('',#1313,0.002);
#940=CIRCLE('',#1315,0.025);
#941=CIRCLE('',#1316,0.025);
#942=CIRCLE('',#1321,0.002);
#943=CIRCLE('',#1322,0.002);
#944=CIRCLE('',#1325,0.0015);
#945=CIRCLE('',#1328,0.0015);
#946=CIRCLE('',#1331,0.00150000000000007);
#947=CIRCLE('',#1333,0.0015);
#948=CIRCLE('',#1336,0.0015);
#949=CIRCLE('',#1339,0.0015);
#950=CIRCLE('',#1341,0.0015);
#951=CIRCLE('',#1344,0.0015);
#952=CIRCLE('',#1347,0.0015);
#953=CIRCLE('',#1350,0.0015);
#954=CIRCLE('',#1353,0.00150000000000004);
#955=CIRCLE('',#1357,0.002);
#956=CIRCLE('',#1361,0.002);
#957=CIRCLE('',#1364,0.006);
#958=CIRCLE('',#1367,0.0175);
#959=CIRCLE('',#1370,0.0175);
#960=CIRCLE('',#1373,0.006);
#961=CIRCLE('',#1377,0.0015);
#962=CIRCLE('',#1379,0.002);
#963=CIRCLE('',#1381,0.002);
#964=CIRCLE('',#1388,0.002);
#965=CIRCLE('',#1391,0.002);
#966=CIRCLE('',#1394,0.002);
#967=CIRCLE('',#1397,0.002);
#968=EDGE_LOOP('',(#272));
#969=EDGE_LOOP('',(#273));
#970=EDGE_LOOP('',(#274));
#971=EDGE_LOOP('',(#275));
#972=EDGE_LOOP('',(#276));
#973=EDGE_LOOP('',(#277));
#974=EDGE_LOOP('',(#278));
#975=EDGE_LOOP('',(#279));
#976=EDGE_LOOP('',(#280,#281,#282,#283));
#977=EDGE_LOOP('',(#284,#285,#286,#287,#288,#289,#290));
#978=EDGE_LOOP('',(#291,#292,#293,#294,#295,#296,#297));
#979=EDGE_LOOP('',(#298,#299,#300,#301));
#980=EDGE_LOOP('',(#302,#303,#304,#305));
#981=EDGE_LOOP('',(#306,#307,#308,#309,#310,#311));
#982=EDGE_LOOP('',(#312,#313,#314,#315,#316,#317));
#983=EDGE_LOOP('',(#318,#319,#320,#321,#322,#323));
#984=EDGE_LOOP('',(#324,#325,#326,#327,#328,#329));
#985=EDGE_LOOP('',(#330,#331,#332,#333,#334,#335,#336,#337,#338,#339,#340,
#341,#342,#343));
#986=EDGE_LOOP('',(#344));
#987=EDGE_LOOP('',(#345));
#988=EDGE_LOOP('',(#346,#347,#348,#349));
#989=EDGE_LOOP('',(#350,#351,#352,#353));
#990=EDGE_LOOP('',(#354,#355,#356,#357,#358,#359,#360));
#991=EDGE_LOOP('',(#361,#362,#363,#364,#365,#366,#367));
#992=EDGE_LOOP('',(#368,#369,#370,#371));
#993=EDGE_LOOP('',(#372));
#994=EDGE_LOOP('',(#373));
#995=EDGE_LOOP('',(#374,#375,#376,#377));
#996=EDGE_LOOP('',(#378,#379,#380,#381));
#997=EDGE_LOOP('',(#382,#383,#384,#385));
#998=EDGE_LOOP('',(#386,#387,#388,#389));
#999=EDGE_LOOP('',(#390,#391,#392,#393));
#1000=EDGE_LOOP('',(#394,#395,#396,#397));
#1001=EDGE_LOOP('',(#398,#399,#400,#401));
#1002=EDGE_LOOP('',(#402,#403,#404,#405));
#1003=EDGE_LOOP('',(#406,#407,#408,#409));
#1004=EDGE_LOOP('',(#410,#411,#412,#413));
#1005=EDGE_LOOP('',(#414,#415,#416,#417));
#1006=EDGE_LOOP('',(#418,#419,#420,#421));
#1007=EDGE_LOOP('',(#422,#423,#424,#425));
#1008=EDGE_LOOP('',(#426,#427,#428,#429));
#1009=EDGE_LOOP('',(#430,#431,#432,#433));
#1010=EDGE_LOOP('',(#434,#435,#436,#437));
#1011=EDGE_LOOP('',(#438,#439,#440,#441));
#1012=EDGE_LOOP('',(#442,#443,#444,#445));
#1013=EDGE_LOOP('',(#446,#447,#448,#449));
#1014=EDGE_LOOP('',(#450,#451,#452,#453));
#1015=EDGE_LOOP('',(#454,#455,#456,#457));
#1016=EDGE_LOOP('',(#458,#459,#460,#461));
#1017=EDGE_LOOP('',(#462,#463,#464,#465));
#1018=EDGE_LOOP('',(#466,#467,#468,#469));
#1019=EDGE_LOOP('',(#470,#471,#472,#473));
#1020=EDGE_LOOP('',(#474,#475,#476,#477));
#1021=EDGE_LOOP('',(#478,#479,#480,#481));
#1022=EDGE_LOOP('',(#482,#483,#484,#485));
#1023=EDGE_LOOP('',(#486,#487,#488,#489));
#1024=EDGE_LOOP('',(#490,#491,#492,#493));
#1025=EDGE_LOOP('',(#494,#495,#496,#497));
#1026=EDGE_LOOP('',(#498,#499,#500,#501));
#1027=EDGE_LOOP('',(#502,#503,#504,#505));
#1028=EDGE_LOOP('',(#506,#507,#508,#509));
#1029=EDGE_LOOP('',(#510,#511,#512,#513));
#1030=EDGE_LOOP('',(#514,#515,#516,#517));
#1031=EDGE_LOOP('',(#518,#519,#520,#521));
#1032=EDGE_LOOP('',(#522,#523,#524,#525));
#1033=EDGE_LOOP('',(#526,#527,#528,#529));
#1034=EDGE_LOOP('',(#530,#531,#532,#533));
#1035=EDGE_LOOP('',(#534,#535,#536,#537));
#1036=EDGE_LOOP('',(#538,#539,#540,#541));
#1037=EDGE_LOOP('',(#542));
#1038=EDGE_LOOP('',(#543));
#1039=EDGE_LOOP('',(#544));
#1040=EDGE_LOOP('',(#545));
#1041=EDGE_LOOP('',(#546,#547,#548,#549,#550,#551,#552,#553));
#1042=EDGE_LOOP('',(#554,#555,#556,#557));
#1043=EDGE_LOOP('',(#558,#559,#560,#561,#562,#563,#564,#565,#566,#567));
#1044=EDGE_LOOP('',(#568,#569,#570,#571));
#1045=EDGE_LOOP('',(#572,#573,#574,#575));
#1046=EDGE_LOOP('',(#576,#577,#578,#579,#580,#581));
#1047=EDGE_LOOP('',(#582,#583,#584,#585,#586,#587));
#1048=EDGE_LOOP('',(#588,#589,#590,#591,#592,#593));
#1049=EDGE_LOOP('',(#594,#595,#596,#597,#598,#599));
#1050=EDGE_LOOP('',(#600));
#1051=EDGE_LOOP('',(#601));
#1052=EDGE_LOOP('',(#602));
#1053=EDGE_LOOP('',(#603));
#1054=EDGE_LOOP('',(#604));
#1055=EDGE_LOOP('',(#605));
#1056=EDGE_LOOP('',(#606));
#1057=EDGE_LOOP('',(#607));
#1058=EDGE_LOOP('',(#608));
#1059=EDGE_LOOP('',(#609));
#1060=EDGE_LOOP('',(#610));
#1061=EDGE_LOOP('',(#611));
#1062=EDGE_LOOP('',(#612));
#1063=EDGE_LOOP('',(#613));
#1064=EDGE_LOOP('',(#614));
#1065=EDGE_LOOP('',(#615));
#1066=FACE_BOUND('',#968,.T.);
#1067=FACE_BOUND('',#969,.T.);
#1068=FACE_BOUND('',#970,.T.);
#1069=FACE_BOUND('',#971,.T.);
#1070=FACE_BOUND('',#972,.T.);
#1071=FACE_BOUND('',#973,.T.);
#1072=FACE_BOUND('',#974,.T.);
#1073=FACE_BOUND('',#975,.T.);
#1074=FACE_BOUND('',#976,.T.);
#1075=FACE_BOUND('',#977,.T.);
#1076=FACE_BOUND('',#978,.T.);
#1077=FACE_BOUND('',#979,.T.);
#1078=FACE_BOUND('',#980,.T.);
#1079=FACE_BOUND('',#981,.T.);
#1080=FACE_BOUND('',#982,.T.);
#1081=FACE_BOUND('',#983,.T.);
#1082=FACE_BOUND('',#984,.T.);
#1083=FACE_BOUND('',#985,.T.);
#1084=FACE_BOUND('',#986,.T.);
#1085=FACE_BOUND('',#987,.T.);
#1086=FACE_BOUND('',#988,.T.);
#1087=FACE_BOUND('',#989,.T.);
#1088=FACE_BOUND('',#990,.T.);
#1089=FACE_BOUND('',#991,.T.);
#1090=FACE_BOUND('',#992,.T.);
#1091=FACE_BOUND('',#993,.T.);
#1092=FACE_BOUND('',#994,.T.);
#1093=FACE_BOUND('',#995,.T.);
#1094=FACE_BOUND('',#996,.T.);
#1095=FACE_BOUND('',#997,.T.);
#1096=FACE_BOUND('',#998,.T.);
#1097=FACE_BOUND('',#999,.T.);
#1098=FACE_BOUND('',#1000,.T.);
#1099=FACE_BOUND('',#1001,.T.);
#1100=FACE_BOUND('',#1002,.T.);
#1101=FACE_BOUND('',#1003,.T.);
#1102=FACE_BOUND('',#1004,.T.);
#1103=FACE_BOUND('',#1005,.T.);
#1104=FACE_BOUND('',#1006,.T.);
#1105=FACE_BOUND('',#1007,.T.);
#1106=FACE_BOUND('',#1008,.T.);
#1107=FACE_BOUND('',#1009,.T.);
#1108=FACE_BOUND('',#1010,.T.);
#1109=FACE_BOUND('',#1011,.T.);
#1110=FACE_BOUND('',#1012,.T.);
#1111=FACE_BOUND('',#1013,.T.);
#1112=FACE_BOUND('',#1014,.T.);
#1113=FACE_BOUND('',#1015,.T.);
#1114=FACE_BOUND('',#1016,.T.);
#1115=FACE_BOUND('',#1017,.T.);
#1116=FACE_BOUND('',#1018,.T.);
#1117=FACE_BOUND('',#1019,.T.);
#1118=FACE_BOUND('',#1020,.T.);
#1119=FACE_BOUND('',#1021,.T.);
#1120=FACE_BOUND('',#1022,.T.);
#1121=FACE_BOUND('',#1023,.T.);
#1122=FACE_BOUND('',#1024,.T.);
#1123=FACE_BOUND('',#1025,.T.);
#1124=FACE_BOUND('',#1026,.T.);
#1125=FACE_BOUND('',#1027,.T.);
#1126=FACE_BOUND('',#1028,.T.);
#1127=FACE_BOUND('',#1029,.T.);
#1128=FACE_BOUND('',#1030,.T.);
#1129=FACE_BOUND('',#1031,.T.);
#1130=FACE_BOUND('',#1032,.T.);
#1131=FACE_BOUND('',#1033,.T.);
#1132=FACE_BOUND('',#1034,.T.);
#1133=FACE_BOUND('',#1035,.T.);
#1134=FACE_BOUND('',#1036,.T.);
#1135=FACE_BOUND('',#1037,.T.);
#1136=FACE_BOUND('',#1038,.T.);
#1137=FACE_BOUND('',#1039,.T.);
#1138=FACE_BOUND('',#1040,.T.);
#1139=FACE_BOUND('',#1041,.T.);
#1140=FACE_BOUND('',#1042,.T.);
#1141=FACE_BOUND('',#1043,.T.);
#1142=FACE_BOUND('',#1044,.T.);
#1143=FACE_BOUND('',#1045,.T.);
#1144=FACE_BOUND('',#1046,.T.);
#1145=FACE_BOUND('',#1047,.T.);
#1146=FACE_BOUND('',#1048,.T.);
#1147=FACE_BOUND('',#1049,.T.);
#1148=FACE_BOUND('',#1050,.T.);
#1149=FACE_BOUND('',#1051,.T.);
#1150=FACE_BOUND('',#1052,.T.);
#1151=FACE_BOUND('',#1053,.T.);
#1152=FACE_BOUND('',#1054,.T.);
#1153=FACE_BOUND('',#1055,.T.);
#1154=FACE_BOUND('',#1056,.T.);
#1155=FACE_BOUND('',#1057,.T.);
#1156=FACE_BOUND('',#1058,.T.);
#1157=FACE_BOUND('',#1059,.T.);
#1158=FACE_BOUND('',#1060,.T.);
#1159=FACE_BOUND('',#1061,.T.);
#1160=FACE_BOUND('',#1062,.T.);
#1161=FACE_BOUND('',#1063,.T.);
#1162=FACE_BOUND('',#1064,.T.);
#1163=FACE_BOUND('',#1065,.T.);
#1164=CYLINDRICAL_SURFACE('',#1273,0.00165);
#1165=CYLINDRICAL_SURFACE('',#1276,0.00165);
#1166=CYLINDRICAL_SURFACE('',#1279,0.00165);
#1167=CYLINDRICAL_SURFACE('',#1282,0.00165);
#1168=CYLINDRICAL_SURFACE('',#1285,0.025);
#1169=CYLINDRICAL_SURFACE('',#1314,0.025);
#1170=CYLINDRICAL_SURFACE('',#1324,0.0015);
#1171=CYLINDRICAL_SURFACE('',#1327,0.0015);
#1172=CYLINDRICAL_SURFACE('',#1330,0.00150000000000007);
#1173=CYLINDRICAL_SURFACE('',#1332,0.0015);
#1174=CYLINDRICAL_SURFACE('',#1335,0.0015);
#1175=CYLINDRICAL_SURFACE('',#1338,0.0015);
#1176=CYLINDRICAL_SURFACE('',#1340,0.0015);
#1177=CYLINDRICAL_SURFACE('',#1343,0.0015);
#1178=CYLINDRICAL_SURFACE('',#1346,0.0015);
#1179=CYLINDRICAL_SURFACE('',#1349,0.0015);
#1180=CYLINDRICAL_SURFACE('',#1352,0.00150000000000004);
#1181=CYLINDRICAL_SURFACE('',#1356,0.002);
#1182=CYLINDRICAL_SURFACE('',#1360,0.002);
#1183=CYLINDRICAL_SURFACE('',#1363,0.006);
#1184=CYLINDRICAL_SURFACE('',#1366,0.0175);
#1185=CYLINDRICAL_SURFACE('',#1369,0.0175);
#1186=CYLINDRICAL_SURFACE('',#1372,0.006);
#1187=CYLINDRICAL_SURFACE('',#1376,0.0015);
#1188=CYLINDRICAL_SURFACE('',#1378,0.002);
#1189=CYLINDRICAL_SURFACE('',#1380,0.002);
#1190=CYLINDRICAL_SURFACE('',#1387,0.002);
#1191=CYLINDRICAL_SURFACE('',#1390,0.002);
#1192=CYLINDRICAL_SURFACE('',#1393,0.002);
#1193=CYLINDRICAL_SURFACE('',#1396,0.002);
#1194=ADVANCED_FACE('',(#1066,#1067),#1164,.F.);
#1195=ADVANCED_FACE('',(#1068,#1069),#1165,.F.);
#1196=ADVANCED_FACE('',(#1070,#1071),#1166,.F.);
#1197=ADVANCED_FACE('',(#1072,#1073),#1167,.F.);
#1198=ADVANCED_FACE('',(#1074),#1168,.F.);
#1199=ADVANCED_FACE('',(#1075),#12,.F.);
#1200=ADVANCED_FACE('',(#1076),#13,.T.);
#1201=ADVANCED_FACE('',(#1077,#1078,#1079,#1080,#1081,#1082,#1083),#14,
 .T.);
#1202=ADVANCED_FACE('',(#1084,#1085,#1086),#15,.T.);
#1203=ADVANCED_FACE('',(#1087),#1169,.F.);
#1204=ADVANCED_FACE('',(#1088),#16,.F.);
#1205=ADVANCED_FACE('',(#1089),#17,.T.);
#1206=ADVANCED_FACE('',(#1090),#18,.T.);
#1207=ADVANCED_FACE('',(#1091,#1092,#1093),#19,.T.);
#1208=ADVANCED_FACE('',(#1094),#20,.T.);
#1209=ADVANCED_FACE('',(#1095),#1170,.F.);
#1210=ADVANCED_FACE('',(#1096),#21,.F.);
#1211=ADVANCED_FACE('',(#1097),#1171,.F.);
#1212=ADVANCED_FACE('',(#1098),#22,.F.);
#1213=ADVANCED_FACE('',(#1099),#1172,.F.);
#1214=ADVANCED_FACE('',(#1100),#1173,.F.);
#1215=ADVANCED_FACE('',(#1101),#23,.F.);
#1216=ADVANCED_FACE('',(#1102),#1174,.F.);
#1217=ADVANCED_FACE('',(#1103),#24,.F.);
#1218=ADVANCED_FACE('',(#1104),#1175,.F.);
#1219=ADVANCED_FACE('',(#1105),#1176,.F.);
#1220=ADVANCED_FACE('',(#1106),#25,.F.);
#1221=ADVANCED_FACE('',(#1107),#1177,.F.);
#1222=ADVANCED_FACE('',(#1108),#26,.F.);
#1223=ADVANCED_FACE('',(#1109),#1178,.F.);
#1224=ADVANCED_FACE('',(#1110),#27,.T.);
#1225=ADVANCED_FACE('',(#1111),#1179,.F.);
#1226=ADVANCED_FACE('',(#1112),#28,.T.);
#1227=ADVANCED_FACE('',(#1113),#1180,.F.);
#1228=ADVANCED_FACE('',(#1114),#29,.T.);
#1229=ADVANCED_FACE('',(#1115),#30,.T.);
#1230=ADVANCED_FACE('',(#1116),#1181,.F.);
#1231=ADVANCED_FACE('',(#1117),#31,.T.);
#1232=ADVANCED_FACE('',(#1118),#32,.T.);
#1233=ADVANCED_FACE('',(#1119),#1182,.F.);
#1234=ADVANCED_FACE('',(#1120),#33,.T.);
#1235=ADVANCED_FACE('',(#1121),#1183,.T.);
#1236=ADVANCED_FACE('',(#1122),#34,.F.);
#1237=ADVANCED_FACE('',(#1123),#1184,.F.);
#1238=ADVANCED_FACE('',(#1124),#35,.F.);
#1239=ADVANCED_FACE('',(#1125),#1185,.F.);
#1240=ADVANCED_FACE('',(#1126),#36,.T.);
#1241=ADVANCED_FACE('',(#1127),#1186,.T.);
#1242=ADVANCED_FACE('',(#1128),#37,.F.);
#1243=ADVANCED_FACE('',(#1129),#38,.F.);
#1244=ADVANCED_FACE('',(#1130),#1187,.F.);
#1245=ADVANCED_FACE('',(#1131),#1188,.F.);
#1246=ADVANCED_FACE('',(#1132),#1189,.F.);
#1247=ADVANCED_FACE('',(#1133),#39,.F.);
#1248=ADVANCED_FACE('',(#1134),#40,.T.);
#1249=ADVANCED_FACE('',(#1135,#1136,#1137,#1138,#1139),#41,.F.);
#1250=ADVANCED_FACE('',(#1140),#42,.T.);
#1251=ADVANCED_FACE('',(#1141,#1142,#1143,#1144,#1145,#1146,#1147),#43,
 .F.);
#1252=ADVANCED_FACE('',(#1148,#1149),#1190,.F.);
#1253=ADVANCED_FACE('',(#1150,#1151),#44,.T.);
#1254=ADVANCED_FACE('',(#1152,#1153),#1191,.F.);
#1255=ADVANCED_FACE('',(#1154,#1155),#45,.T.);
#1256=ADVANCED_FACE('',(#1156,#1157),#1192,.F.);
#1257=ADVANCED_FACE('',(#1158,#1159),#46,.T.);
#1258=ADVANCED_FACE('',(#1160,#1161),#1193,.F.);
#1259=ADVANCED_FACE('',(#1162,#1163),#47,.T.);
#1260=CLOSED_SHELL('',(#1194,#1195,#1196,#1197,#1198,#1199,#1200,#1201,
#1202,#1203,#1204,#1205,#1206,#1207,#1208,#1209,#1210,#1211,#1212,#1213,
#1214,#1215,#1216,#1217,#1218,#1219,#1220,#1221,#1222,#1223,#1224,#1225,
#1226,#1227,#1228,#1229,#1230,#1231,#1232,#1233,#1234,#1235,#1236,#1237,
#1238,#1239,#1240,#1241,#1242,#1243,#1244,#1245,#1246,#1247,#1248,#1249,
#1250,#1251,#1252,#1253,#1254,#1255,#1256,#1257,#1258,#1259));
#1261=STYLED_ITEM('',(#1262),#1269);
#1262=PRESENTATION_STYLE_ASSIGNMENT((#1263));
#1263=SURFACE_STYLE_USAGE(.BOTH.,#1264);
#1264=SURFACE_SIDE_STYLE('',(#1265));
#1265=SURFACE_STYLE_FILL_AREA(#1266);
#1266=FILL_AREA_STYLE('',(#1267));
#1267=FILL_AREA_STYLE_COLOUR('',#1268);
#1268=COLOUR_RGB('',0.231372549019608,0.380392156862745,0.705882352941177);
#1269=MANIFOLD_SOLID_BREP('Camera_Chassis_Mount',#1260);
#1270=SHAPE_DEFINITION_REPRESENTATION(#2130,#1271);
#1271=SHAPE_REPRESENTATION('Camera_Chassis_Mount',(#1272),#2125);
#1272=AXIS2_PLACEMENT_3D('',#1765,#1399,#1400);
#1273=AXIS2_PLACEMENT_3D('',#1766,#1401,#1402);
#1274=AXIS2_PLACEMENT_3D('',#1767,#1403,#1404);
#1275=AXIS2_PLACEMENT_3D('',#1769,#1405,#1406);
#1276=AXIS2_PLACEMENT_3D('',#1771,#1407,#1408);
#1277=AXIS2_PLACEMENT_3D('',#1772,#1409,#1410);
#1278=AXIS2_PLACEMENT_3D('',#1774,#1411,#1412);
#1279=AXIS2_PLACEMENT_3D('',#1776,#1413,#1414);
#1280=AXIS2_PLACEMENT_3D('',#1777,#1415,#1416);
#1281=AXIS2_PLACEMENT_3D('',#1779,#1417,#1418);
#1282=AXIS2_PLACEMENT_3D('',#1781,#1419,#1420);
#1283=AXIS2_PLACEMENT_3D('',#1782,#1421,#1422);
#1284=AXIS2_PLACEMENT_3D('',#1784,#1423,#1424);
#1285=AXIS2_PLACEMENT_3D('',#1786,#1425,#1426);
#1286=AXIS2_PLACEMENT_3D('',#1787,#1427,#1428);
#1287=AXIS2_PLACEMENT_3D('',#1792,#1430,#1431);
#1288=AXIS2_PLACEMENT_3D('',#1795,#1433,#1434);
#1289=AXIS2_PLACEMENT_3D('',#1807,#1441,#1442);
#1290=AXIS2_PLACEMENT_3D('',#1819,#1449,#1450);
#1291=AXIS2_PLACEMENT_3D('',#1823,#1452,#1453);
#1292=AXIS2_PLACEMENT_3D('',#1827,#1455,#1456);
#1293=AXIS2_PLACEMENT_3D('',#1831,#1458,#1459);
#1294=AXIS2_PLACEMENT_3D('',#1835,#1461,#1462);
#1295=AXIS2_PLACEMENT_3D('',#1839,#1464,#1465);
#1296=AXIS2_PLACEMENT_3D('',#1843,#1467,#1468);
#1297=AXIS2_PLACEMENT_3D('',#1847,#1470,#1471);
#1298=AXIS2_PLACEMENT_3D('',#1848,#1472,#1473);
#1299=AXIS2_PLACEMENT_3D('',#1853,#1475,#1476);
#1300=AXIS2_PLACEMENT_3D('',#1857,#1478,#1479);
#1301=AXIS2_PLACEMENT_3D('',#1860,#1481,#1482);
#1302=AXIS2_PLACEMENT_3D('',#1865,#1484,#1485);
#1303=AXIS2_PLACEMENT_3D('',#1869,#1487,#1488);
#1304=AXIS2_PLACEMENT_3D('',#1872,#1490,#1491);
#1305=AXIS2_PLACEMENT_3D('',#1877,#1493,#1494);
#1306=AXIS2_PLACEMENT_3D('',#1881,#1496,#1497);
#1307=AXIS2_PLACEMENT_3D('',#1888,#1501,#1502);
#1308=AXIS2_PLACEMENT_3D('',#1892,#1504,#1505);
#1309=AXIS2_PLACEMENT_3D('',#1896,#1507,#1508);
#1310=AXIS2_PLACEMENT_3D('',#1900,#1510,#1511);
#1311=AXIS2_PLACEMENT_3D('',#1905,#1514,#1515);
#1312=AXIS2_PLACEMENT_3D('',#1906,#1516,#1517);
#1313=AXIS2_PLACEMENT_3D('',#1908,#1518,#1519);
#1314=AXIS2_PLACEMENT_3D('',#1911,#1521,#1522);
#1315=AXIS2_PLACEMENT_3D('',#1912,#1523,#1524);
#1316=AXIS2_PLACEMENT_3D('',#1916,#1526,#1527);
#1317=AXIS2_PLACEMENT_3D('',#1917,#1528,#1529);
#1318=AXIS2_PLACEMENT_3D('',#1927,#1535,#1536);
#1319=AXIS2_PLACEMENT_3D('',#1937,#1542,#1543);
#1320=AXIS2_PLACEMENT_3D('',#1939,#1545,#1546);
#1321=AXIS2_PLACEMENT_3D('',#1940,#1547,#1548);
#1322=AXIS2_PLACEMENT_3D('',#1942,#1549,#1550);
#1323=AXIS2_PLACEMENT_3D('',#1945,#1552,#1553);
#1324=AXIS2_PLACEMENT_3D('',#1947,#1555,#1556);
#1325=AXIS2_PLACEMENT_3D('',#1948,#1557,#1558);
#1326=AXIS2_PLACEMENT_3D('',#1953,#1561,#1562);
#1327=AXIS2_PLACEMENT_3D('',#1957,#1565,#1566);
#1328=AXIS2_PLACEMENT_3D('',#1958,#1567,#1568);
#1329=AXIS2_PLACEMENT_3D('',#1961,#1570,#1571);
#1330=AXIS2_PLACEMENT_3D('',#1965,#1574,#1575);
#1331=AXIS2_PLACEMENT_3D('',#1966,#1576,#1577);
#1332=AXIS2_PLACEMENT_3D('',#1969,#1579,#1580);
#1333=AXIS2_PLACEMENT_3D('',#1970,#1581,#1582);
#1334=AXIS2_PLACEMENT_3D('',#1975,#1585,#1586);
#1335=AXIS2_PLACEMENT_3D('',#1979,#1589,#1590);
#1336=AXIS2_PLACEMENT_3D('',#1980,#1591,#1592);
#1337=AXIS2_PLACEMENT_3D('',#1983,#1594,#1595);
#1338=AXIS2_PLACEMENT_3D('',#1987,#1598,#1599);
#1339=AXIS2_PLACEMENT_3D('',#1988,#1600,#1601);
#1340=AXIS2_PLACEMENT_3D('',#1991,#1603,#1604);
#1341=AXIS2_PLACEMENT_3D('',#1992,#1605,#1606);
#1342=AXIS2_PLACEMENT_3D('',#1997,#1609,#1610);
#1343=AXIS2_PLACEMENT_3D('',#2001,#1613,#1614);
#1344=AXIS2_PLACEMENT_3D('',#2002,#1615,#1616);
#1345=AXIS2_PLACEMENT_3D('',#2005,#1618,#1619);
#1346=AXIS2_PLACEMENT_3D('',#2009,#1622,#1623);
#1347=AXIS2_PLACEMENT_3D('',#2010,#1624,#1625);
#1348=AXIS2_PLACEMENT_3D('',#2013,#1627,#1628);
#1349=AXIS2_PLACEMENT_3D('',#2019,#1632,#1633);
#1350=AXIS2_PLACEMENT_3D('',#2020,#1634,#1635);
#1351=AXIS2_PLACEMENT_3D('',#2023,#1637,#1638);
#1352=AXIS2_PLACEMENT_3D('',#2027,#1641,#1642);
#1353=AXIS2_PLACEMENT_3D('',#2028,#1643,#1644);
#1354=AXIS2_PLACEMENT_3D('',#2031,#1646,#1647);
#1355=AXIS2_PLACEMENT_3D('',#2035,#1650,#1651);
#1356=AXIS2_PLACEMENT_3D('',#2041,#1655,#1656);
#1357=AXIS2_PLACEMENT_3D('',#2042,#1657,#1658);
#1358=AXIS2_PLACEMENT_3D('',#2045,#1660,#1661);
#1359=AXIS2_PLACEMENT_3D('',#2049,#1664,#1665);
#1360=AXIS2_PLACEMENT_3D('',#2055,#1669,#1670);
#1361=AXIS2_PLACEMENT_3D('',#2056,#1671,#1672);
#1362=AXIS2_PLACEMENT_3D('',#2059,#1674,#1675);
#1363=AXIS2_PLACEMENT_3D('',#2063,#1678,#1679);
#1364=AXIS2_PLACEMENT_3D('',#2064,#1680,#1681);
#1365=AXIS2_PLACEMENT_3D('',#2067,#1683,#1684);
#1366=AXIS2_PLACEMENT_3D('',#2071,#1687,#1688);
#1367=AXIS2_PLACEMENT_3D('',#2072,#1689,#1690);
#1368=AXIS2_PLACEMENT_3D('',#2075,#1692,#1693);
#1369=AXIS2_PLACEMENT_3D('',#2079,#1696,#1697);
#1370=AXIS2_PLACEMENT_3D('',#2080,#1698,#1699);
#1371=AXIS2_PLACEMENT_3D('',#2083,#1701,#1702);
#1372=AXIS2_PLACEMENT_3D('',#2087,#1705,#1706);
#1373=AXIS2_PLACEMENT_3D('',#2088,#1707,#1708);
#1374=AXIS2_PLACEMENT_3D('',#2089,#1709,#1710);
#1375=AXIS2_PLACEMENT_3D('',#2091,#1712,#1713);
#1376=AXIS2_PLACEMENT_3D('',#2093,#1715,#1716);
#1377=AXIS2_PLACEMENT_3D('',#2094,#1717,#1718);
#1378=AXIS2_PLACEMENT_3D('',#2095,#1719,#1720);
#1379=AXIS2_PLACEMENT_3D('',#2096,#1721,#1722);
#1380=AXIS2_PLACEMENT_3D('',#2097,#1723,#1724);
#1381=AXIS2_PLACEMENT_3D('',#2098,#1725,#1726);
#1382=AXIS2_PLACEMENT_3D('',#2099,#1727,#1728);
#1383=AXIS2_PLACEMENT_3D('',#2101,#1730,#1731);
#1384=AXIS2_PLACEMENT_3D('',#2103,#1733,#1734);
#1385=AXIS2_PLACEMENT_3D('',#2106,#1737,#1738);
#1386=AXIS2_PLACEMENT_3D('',#2107,#1739,#1740);
#1387=AXIS2_PLACEMENT_3D('',#2108,#1741,#1742);
#1388=AXIS2_PLACEMENT_3D('',#2109,#1743,#1744);
#1389=AXIS2_PLACEMENT_3D('',#2111,#1745,#1746);
#1390=AXIS2_PLACEMENT_3D('',#2112,#1747,#1748);
#1391=AXIS2_PLACEMENT_3D('',#2113,#1749,#1750);
#1392=AXIS2_PLACEMENT_3D('',#2115,#1751,#1752);
#1393=AXIS2_PLACEMENT_3D('',#2116,#1753,#1754);
#1394=AXIS2_PLACEMENT_3D('',#2117,#1755,#1756);
#1395=AXIS2_PLACEMENT_3D('',#2119,#1757,#1758);
#1396=AXIS2_PLACEMENT_3D('',#2120,#1759,#1760);
#1397=AXIS2_PLACEMENT_3D('',#2121,#1761,#1762);
#1398=AXIS2_PLACEMENT_3D('',#2123,#1763,#1764);
#1399=DIRECTION('',(0.,0.,1.));
#1400=DIRECTION('',(1.,0.,0.));
#1401=DIRECTION('',(0.,1.,0.));
#1402=DIRECTION('',(0.,0.,1.));
#1403=DIRECTION('',(0.,1.,0.));
#1404=DIRECTION('',(0.,0.,1.));
#1405=DIRECTION('',(0.,1.,0.));
#1406=DIRECTION('',(0.,0.,1.));
#1407=DIRECTION('',(0.,1.,0.));
#1408=DIRECTION('',(0.,0.,1.));
#1409=DIRECTION('',(0.,1.,0.));
#1410=DIRECTION('',(0.,0.,1.));
#1411=DIRECTION('',(0.,1.,0.));
#1412=DIRECTION('',(0.,0.,1.));
#1413=DIRECTION('',(0.,1.,0.));
#1414=DIRECTION('',(0.,0.,1.));
#1415=DIRECTION('',(0.,1.,0.));
#1416=DIRECTION('',(0.,0.,1.));
#1417=DIRECTION('',(0.,1.,0.));
#1418=DIRECTION('',(0.,0.,1.));
#1419=DIRECTION('',(0.,1.,0.));
#1420=DIRECTION('',(0.,0.,1.));
#1421=DIRECTION('',(0.,1.,0.));
#1422=DIRECTION('',(0.,0.,1.));
#1423=DIRECTION('',(0.,1.,0.));
#1424=DIRECTION('',(0.,0.,1.));
#1425=DIRECTION('',(1.,1.38777878078145E-15,0.));
#1426=DIRECTION('',(-1.38777878078145E-15,1.,0.));
#1427=DIRECTION('',(1.,1.38777878078145E-15,0.));
#1428=DIRECTION('',(-1.38777878078145E-15,1.,0.));
#1429=DIRECTION('',(1.,1.38777878078145E-15,0.));
#1430=DIRECTION('',(1.,1.38777878078145E-15,0.));
#1431=DIRECTION('',(-1.38777878078145E-15,1.,0.));
#1432=DIRECTION('',(1.,1.38777878078145E-15,0.));
#1433=DIRECTION('',(1.,1.38777878078145E-15,0.));
#1434=DIRECTION('',(-1.38777878078145E-15,1.,0.));
#1435=DIRECTION('',(0.,0.,-1.));
#1436=DIRECTION('',(1.38777878078144E-15,-1.,0.));
#1437=DIRECTION('',(0.,0.,-1.));
#1438=DIRECTION('',(1.38777878078144E-15,-1.,0.));
#1439=DIRECTION('',(0.,0.,-1.));
#1440=DIRECTION('',(1.38777878078145E-15,-1.,0.));
#1441=DIRECTION('',(1.,1.38777878078145E-15,0.));
#1442=DIRECTION('',(-1.38777878078145E-15,1.,0.));
#1443=DIRECTION('',(0.,0.,-1.));
#1444=DIRECTION('',(1.38777878078145E-15,-1.,0.));
#1445=DIRECTION('',(0.,0.,-1.));
#1446=DIRECTION('',(1.38777878078145E-15,-1.,0.));
#1447=DIRECTION('',(0.,0.,-1.));
#1448=DIRECTION('',(1.38777878078145E-15,-1.,0.));
#1449=DIRECTION('',(0.,0.,1.));
#1450=DIRECTION('',(1.,0.,0.));
#1451=DIRECTION('',(-3.46944695195361E-17,1.,0.));
#1452=DIRECTION('',(0.,0.,1.));
#1453=DIRECTION('',(1.,0.,0.));
#1454=DIRECTION('',(1.21430643318376E-16,-1.,0.));
#1455=DIRECTION('',(0.,0.,1.));
#1456=DIRECTION('',(1.,0.,0.));
#1457=DIRECTION('',(0.,1.,0.));
#1458=DIRECTION('',(0.,0.,1.));
#1459=DIRECTION('',(1.,0.,0.));
#1460=DIRECTION('',(0.,-1.,0.));
#1461=DIRECTION('',(0.,0.,1.));
#1462=DIRECTION('',(1.,0.,0.));
#1463=DIRECTION('',(1.,0.,0.));
#1464=DIRECTION('',(0.,0.,1.));
#1465=DIRECTION('',(1.,0.,0.));
#1466=DIRECTION('',(-0.844212619296481,-0.536008445288482,0.));
#1467=DIRECTION('',(0.,0.,1.));
#1468=DIRECTION('',(1.,0.,0.));
#1469=DIRECTION('',(-0.844212619296481,0.536008445288482,0.));
#1470=DIRECTION('',(0.,0.,1.));
#1471=DIRECTION('',(1.,0.,0.));
#1472=DIRECTION('',(0.,0.,1.));
#1473=DIRECTION('',(1.,0.,0.));
#1474=DIRECTION('',(0.844212619296481,0.536008445288482,0.));
#1475=DIRECTION('',(0.,0.,1.));
#1476=DIRECTION('',(1.,0.,0.));
#1477=DIRECTION('',(0.,-1.,0.));
#1478=DIRECTION('',(0.,0.,1.));
#1479=DIRECTION('',(1.,0.,0.));
#1480=DIRECTION('',(-0.844212619296481,0.536008445288481,0.));
#1481=DIRECTION('',(0.,0.,1.));
#1482=DIRECTION('',(1.,0.,0.));
#1483=DIRECTION('',(0.844212619296481,-0.536008445288482,0.));
#1484=DIRECTION('',(0.,0.,1.));
#1485=DIRECTION('',(1.,0.,0.));
#1486=DIRECTION('',(-0.844212619296481,-0.536008445288481,0.));
#1487=DIRECTION('',(0.,0.,1.));
#1488=DIRECTION('',(1.,0.,0.));
#1489=DIRECTION('',(-1.73594084873362E-16,1.,0.));
#1490=DIRECTION('',(0.,0.,1.));
#1491=DIRECTION('',(1.,0.,0.));
#1492=DIRECTION('',(1.,0.,0.));
#1493=DIRECTION('',(0.,0.,1.));
#1494=DIRECTION('',(1.,0.,0.));
#1495=DIRECTION('',(-0.844212619296481,-0.536008445288482,0.));
#1496=DIRECTION('',(0.,0.,1.));
#1497=DIRECTION('',(1.,0.,0.));
#1498=DIRECTION('',(-0.844212619296481,0.536008445288481,0.));
#1499=DIRECTION('',(4.33680868994202E-17,-1.,0.));
#1500=DIRECTION('',(1.,0.,0.));
#1501=DIRECTION('',(0.,0.,1.));
#1502=DIRECTION('',(1.,0.,0.));
#1503=DIRECTION('',(0.,-1.,0.));
#1504=DIRECTION('',(0.,0.,1.));
#1505=DIRECTION('',(1.,0.,0.));
#1506=DIRECTION('',(-1.,0.,0.));
#1507=DIRECTION('',(0.,0.,1.));
#1508=DIRECTION('',(1.,0.,0.));
#1509=DIRECTION('',(6.30808536718839E-17,-1.,0.));
#1510=DIRECTION('',(0.,0.,1.));
#1511=DIRECTION('',(1.,0.,0.));
#1512=DIRECTION('',(4.33680868994202E-17,-1.,0.));
#1513=DIRECTION('',(-1.,-4.33680868994202E-17,0.));
#1514=DIRECTION('',(0.,1.,0.));
#1515=DIRECTION('',(0.,0.,1.));
#1516=DIRECTION('',(0.,1.,0.));
#1517=DIRECTION('',(0.,0.,1.));
#1518=DIRECTION('',(0.,1.,0.));
#1519=DIRECTION('',(0.,0.,1.));
#1520=DIRECTION('',(1.,0.,0.));
#1521=DIRECTION('',(-1.,-4.33680868994202E-17,0.));
#1522=DIRECTION('',(4.33680868994202E-17,-1.,0.));
#1523=DIRECTION('',(-1.,-4.33680868994202E-17,0.));
#1524=DIRECTION('',(4.33680868994202E-17,-1.,0.));
#1525=DIRECTION('',(-1.,-4.33680868994202E-17,0.));
#1526=DIRECTION('',(-1.,-4.33680868994202E-17,0.));
#1527=DIRECTION('',(4.33680868994202E-17,-1.,0.));
#1528=DIRECTION('',(-1.,-4.33680868994202E-17,0.));
#1529=DIRECTION('',(4.33680868994202E-17,-1.,0.));
#1530=DIRECTION('',(0.,-1.,0.));
#1531=DIRECTION('',(0.,0.,-1.));
#1532=DIRECTION('',(0.,0.,-1.));
#1533=DIRECTION('',(0.,-1.,0.));
#1534=DIRECTION('',(0.,0.,-1.));
#1535=DIRECTION('',(-1.,-4.33680868994202E-17,0.));
#1536=DIRECTION('',(4.33680868994202E-17,-1.,0.));
#1537=DIRECTION('',(0.,0.,-1.));
#1538=DIRECTION('',(4.33680868994202E-17,-1.,0.));
#1539=DIRECTION('',(0.,0.,-1.));
#1540=DIRECTION('',(4.33680868994202E-17,-1.,0.));
#1541=DIRECTION('',(0.,0.,-1.));
#1542=DIRECTION('',(0.,0.,1.));
#1543=DIRECTION('',(1.,0.,0.));
#1544=DIRECTION('',(1.,0.,0.));
#1545=DIRECTION('',(0.,1.,0.));
#1546=DIRECTION('',(0.,0.,1.));
#1547=DIRECTION('',(0.,1.,0.));
#1548=DIRECTION('',(0.,0.,1.));
#1549=DIRECTION('',(0.,1.,0.));
#1550=DIRECTION('',(0.,0.,1.));
#1551=DIRECTION('',(1.,0.,0.));
#1552=DIRECTION('',(0.,0.,1.));
#1553=DIRECTION('',(1.,0.,0.));
#1554=DIRECTION('',(1.,0.,0.));
#1555=DIRECTION('',(0.,0.,-1.));
#1556=DIRECTION('',(-1.,0.,0.));
#1557=DIRECTION('',(0.,0.,1.));
#1558=DIRECTION('',(1.,0.,0.));
#1559=DIRECTION('',(0.,0.,-1.));
#1560=DIRECTION('',(0.,0.,-1.));
#1561=DIRECTION('',(0.,1.,0.));
#1562=DIRECTION('',(0.,0.,1.));
#1563=DIRECTION('',(1.,0.,0.));
#1564=DIRECTION('',(0.,0.,-1.));
#1565=DIRECTION('',(0.,0.,-1.));
#1566=DIRECTION('',(-1.,0.,0.));
#1567=DIRECTION('',(0.,0.,1.));
#1568=DIRECTION('',(1.,0.,0.));
#1569=DIRECTION('',(0.,0.,-1.));
#1570=DIRECTION('',(0.536008445288482,-0.844212619296481,0.));
#1571=DIRECTION('',(0.844212619296481,0.536008445288482,0.));
#1572=DIRECTION('',(-0.844212619296481,-0.536008445288482,0.));
#1573=DIRECTION('',(0.,0.,-1.));
#1574=DIRECTION('',(0.,0.,-1.));
#1575=DIRECTION('',(-1.,0.,0.));
#1576=DIRECTION('',(0.,0.,1.));
#1577=DIRECTION('',(1.,0.,0.));
#1578=DIRECTION('',(0.,0.,-1.));
#1579=DIRECTION('',(0.,0.,-1.));
#1580=DIRECTION('',(-1.,0.,0.));
#1581=DIRECTION('',(0.,0.,1.));
#1582=DIRECTION('',(1.,0.,0.));
#1583=DIRECTION('',(0.,0.,-1.));
#1584=DIRECTION('',(0.,0.,-1.));
#1585=DIRECTION('',(0.536008445288482,0.844212619296481,0.));
#1586=DIRECTION('',(-0.844212619296481,0.536008445288482,0.));
#1587=DIRECTION('',(0.844212619296481,-0.536008445288482,0.));
#1588=DIRECTION('',(0.,0.,-1.));
#1589=DIRECTION('',(0.,0.,-1.));
#1590=DIRECTION('',(-1.,0.,0.));
#1591=DIRECTION('',(0.,0.,1.));
#1592=DIRECTION('',(1.,0.,0.));
#1593=DIRECTION('',(0.,0.,-1.));
#1594=DIRECTION('',(0.536008445288481,-0.844212619296481,0.));
#1595=DIRECTION('',(0.844212619296481,0.536008445288481,0.));
#1596=DIRECTION('',(-0.844212619296481,-0.536008445288481,0.));
#1597=DIRECTION('',(0.,0.,-1.));
#1598=DIRECTION('',(0.,0.,-1.));
#1599=DIRECTION('',(-1.,0.,0.));
#1600=DIRECTION('',(0.,0.,1.));
#1601=DIRECTION('',(1.,0.,0.));
#1602=DIRECTION('',(0.,0.,-1.));
#1603=DIRECTION('',(0.,0.,-1.));
#1604=DIRECTION('',(-1.,0.,0.));
#1605=DIRECTION('',(0.,0.,1.));
#1606=DIRECTION('',(1.,0.,0.));
#1607=DIRECTION('',(0.,0.,-1.));
#1608=DIRECTION('',(0.,0.,-1.));
#1609=DIRECTION('',(-0.536008445288482,0.844212619296481,0.));
#1610=DIRECTION('',(-0.844212619296481,-0.536008445288482,0.));
#1611=DIRECTION('',(0.844212619296481,0.536008445288482,0.));
#1612=DIRECTION('',(0.,0.,-1.));
#1613=DIRECTION('',(0.,0.,-1.));
#1614=DIRECTION('',(-1.,0.,0.));
#1615=DIRECTION('',(0.,0.,1.));
#1616=DIRECTION('',(1.,0.,0.));
#1617=DIRECTION('',(0.,0.,-1.));
#1618=DIRECTION('',(1.,0.,0.));
#1619=DIRECTION('',(0.,0.,-1.));
#1620=DIRECTION('',(0.,-1.,0.));
#1621=DIRECTION('',(0.,0.,-1.));
#1622=DIRECTION('',(0.,0.,-1.));
#1623=DIRECTION('',(-1.,0.,0.));
#1624=DIRECTION('',(0.,0.,1.));
#1625=DIRECTION('',(1.,0.,0.));
#1626=DIRECTION('',(0.,0.,-1.));
#1627=DIRECTION('',(0.,1.,0.));
#1628=DIRECTION('',(0.,0.,1.));
#1629=DIRECTION('',(1.,0.,0.));
#1630=DIRECTION('',(0.,0.,-1.));
#1631=DIRECTION('',(0.,0.,-1.));
#1632=DIRECTION('',(0.,0.,-1.));
#1633=DIRECTION('',(-1.,0.,0.));
#1634=DIRECTION('',(0.,0.,1.));
#1635=DIRECTION('',(1.,0.,0.));
#1636=DIRECTION('',(0.,0.,-1.));
#1637=DIRECTION('',(0.536008445288482,-0.844212619296481,0.));
#1638=DIRECTION('',(0.844212619296481,0.536008445288482,0.));
#1639=DIRECTION('',(-0.844212619296481,-0.536008445288482,0.));
#1640=DIRECTION('',(0.,0.,-1.));
#1641=DIRECTION('',(0.,0.,-1.));
#1642=DIRECTION('',(-1.,0.,0.));
#1643=DIRECTION('',(0.,0.,1.));
#1644=DIRECTION('',(1.,0.,0.));
#1645=DIRECTION('',(0.,0.,-1.));
#1646=DIRECTION('',(-0.536008445288482,-0.844212619296481,0.));
#1647=DIRECTION('',(0.844212619296481,-0.536008445288482,0.));
#1648=DIRECTION('',(-0.844212619296481,0.536008445288482,0.));
#1649=DIRECTION('',(0.,0.,-1.));
#1650=DIRECTION('',(-1.,0.,0.));
#1651=DIRECTION('',(0.,0.,1.));
#1652=DIRECTION('',(0.,1.,0.));
#1653=DIRECTION('',(0.,0.,-1.));
#1654=DIRECTION('',(0.,0.,-1.));
#1655=DIRECTION('',(0.,0.,-1.));
#1656=DIRECTION('',(-1.,0.,0.));
#1657=DIRECTION('',(0.,0.,1.));
#1658=DIRECTION('',(1.,0.,0.));
#1659=DIRECTION('',(0.,0.,-1.));
#1660=DIRECTION('',(1.,0.,0.));
#1661=DIRECTION('',(0.,0.,-1.));
#1662=DIRECTION('',(0.,-1.,0.));
#1663=DIRECTION('',(0.,0.,-1.));
#1664=DIRECTION('',(-1.,-3.46944695195361E-17,0.));
#1665=DIRECTION('',(3.46944695195361E-17,-1.,0.));
#1666=DIRECTION('',(-3.46944695195361E-17,1.,0.));
#1667=DIRECTION('',(0.,0.,-1.));
#1668=DIRECTION('',(0.,0.,-1.));
#1669=DIRECTION('',(0.,0.,-1.));
#1670=DIRECTION('',(-1.,0.,0.));
#1671=DIRECTION('',(0.,0.,1.));
#1672=DIRECTION('',(1.,0.,0.));
#1673=DIRECTION('',(0.,0.,-1.));
#1674=DIRECTION('',(1.,1.21430643318376E-16,0.));
#1675=DIRECTION('',(-1.21430643318376E-16,1.,0.));
#1676=DIRECTION('',(1.21430643318376E-16,-1.,0.));
#1677=DIRECTION('',(0.,0.,-1.));
#1678=DIRECTION('',(0.,0.,-1.));
#1679=DIRECTION('',(-1.,0.,0.));
#1680=DIRECTION('',(0.,0.,1.));
#1681=DIRECTION('',(1.,0.,0.));
#1682=DIRECTION('',(0.,0.,-1.));
#1683=DIRECTION('',(1.,0.,0.));
#1684=DIRECTION('',(0.,0.,-1.));
#1685=DIRECTION('',(0.,-1.,0.));
#1686=DIRECTION('',(0.,0.,-1.));
#1687=DIRECTION('',(0.,0.,-1.));
#1688=DIRECTION('',(-1.,0.,0.));
#1689=DIRECTION('',(0.,0.,1.));
#1690=DIRECTION('',(1.,0.,0.));
#1691=DIRECTION('',(0.,0.,-1.));
#1692=DIRECTION('',(0.,-1.,0.));
#1693=DIRECTION('',(0.,0.,-1.));
#1694=DIRECTION('',(-1.,0.,0.));
#1695=DIRECTION('',(0.,0.,-1.));
#1696=DIRECTION('',(0.,0.,-1.));
#1697=DIRECTION('',(-1.,0.,0.));
#1698=DIRECTION('',(0.,0.,1.));
#1699=DIRECTION('',(1.,0.,0.));
#1700=DIRECTION('',(0.,0.,-1.));
#1701=DIRECTION('',(1.,6.30808536718839E-17,0.));
#1702=DIRECTION('',(-6.30808536718839E-17,1.,0.));
#1703=DIRECTION('',(6.30808536718839E-17,-1.,0.));
#1704=DIRECTION('',(0.,0.,-1.));
#1705=DIRECTION('',(0.,0.,-1.));
#1706=DIRECTION('',(-1.,0.,0.));
#1707=DIRECTION('',(0.,0.,1.));
#1708=DIRECTION('',(1.,0.,0.));
#1709=DIRECTION('',(-1.,-1.73594084873362E-16,0.));
#1710=DIRECTION('',(1.73594084873362E-16,-1.,0.));
#1711=DIRECTION('',(-1.73594084873362E-16,1.,0.));
#1712=DIRECTION('',(-0.536008445288481,-0.844212619296481,0.));
#1713=DIRECTION('',(0.844212619296481,-0.536008445288481,0.));
#1714=DIRECTION('',(-0.844212619296481,0.536008445288481,0.));
#1715=DIRECTION('',(0.,0.,-1.));
#1716=DIRECTION('',(-1.,0.,0.));
#1717=DIRECTION('',(0.,0.,1.));
#1718=DIRECTION('',(1.,0.,0.));
#1719=DIRECTION('',(0.,0.,-1.));
#1720=DIRECTION('',(-1.,0.,0.));
#1721=DIRECTION('',(0.,0.,1.));
#1722=DIRECTION('',(1.,0.,0.));
#1723=DIRECTION('',(0.,0.,-1.));
#1724=DIRECTION('',(-1.,0.,0.));
#1725=DIRECTION('',(0.,0.,1.));
#1726=DIRECTION('',(1.,0.,0.));
#1727=DIRECTION('',(-0.536008445288481,-0.844212619296481,0.));
#1728=DIRECTION('',(0.844212619296481,-0.536008445288481,0.));
#1729=DIRECTION('',(-0.844212619296481,0.536008445288481,0.));
#1730=DIRECTION('',(0.,1.,0.));
#1731=DIRECTION('',(0.,0.,1.));
#1732=DIRECTION('',(1.,0.,0.));
#1733=DIRECTION('',(0.,1.,0.));
#1734=DIRECTION('',(0.,0.,1.));
#1735=DIRECTION('',(1.,0.,0.));
#1736=DIRECTION('',(1.,0.,0.));
#1737=DIRECTION('',(0.,0.,1.));
#1738=DIRECTION('',(1.,0.,0.));
#1739=DIRECTION('',(0.,0.,1.));
#1740=DIRECTION('',(1.,0.,0.));
#1741=DIRECTION('',(0.,1.,0.));
#1742=DIRECTION('',(0.,0.,1.));
#1743=DIRECTION('',(0.,1.,0.));
#1744=DIRECTION('',(0.,0.,1.));
#1745=DIRECTION('',(0.,1.,0.));
#1746=DIRECTION('',(-1.,0.,0.));
#1747=DIRECTION('',(0.,1.,0.));
#1748=DIRECTION('',(0.,0.,1.));
#1749=DIRECTION('',(0.,1.,0.));
#1750=DIRECTION('',(0.,0.,1.));
#1751=DIRECTION('',(0.,1.,0.));
#1752=DIRECTION('',(-1.,0.,0.));
#1753=DIRECTION('',(0.,1.,0.));
#1754=DIRECTION('',(0.,0.,1.));
#1755=DIRECTION('',(0.,1.,0.));
#1756=DIRECTION('',(0.,0.,1.));
#1757=DIRECTION('',(0.,1.,0.));
#1758=DIRECTION('',(-1.,0.,0.));
#1759=DIRECTION('',(0.,1.,0.));
#1760=DIRECTION('',(0.,0.,1.));
#1761=DIRECTION('',(0.,1.,0.));
#1762=DIRECTION('',(0.,0.,1.));
#1763=DIRECTION('',(0.,1.,0.));
#1764=DIRECTION('',(-1.,0.,0.));
#1765=CARTESIAN_POINT('',(0.,0.,0.));
#1766=CARTESIAN_POINT('',(0.078499949102826,-0.139408033896478,0.08));
#1767=CARTESIAN_POINT('',(0.078499949102826,-0.124408033896478,0.08));
#1768=CARTESIAN_POINT('',(0.078499949102826,-0.124408033896478,0.08165));
#1769=CARTESIAN_POINT('',(0.078499949102826,-0.118408033896478,0.08));
#1770=CARTESIAN_POINT('',(0.078499949102826,-0.118408033896478,0.08165));
#1771=CARTESIAN_POINT('',(0.0035,-0.139408033896478,0.04));
#1772=CARTESIAN_POINT('',(0.0035,-0.124408033896478,0.04));
#1773=CARTESIAN_POINT('',(0.0035,-0.124408033896478,0.04165));
#1774=CARTESIAN_POINT('',(0.0035,-0.118408033896478,0.04));
#1775=CARTESIAN_POINT('',(0.0035,-0.118408033896478,0.04165));
#1776=CARTESIAN_POINT('',(0.0035,-0.139408033896478,0.08));
#1777=CARTESIAN_POINT('',(0.0035,-0.124408033896478,0.08));
#1778=CARTESIAN_POINT('',(0.0035,-0.124408033896478,0.08165));
#1779=CARTESIAN_POINT('',(0.0035,-0.118408033896478,0.08));
#1780=CARTESIAN_POINT('',(0.0035,-0.118408033896478,0.08165));
#1781=CARTESIAN_POINT('',(0.078499949102826,-0.139408033896478,0.04));
#1782=CARTESIAN_POINT('',(0.078499949102826,-0.124408033896478,0.04));
#1783=CARTESIAN_POINT('',(0.078499949102826,-0.124408033896478,0.04165));
#1784=CARTESIAN_POINT('',(0.078499949102826,-0.118408033896478,0.04));
#1785=CARTESIAN_POINT('',(0.078499949102826,-0.118408033896478,0.04165));
#1786=CARTESIAN_POINT('',(0.072499949102826,-0.0894080338964781,0.035));
#1787=CARTESIAN_POINT('',(0.084499949102826,-0.0894080338964781,0.035));
#1788=CARTESIAN_POINT('',(0.084499949102826,-0.114408033896478,0.035));
#1789=CARTESIAN_POINT('',(0.084499949102826,-0.0894080338964781,0.01));
#1790=CARTESIAN_POINT('',(0.072499949102826,-0.0894080338964781,0.01));
#1791=CARTESIAN_POINT('',(0.072499949102826,-0.0894080338964781,0.01));
#1792=CARTESIAN_POINT('',(0.072499949102826,-0.0894080338964781,0.035));
#1793=CARTESIAN_POINT('',(0.072499949102826,-0.114408033896478,0.035));
#1794=CARTESIAN_POINT('',(0.072499949102826,-0.114408033896478,0.035));
#1795=CARTESIAN_POINT('',(0.0724999491028259,-0.0494080338964781,0.045));
#1796=CARTESIAN_POINT('',(0.072499949102826,-0.114408033896478,0.025));
#1797=CARTESIAN_POINT('',(0.072499949102826,-0.114408033896478,0.025));
#1798=CARTESIAN_POINT('',(0.072499949102826,-0.114408033896478,0.01));
#1799=CARTESIAN_POINT('',(0.072499949102826,-0.119408033896478,0.025));
#1800=CARTESIAN_POINT('',(0.072499949102826,-0.124408033896478,0.025));
#1801=CARTESIAN_POINT('',(0.072499949102826,-0.124408033896478,0.09));
#1802=CARTESIAN_POINT('',(0.072499949102826,-0.124408033896478,0.09));
#1803=CARTESIAN_POINT('',(0.072499949102826,-0.119408033896478,0.09));
#1804=CARTESIAN_POINT('',(0.072499949102826,-0.114408033896478,0.09));
#1805=CARTESIAN_POINT('',(0.072499949102826,-0.114408033896478,0.09));
#1806=CARTESIAN_POINT('',(0.072499949102826,-0.119408033896478,0.01));
#1807=CARTESIAN_POINT('',(0.0844999491028259,-0.0494080338964781,0.045));
#1808=CARTESIAN_POINT('',(0.084499949102826,-0.114408033896478,0.09));
#1809=CARTESIAN_POINT('',(0.084499949102826,-0.114408033896478,0.09));
#1810=CARTESIAN_POINT('',(0.084499949102826,-0.119408033896478,0.09));
#1811=CARTESIAN_POINT('',(0.084499949102826,-0.124408033896478,0.09));
#1812=CARTESIAN_POINT('',(0.084499949102826,-0.124408033896478,0.09));
#1813=CARTESIAN_POINT('',(0.084499949102826,-0.124408033896478,0.));
#1814=CARTESIAN_POINT('',(0.084499949102826,-0.119408033896478,0.));
#1815=CARTESIAN_POINT('',(0.084499949102826,0.0255919661035219,0.));
#1816=CARTESIAN_POINT('',(0.084499949102826,0.0255919661035219,0.01));
#1817=CARTESIAN_POINT('',(0.084499949102826,0.0255919661035219,0.01));
#1818=CARTESIAN_POINT('',(0.084499949102826,-0.119408033896478,0.01));
#1819=CARTESIAN_POINT('',(0.040999974551413,-0.0464080338964781,0.01));
#1820=CARTESIAN_POINT('',(0.0055,-0.0244080338964781,0.01));
#1821=CARTESIAN_POINT('',(0.0055,-0.0744080338964781,0.01));
#1822=CARTESIAN_POINT('',(0.0055,0.0255919661035219,0.01));
#1823=CARTESIAN_POINT('',(0.0035,-0.0744080338964781,0.01));
#1824=CARTESIAN_POINT('',(0.0015,-0.0744080338964781,0.01));
#1825=CARTESIAN_POINT('',(0.0015,-0.0244080338964781,0.01));
#1826=CARTESIAN_POINT('',(0.0015,0.0255919661035219,0.01));
#1827=CARTESIAN_POINT('',(0.0035,0.0255919661035219,0.01));
#1828=CARTESIAN_POINT('',(0.080499949102826,-0.0244080338964781,0.01));
#1829=CARTESIAN_POINT('',(0.080499949102826,-0.0744080338964781,0.01));
#1830=CARTESIAN_POINT('',(0.080499949102826,0.0255919661035219,0.01));
#1831=CARTESIAN_POINT('',(0.078499949102826,-0.0744080338964781,0.01));
#1832=CARTESIAN_POINT('',(0.076499949102826,-0.0744080338964781,0.01));
#1833=CARTESIAN_POINT('',(0.076499949102826,-0.0244080338964781,0.01));
#1834=CARTESIAN_POINT('',(0.076499949102826,0.0255919661035219,0.01));
#1835=CARTESIAN_POINT('',(0.078499949102826,0.0255919661035219,0.01));
#1836=CARTESIAN_POINT('',(0.040999974551413,-0.110408033896478,0.01));
#1837=CARTESIAN_POINT('',(0.0284235253572759,-0.110408033896478,0.01));
#1838=CARTESIAN_POINT('',(0.05357642374555,-0.110408033896478,0.01));
#1839=CARTESIAN_POINT('',(0.028423525357276,-0.108908033896478,0.01));
#1840=CARTESIAN_POINT('',(0.0276195126893433,-0.107641714967533,0.01));
#1841=CARTESIAN_POINT('',(0.0339077372864118,-0.10364918818831,0.01));
#1842=CARTESIAN_POINT('',(0.0401959618834803,-0.0996566614090867,0.01));
#1843=CARTESIAN_POINT('',(0.040999974551413,-0.100922980338031,0.01));
#1844=CARTESIAN_POINT('',(0.0418039872193458,-0.0996566614090867,0.01));
#1845=CARTESIAN_POINT('',(0.0480922118164142,-0.10364918818831,0.01));
#1846=CARTESIAN_POINT('',(0.0543804364134828,-0.107641714967533,0.01));
#1847=CARTESIAN_POINT('',(0.05357642374555,-0.108908033896478,0.01));
#1848=CARTESIAN_POINT('',(0.0512610069070504,-0.0944080338964781,0.01));
#1849=CARTESIAN_POINT('',(0.0504569942391176,-0.0931417149675334,0.01));
#1850=CARTESIAN_POINT('',(0.0504569942391176,-0.0956743528254228,0.01));
#1851=CARTESIAN_POINT('',(0.0583264653370055,-0.0881452213449474,0.01));
#1852=CARTESIAN_POINT('',(0.0661959364348933,-0.0831487277223614,0.01));
#1853=CARTESIAN_POINT('',(0.066999949102826,-0.0844150466513061,0.01));
#1854=CARTESIAN_POINT('',(0.068499949102826,-0.0844150466513061,0.01));
#1855=CARTESIAN_POINT('',(0.068499949102826,-0.0944080338964781,0.01));
#1856=CARTESIAN_POINT('',(0.068499949102826,-0.10440102114165,0.01));
#1857=CARTESIAN_POINT('',(0.066999949102826,-0.10440102114165,0.01));
#1858=CARTESIAN_POINT('',(0.0661959364348933,-0.105667340070595,0.01));
#1859=CARTESIAN_POINT('',(0.0583264653370055,-0.100670846448009,0.01));
#1860=CARTESIAN_POINT('',(0.015,-0.0844150466513061,0.01));
#1861=CARTESIAN_POINT('',(0.0158040126679328,-0.0831487277223614,0.01));
#1862=CARTESIAN_POINT('',(0.0135,-0.0844150466513061,0.01));
#1863=CARTESIAN_POINT('',(0.0236734837658206,-0.0881452213449474,0.01));
#1864=CARTESIAN_POINT('',(0.0315429548637084,-0.0931417149675334,0.01));
#1865=CARTESIAN_POINT('',(0.0307389421957756,-0.0944080338964781,0.01));
#1866=CARTESIAN_POINT('',(0.0315429548637084,-0.0956743528254228,0.01));
#1867=CARTESIAN_POINT('',(0.0236734837658206,-0.100670846448009,0.01));
#1868=CARTESIAN_POINT('',(0.0158040126679328,-0.105667340070595,0.01));
#1869=CARTESIAN_POINT('',(0.015,-0.10440102114165,0.01));
#1870=CARTESIAN_POINT('',(0.0135,-0.10440102114165,0.01));
#1871=CARTESIAN_POINT('',(0.0135,-0.0944080338964781,0.01));
#1872=CARTESIAN_POINT('',(0.0284235253572759,-0.0799080338964781,0.01));
#1873=CARTESIAN_POINT('',(0.0284235253572759,-0.0784080338964781,0.01));
#1874=CARTESIAN_POINT('',(0.0276195126893433,-0.0811743528254228,0.01));
#1875=CARTESIAN_POINT('',(0.040999974551413,-0.0784080338964781,0.01));
#1876=CARTESIAN_POINT('',(0.0535764237455501,-0.0784080338964781,0.01));
#1877=CARTESIAN_POINT('',(0.0535764237455501,-0.0799080338964781,0.01));
#1878=CARTESIAN_POINT('',(0.0543804364134828,-0.0811743528254228,0.01));
#1879=CARTESIAN_POINT('',(0.0480922118164143,-0.0851668796046462,0.01));
#1880=CARTESIAN_POINT('',(0.0418039872193458,-0.0891594063838695,0.01));
#1881=CARTESIAN_POINT('',(0.040999974551413,-0.0878930874549247,0.01));
#1882=CARTESIAN_POINT('',(0.0401959618834803,-0.0891594063838695,0.01));
#1883=CARTESIAN_POINT('',(0.0339077372864118,-0.0851668796046462,0.01));
#1884=CARTESIAN_POINT('',(0.0095,-0.119408033896478,0.01));
#1885=CARTESIAN_POINT('',(0.0095,-0.0894080338964781,0.01));
#1886=CARTESIAN_POINT('',(0.0095,-0.114408033896478,0.01));
#1887=CARTESIAN_POINT('',(0.040999974551413,-0.114408033896478,0.01));
#1888=CARTESIAN_POINT('',(0.078499949102826,0.0255919661035219,0.01));
#1889=CARTESIAN_POINT('',(0.072499949102826,0.0255919661035219,0.01));
#1890=CARTESIAN_POINT('',(0.072499949102826,-0.0156580338964781,0.01));
#1891=CARTESIAN_POINT('',(0.072499949102826,-0.0569080338964781,0.01));
#1892=CARTESIAN_POINT('',(0.054999949102826,-0.0569080338964781,0.01));
#1893=CARTESIAN_POINT('',(0.054999949102826,-0.0744080338964781,0.01));
#1894=CARTESIAN_POINT('',(0.040999974551413,-0.0744080338964781,0.01));
#1895=CARTESIAN_POINT('',(0.027,-0.0744080338964781,0.01));
#1896=CARTESIAN_POINT('',(0.027,-0.0569080338964781,0.01));
#1897=CARTESIAN_POINT('',(0.0095,-0.0569080338964781,0.01));
#1898=CARTESIAN_POINT('',(0.0095,-0.0156580338964781,0.01));
#1899=CARTESIAN_POINT('',(0.0095,0.0255919661035219,0.01));
#1900=CARTESIAN_POINT('',(0.0035,0.0255919661035219,0.01));
#1901=CARTESIAN_POINT('',(-0.0025,0.0255919661035219,0.01));
#1902=CARTESIAN_POINT('',(-0.0025,-0.119408033896478,0.01));
#1903=CARTESIAN_POINT('',(-0.0025,-0.0894080338964781,0.01));
#1904=CARTESIAN_POINT('',(0.0095,-0.0894080338964781,0.01));
#1905=CARTESIAN_POINT('',(0.078499949102826,-0.114408033896478,0.09));
#1906=CARTESIAN_POINT('',(0.078499949102826,-0.114408033896478,0.04));
#1907=CARTESIAN_POINT('',(0.078499949102826,-0.114408033896478,0.042));
#1908=CARTESIAN_POINT('',(0.078499949102826,-0.114408033896478,0.08));
#1909=CARTESIAN_POINT('',(0.078499949102826,-0.114408033896478,0.082));
#1910=CARTESIAN_POINT('',(0.078499949102826,-0.114408033896478,0.09));
#1911=CARTESIAN_POINT('',(0.0095,-0.0894080338964781,0.035));
#1912=CARTESIAN_POINT('',(-0.0025,-0.0894080338964781,0.035));
#1913=CARTESIAN_POINT('',(-0.0025,-0.114408033896478,0.035));
#1914=CARTESIAN_POINT('',(0.0095,-0.114408033896478,0.035));
#1915=CARTESIAN_POINT('',(0.0095,-0.114408033896478,0.035));
#1916=CARTESIAN_POINT('',(0.0095,-0.0894080338964781,0.035));
#1917=CARTESIAN_POINT('',(0.0095,-0.0494080338964781,0.045));
#1918=CARTESIAN_POINT('',(0.0095,-0.119408033896478,0.025));
#1919=CARTESIAN_POINT('',(0.0095,-0.114408033896478,0.025));
#1920=CARTESIAN_POINT('',(0.0095,-0.124408033896478,0.025));
#1921=CARTESIAN_POINT('',(0.0095,-0.114408033896478,0.025));
#1922=CARTESIAN_POINT('',(0.0095,-0.114408033896478,0.09));
#1923=CARTESIAN_POINT('',(0.0095,-0.114408033896478,0.09));
#1924=CARTESIAN_POINT('',(0.0095,-0.119408033896478,0.09));
#1925=CARTESIAN_POINT('',(0.0095,-0.124408033896478,0.09));
#1926=CARTESIAN_POINT('',(0.0095,-0.124408033896478,0.09));
#1927=CARTESIAN_POINT('',(-0.0025,-0.0494080338964781,0.045));
#1928=CARTESIAN_POINT('',(-0.0025,0.0255919661035219,0.01));
#1929=CARTESIAN_POINT('',(-0.0025,0.0255919661035219,0.));
#1930=CARTESIAN_POINT('',(-0.0025,-0.119408033896478,0.));
#1931=CARTESIAN_POINT('',(-0.0025,-0.124408033896478,0.));
#1932=CARTESIAN_POINT('',(-0.0025,-0.124408033896478,0.09));
#1933=CARTESIAN_POINT('',(-0.0025,-0.124408033896478,0.09));
#1934=CARTESIAN_POINT('',(-0.0025,-0.119408033896478,0.09));
#1935=CARTESIAN_POINT('',(-0.0025,-0.114408033896478,0.09));
#1936=CARTESIAN_POINT('',(-0.0025,-0.114408033896478,0.09));
#1937=CARTESIAN_POINT('',(0.040999974551413,-0.0464080338964781,0.09));
#1938=CARTESIAN_POINT('',(0.078499949102826,-0.124408033896478,0.09));
#1939=CARTESIAN_POINT('',(0.0035,-0.114408033896478,0.09));
#1940=CARTESIAN_POINT('',(0.0035,-0.114408033896478,0.08));
#1941=CARTESIAN_POINT('',(0.0035,-0.114408033896478,0.082));
#1942=CARTESIAN_POINT('',(0.0035,-0.114408033896478,0.04));
#1943=CARTESIAN_POINT('',(0.0035,-0.114408033896478,0.042));
#1944=CARTESIAN_POINT('',(0.0035,-0.114408033896478,0.09));
#1945=CARTESIAN_POINT('',(0.040999974551413,-0.0464080338964781,0.09));
#1946=CARTESIAN_POINT('',(0.0035,-0.124408033896478,0.09));
#1947=CARTESIAN_POINT('',(0.0284235253572759,-0.0799080338964781,0.01));
#1948=CARTESIAN_POINT('',(0.0284235253572759,-0.0799080338964781,0.));
#1949=CARTESIAN_POINT('',(0.0284235253572759,-0.0784080338964781,0.));
#1950=CARTESIAN_POINT('',(0.0276195126893433,-0.0811743528254228,0.));
#1951=CARTESIAN_POINT('',(0.0284235253572759,-0.0784080338964781,0.01));
#1952=CARTESIAN_POINT('',(0.0276195126893433,-0.0811743528254228,0.01));
#1953=CARTESIAN_POINT('',(0.040999974551413,-0.0784080338964781,0.01));
#1954=CARTESIAN_POINT('',(0.040999974551413,-0.0784080338964781,0.));
#1955=CARTESIAN_POINT('',(0.0535764237455501,-0.0784080338964781,0.));
#1956=CARTESIAN_POINT('',(0.0535764237455501,-0.0784080338964781,0.01));
#1957=CARTESIAN_POINT('',(0.0535764237455501,-0.0799080338964781,0.01));
#1958=CARTESIAN_POINT('',(0.0535764237455501,-0.0799080338964781,0.));
#1959=CARTESIAN_POINT('',(0.0543804364134828,-0.0811743528254228,0.));
#1960=CARTESIAN_POINT('',(0.0543804364134828,-0.0811743528254228,0.01));
#1961=CARTESIAN_POINT('',(0.0480922118164143,-0.0851668796046462,0.01));
#1962=CARTESIAN_POINT('',(0.0480922118164143,-0.0851668796046462,0.));
#1963=CARTESIAN_POINT('',(0.0418039872193458,-0.0891594063838695,0.));
#1964=CARTESIAN_POINT('',(0.0418039872193458,-0.0891594063838695,0.01));
#1965=CARTESIAN_POINT('',(0.040999974551413,-0.0878930874549247,0.01));
#1966=CARTESIAN_POINT('',(0.040999974551413,-0.0878930874549247,0.));
#1967=CARTESIAN_POINT('',(0.0401959618834803,-0.0891594063838695,0.));
#1968=CARTESIAN_POINT('',(0.0401959618834803,-0.0891594063838695,0.01));
#1969=CARTESIAN_POINT('',(0.015,-0.0844150466513061,0.01));
#1970=CARTESIAN_POINT('',(0.015,-0.0844150466513061,0.));
#1971=CARTESIAN_POINT('',(0.0158040126679328,-0.0831487277223614,0.));
#1972=CARTESIAN_POINT('',(0.0135,-0.0844150466513061,0.));
#1973=CARTESIAN_POINT('',(0.0158040126679328,-0.0831487277223614,0.01));
#1974=CARTESIAN_POINT('',(0.0135,-0.0844150466513061,0.01));
#1975=CARTESIAN_POINT('',(0.0236734837658206,-0.0881452213449474,0.01));
#1976=CARTESIAN_POINT('',(0.0236734837658206,-0.0881452213449474,0.));
#1977=CARTESIAN_POINT('',(0.0315429548637084,-0.0931417149675334,0.));
#1978=CARTESIAN_POINT('',(0.0315429548637084,-0.0931417149675334,0.01));
#1979=CARTESIAN_POINT('',(0.0307389421957756,-0.0944080338964781,0.01));
#1980=CARTESIAN_POINT('',(0.0307389421957756,-0.0944080338964781,0.));
#1981=CARTESIAN_POINT('',(0.0315429548637084,-0.0956743528254228,0.));
#1982=CARTESIAN_POINT('',(0.0315429548637084,-0.0956743528254228,0.01));
#1983=CARTESIAN_POINT('',(0.0236734837658206,-0.100670846448009,0.01));
#1984=CARTESIAN_POINT('',(0.0236734837658206,-0.100670846448009,0.));
#1985=CARTESIAN_POINT('',(0.0158040126679328,-0.105667340070595,0.));
#1986=CARTESIAN_POINT('',(0.0158040126679328,-0.105667340070595,0.01));
#1987=CARTESIAN_POINT('',(0.015,-0.10440102114165,0.01));
#1988=CARTESIAN_POINT('',(0.015,-0.10440102114165,0.));
#1989=CARTESIAN_POINT('',(0.0135,-0.10440102114165,0.));
#1990=CARTESIAN_POINT('',(0.0135,-0.10440102114165,0.01));
#1991=CARTESIAN_POINT('',(0.0512610069070504,-0.0944080338964781,0.01));
#1992=CARTESIAN_POINT('',(0.0512610069070504,-0.0944080338964781,0.));
#1993=CARTESIAN_POINT('',(0.0504569942391176,-0.0931417149675334,0.));
#1994=CARTESIAN_POINT('',(0.0504569942391176,-0.0956743528254228,0.));
#1995=CARTESIAN_POINT('',(0.0504569942391176,-0.0931417149675334,0.01));
#1996=CARTESIAN_POINT('',(0.0504569942391176,-0.0956743528254228,0.01));
#1997=CARTESIAN_POINT('',(0.0583264653370055,-0.0881452213449474,0.01));
#1998=CARTESIAN_POINT('',(0.0583264653370055,-0.0881452213449474,0.));
#1999=CARTESIAN_POINT('',(0.0661959364348933,-0.0831487277223614,0.));
#2000=CARTESIAN_POINT('',(0.0661959364348933,-0.0831487277223614,0.01));
#2001=CARTESIAN_POINT('',(0.066999949102826,-0.0844150466513061,0.01));
#2002=CARTESIAN_POINT('',(0.066999949102826,-0.0844150466513061,0.));
#2003=CARTESIAN_POINT('',(0.068499949102826,-0.0844150466513061,0.));
#2004=CARTESIAN_POINT('',(0.068499949102826,-0.0844150466513061,0.01));
#2005=CARTESIAN_POINT('',(0.068499949102826,-0.0944080338964781,0.01));
#2006=CARTESIAN_POINT('',(0.068499949102826,-0.0944080338964781,0.));
#2007=CARTESIAN_POINT('',(0.068499949102826,-0.10440102114165,0.));
#2008=CARTESIAN_POINT('',(0.068499949102826,-0.10440102114165,0.01));
#2009=CARTESIAN_POINT('',(0.066999949102826,-0.10440102114165,0.01));
#2010=CARTESIAN_POINT('',(0.066999949102826,-0.10440102114165,0.));
#2011=CARTESIAN_POINT('',(0.0661959364348933,-0.105667340070595,0.));
#2012=CARTESIAN_POINT('',(0.0661959364348933,-0.105667340070595,0.01));
#2013=CARTESIAN_POINT('',(0.040999974551413,-0.110408033896478,0.01));
#2014=CARTESIAN_POINT('',(0.040999974551413,-0.110408033896478,0.));
#2015=CARTESIAN_POINT('',(0.0284235253572759,-0.110408033896478,0.));
#2016=CARTESIAN_POINT('',(0.05357642374555,-0.110408033896478,0.));
#2017=CARTESIAN_POINT('',(0.0284235253572759,-0.110408033896478,0.01));
#2018=CARTESIAN_POINT('',(0.05357642374555,-0.110408033896478,0.01));
#2019=CARTESIAN_POINT('',(0.028423525357276,-0.108908033896478,0.01));
#2020=CARTESIAN_POINT('',(0.028423525357276,-0.108908033896478,0.));
#2021=CARTESIAN_POINT('',(0.0276195126893433,-0.107641714967533,0.));
#2022=CARTESIAN_POINT('',(0.0276195126893433,-0.107641714967533,0.01));
#2023=CARTESIAN_POINT('',(0.0339077372864118,-0.10364918818831,0.01));
#2024=CARTESIAN_POINT('',(0.0339077372864118,-0.10364918818831,0.));
#2025=CARTESIAN_POINT('',(0.0401959618834803,-0.0996566614090867,0.));
#2026=CARTESIAN_POINT('',(0.0401959618834803,-0.0996566614090867,0.01));
#2027=CARTESIAN_POINT('',(0.040999974551413,-0.100922980338031,0.01));
#2028=CARTESIAN_POINT('',(0.040999974551413,-0.100922980338031,0.));
#2029=CARTESIAN_POINT('',(0.0418039872193458,-0.0996566614090867,0.));
#2030=CARTESIAN_POINT('',(0.0418039872193458,-0.0996566614090867,0.01));
#2031=CARTESIAN_POINT('',(0.0480922118164142,-0.10364918818831,0.01));
#2032=CARTESIAN_POINT('',(0.0480922118164142,-0.10364918818831,0.));
#2033=CARTESIAN_POINT('',(0.0543804364134828,-0.107641714967533,0.));
#2034=CARTESIAN_POINT('',(0.0543804364134828,-0.107641714967533,0.01));
#2035=CARTESIAN_POINT('',(0.080499949102826,-0.0244080338964781,0.01));
#2036=CARTESIAN_POINT('',(0.080499949102826,-0.0244080338964781,0.));
#2037=CARTESIAN_POINT('',(0.080499949102826,-0.0744080338964781,0.));
#2038=CARTESIAN_POINT('',(0.080499949102826,0.0255919661035219,0.));
#2039=CARTESIAN_POINT('',(0.080499949102826,-0.0744080338964781,0.01));
#2040=CARTESIAN_POINT('',(0.080499949102826,0.0255919661035219,0.01));
#2041=CARTESIAN_POINT('',(0.078499949102826,-0.0744080338964781,0.01));
#2042=CARTESIAN_POINT('',(0.078499949102826,-0.0744080338964781,0.));
#2043=CARTESIAN_POINT('',(0.076499949102826,-0.0744080338964781,0.));
#2044=CARTESIAN_POINT('',(0.076499949102826,-0.0744080338964781,0.01));
#2045=CARTESIAN_POINT('',(0.076499949102826,-0.0244080338964781,0.01));
#2046=CARTESIAN_POINT('',(0.076499949102826,-0.0244080338964781,0.));
#2047=CARTESIAN_POINT('',(0.076499949102826,0.0255919661035219,0.));
#2048=CARTESIAN_POINT('',(0.076499949102826,0.0255919661035219,0.01));
#2049=CARTESIAN_POINT('',(0.0055,-0.0244080338964781,0.01));
#2050=CARTESIAN_POINT('',(0.0055,-0.0244080338964781,0.));
#2051=CARTESIAN_POINT('',(0.0055,-0.0744080338964781,0.));
#2052=CARTESIAN_POINT('',(0.0055,0.0255919661035219,0.));
#2053=CARTESIAN_POINT('',(0.0055,-0.0744080338964781,0.01));
#2054=CARTESIAN_POINT('',(0.0055,0.0255919661035219,0.01));
#2055=CARTESIAN_POINT('',(0.0035,-0.0744080338964781,0.01));
#2056=CARTESIAN_POINT('',(0.0035,-0.0744080338964781,0.));
#2057=CARTESIAN_POINT('',(0.0015,-0.0744080338964781,0.));
#2058=CARTESIAN_POINT('',(0.0015,-0.0744080338964781,0.01));
#2059=CARTESIAN_POINT('',(0.0015,-0.0244080338964781,0.01));
#2060=CARTESIAN_POINT('',(0.0015,-0.0244080338964781,0.));
#2061=CARTESIAN_POINT('',(0.0015,0.0255919661035219,0.));
#2062=CARTESIAN_POINT('',(0.0015,0.0255919661035219,0.01));
#2063=CARTESIAN_POINT('',(0.078499949102826,0.0255919661035219,0.01));
#2064=CARTESIAN_POINT('',(0.078499949102826,0.0255919661035219,0.));
#2065=CARTESIAN_POINT('',(0.072499949102826,0.0255919661035219,0.));
#2066=CARTESIAN_POINT('',(0.072499949102826,0.0255919661035219,0.01));
#2067=CARTESIAN_POINT('',(0.072499949102826,-0.0156580338964781,0.01));
#2068=CARTESIAN_POINT('',(0.072499949102826,-0.0156580338964781,0.));
#2069=CARTESIAN_POINT('',(0.072499949102826,-0.0569080338964781,0.));
#2070=CARTESIAN_POINT('',(0.072499949102826,-0.0569080338964781,0.01));
#2071=CARTESIAN_POINT('',(0.054999949102826,-0.0569080338964781,0.01));
#2072=CARTESIAN_POINT('',(0.054999949102826,-0.0569080338964781,0.));
#2073=CARTESIAN_POINT('',(0.054999949102826,-0.0744080338964781,0.));
#2074=CARTESIAN_POINT('',(0.054999949102826,-0.0744080338964781,0.01));
#2075=CARTESIAN_POINT('',(0.040999974551413,-0.0744080338964781,0.01));
#2076=CARTESIAN_POINT('',(0.040999974551413,-0.0744080338964781,0.));
#2077=CARTESIAN_POINT('',(0.027,-0.0744080338964781,0.));
#2078=CARTESIAN_POINT('',(0.027,-0.0744080338964781,0.01));
#2079=CARTESIAN_POINT('',(0.027,-0.0569080338964781,0.01));
#2080=CARTESIAN_POINT('',(0.027,-0.0569080338964781,0.));
#2081=CARTESIAN_POINT('',(0.0095,-0.0569080338964781,0.));
#2082=CARTESIAN_POINT('',(0.0095,-0.0569080338964781,0.01));
#2083=CARTESIAN_POINT('',(0.0095,-0.0156580338964781,0.01));
#2084=CARTESIAN_POINT('',(0.0095,-0.0156580338964781,0.));
#2085=CARTESIAN_POINT('',(0.0095,0.0255919661035219,0.));
#2086=CARTESIAN_POINT('',(0.0095,0.0255919661035219,0.01));
#2087=CARTESIAN_POINT('',(0.0035,0.0255919661035219,0.01));
#2088=CARTESIAN_POINT('',(0.0035,0.0255919661035219,0.));
#2089=CARTESIAN_POINT('',(0.0135,-0.0944080338964781,0.01));
#2090=CARTESIAN_POINT('',(0.0135,-0.0944080338964781,0.));
#2091=CARTESIAN_POINT('',(0.0583264653370055,-0.100670846448009,0.01));
#2092=CARTESIAN_POINT('',(0.0583264653370055,-0.100670846448009,0.));
#2093=CARTESIAN_POINT('',(0.05357642374555,-0.108908033896478,0.01));
#2094=CARTESIAN_POINT('',(0.05357642374555,-0.108908033896478,0.));
#2095=CARTESIAN_POINT('',(0.078499949102826,0.0255919661035219,0.01));
#2096=CARTESIAN_POINT('',(0.078499949102826,0.0255919661035219,0.));
#2097=CARTESIAN_POINT('',(0.0035,0.0255919661035219,0.01));
#2098=CARTESIAN_POINT('',(0.0035,0.0255919661035219,0.));
#2099=CARTESIAN_POINT('',(0.0339077372864118,-0.0851668796046462,0.01));
#2100=CARTESIAN_POINT('',(0.0339077372864118,-0.0851668796046462,0.));
#2101=CARTESIAN_POINT('',(0.040999974551413,-0.114408033896478,0.025));
#2102=CARTESIAN_POINT('',(0.040999974551413,-0.114408033896478,0.025));
#2103=CARTESIAN_POINT('',(0.040999974551413,-0.124408033896478,0.025));
#2104=CARTESIAN_POINT('',(0.040999974551413,-0.124408033896478,0.025));
#2105=CARTESIAN_POINT('',(0.040999974551413,-0.124408033896478,0.));
#2106=CARTESIAN_POINT('',(0.040999974551413,-0.0464080338964781,0.025));
#2107=CARTESIAN_POINT('',(0.040999974551413,-0.0464080338964781,0.));
#2108=CARTESIAN_POINT('',(0.078499949102826,-0.118408033896478,0.04));
#2109=CARTESIAN_POINT('',(0.078499949102826,-0.118408033896478,0.04));
#2110=CARTESIAN_POINT('',(0.078499949102826,-0.118408033896478,0.042));
#2111=CARTESIAN_POINT('',(0.040999974551413,-0.118408033896478,0.0625));
#2112=CARTESIAN_POINT('',(0.0035,-0.118408033896478,0.08));
#2113=CARTESIAN_POINT('',(0.0035,-0.118408033896478,0.08));
#2114=CARTESIAN_POINT('',(0.0035,-0.118408033896478,0.082));
#2115=CARTESIAN_POINT('',(0.040999974551413,-0.118408033896478,0.0625));
#2116=CARTESIAN_POINT('',(0.0035,-0.118408033896478,0.04));
#2117=CARTESIAN_POINT('',(0.0035,-0.118408033896478,0.04));
#2118=CARTESIAN_POINT('',(0.0035,-0.118408033896478,0.042));
#2119=CARTESIAN_POINT('',(0.040999974551413,-0.118408033896478,0.0625));
#2120=CARTESIAN_POINT('',(0.078499949102826,-0.118408033896478,0.08));
#2121=CARTESIAN_POINT('',(0.078499949102826,-0.118408033896478,0.08));
#2122=CARTESIAN_POINT('',(0.078499949102826,-0.118408033896478,0.082));
#2123=CARTESIAN_POINT('',(0.040999974551413,-0.118408033896478,0.0625));
#2124=MECHANICAL_DESIGN_GEOMETRIC_PRESENTATION_REPRESENTATION('',(#1261),
#2125);
#2125=(
GEOMETRIC_REPRESENTATION_CONTEXT(3)
GLOBAL_UNCERTAINTY_ASSIGNED_CONTEXT((#2126))
GLOBAL_UNIT_ASSIGNED_CONTEXT((#2129,#2128,#2127))
REPRESENTATION_CONTEXT('Camera_Chassis_Mount','TOP_LEVEL_ASSEMBLY_PART')
);
#2126=UNCERTAINTY_MEASURE_WITH_UNIT(LENGTH_MEASURE(1.E-8),#2129,
'DISTANCE_ACCURACY_VALUE','Maximum Tolerance applied to model');
#2127=(
NAMED_UNIT(*)
SI_UNIT($,.STERADIAN.)
SOLID_ANGLE_UNIT()
);
#2128=(
NAMED_UNIT(*)
PLANE_ANGLE_UNIT()
SI_UNIT($,.RADIAN.)
);
#2129=(
LENGTH_UNIT()
NAMED_UNIT(*)
SI_UNIT($,.METRE.)
);
#2130=PRODUCT_DEFINITION_SHAPE('','',#2131);
#2131=PRODUCT_DEFINITION('','',#2133,#2132);
#2132=PRODUCT_DEFINITION_CONTEXT('',#2139,'design');
#2133=PRODUCT_DEFINITION_FORMATION_WITH_SPECIFIED_SOURCE('','',#2135,
 .NOT_KNOWN.);
#2134=PRODUCT_RELATED_PRODUCT_CATEGORY('','',(#2135));
#2135=PRODUCT('Camera_Chassis_Mount','Camera_Chassis_Mount',
'Camera_Chassis_Mount',(#2137));
#2136=PRODUCT_CATEGORY('','');
#2137=PRODUCT_CONTEXT('',#2139,'mechanical');
#2138=APPLICATION_PROTOCOL_DEFINITION('international standard',
'ap242_managed_model_based_3d_engineering',2020,#2139);
#2139=APPLICATION_CONTEXT('managed model based 3d engineering');
ENDSEC;
END-ISO-10303-21;
