ISO-10303-21;
HEADER;
/* Generated by software containing ST-Developer
 * from STEP Tools, Inc. (www.steptools.com) 
 */
/* OPTION: using custom renumber hook */

FILE_DESCRIPTION(
/* description */ ('STEP AP242 Edition 2',
'CAx-IF Rec.Pracs.---Representation and Presentation of Product Manufa
cturing Information (PMI)---4.0---2014-10-13',
'CAx-IF Rec.Pracs.---3D Tessellated Geometry---0.4---2014-09-14','2;1',
'CAx-IF Rec.Pracs.---User Defined Attributes---1.5---2016-08-15'),
/* implementation_level */ '2;1');

FILE_NAME(
/* name */ 'ECE148_Camera_Pivot - Camera_Angle_Mount',
/* time_stamp */ '2026-09-03T00:31:22Z',
/* author */ (''),
/* organization */ (''),
/* preprocessor_version */ 'ST-DEVELOPER v20',
/* originating_system */ 'ONSHAPE BY PTC INC, 1.220',
/* authorisation */ '  ');

FILE_SCHEMA (('AP242_MANAGED_MODEL_BASED_3D_ENGINEERING_MIM_LF { 1 0 10303 442 3 1 4 }'));
ENDSEC;

DATA;
#10=SHAPE_REPRESENTATION_RELATIONSHIP('','',#735,#11);
#11=ADVANCED_BREP_SHAPE_REPRESENTATION('',(#733),#1261);
#12=SPHERICAL_SURFACE('',#791,0.001);
#13=SPHERICAL_SURFACE('',#798,0.001);
#14=SPHERICAL_SURFACE('',#800,0.001);
#15=SPHERICAL_SURFACE('',#806,0.001);
#16=CIRCLE('',#739,0.001);
#17=CIRCLE('',#740,0.001);
#18=CIRCLE('',#743,0.001);
#19=CIRCLE('',#744,0.001);
#20=CIRCLE('',#747,0.001);
#21=CIRCLE('',#748,0.001);
#22=CIRCLE('',#750,0.001);
#23=CIRCLE('',#751,0.001);
#24=CIRCLE('',#757,0.00215);
#25=CIRCLE('',#758,0.0025);
#26=CIRCLE('',#759,0.0025);
#27=CIRCLE('',#760,0.0025);
#28=CIRCLE('',#761,0.0025);
#29=CIRCLE('',#763,0.00215);
#30=CIRCLE('',#764,0.0025);
#31=CIRCLE('',#765,0.0025);
#32=CIRCLE('',#766,0.0025);
#33=CIRCLE('',#767,0.0025);
#34=CIRCLE('',#770,0.00215);
#35=CIRCLE('',#771,0.0025);
#36=CIRCLE('',#772,0.0025);
#37=CIRCLE('',#773,0.0025);
#38=CIRCLE('',#774,0.0025);
#39=CIRCLE('',#778,0.00215);
#40=CIRCLE('',#779,0.00215);
#41=CIRCLE('',#780,0.00215);
#42=CIRCLE('',#781,0.00214999999999998);
#43=CIRCLE('',#783,0.00215);
#44=CIRCLE('',#785,0.00215);
#45=CIRCLE('',#787,0.00214999999999998);
#46=CIRCLE('',#789,0.00215);
#47=CIRCLE('',#792,0.001);
#48=CIRCLE('',#793,0.001);
#49=CIRCLE('',#795,0.001);
#50=CIRCLE('',#797,0.001);
#51=CIRCLE('',#799,0.001);
#52=CIRCLE('',#801,0.001);
#53=CIRCLE('',#803,0.001);
#54=CIRCLE('',#805,0.001);
#55=CIRCLE('',#808,0.00215);
#56=CIRCLE('',#809,0.0025);
#57=CIRCLE('',#810,0.0025);
#58=CIRCLE('',#811,0.0025);
#59=CIRCLE('',#812,0.0025);
#60=CYLINDRICAL_SURFACE('',#738,0.001);
#61=CYLINDRICAL_SURFACE('',#742,0.001);
#62=CYLINDRICAL_SURFACE('',#746,0.001);
#63=CYLINDRICAL_SURFACE('',#749,0.001);
#64=CYLINDRICAL_SURFACE('',#782,0.00215);
#65=CYLINDRICAL_SURFACE('',#784,0.00215);
#66=CYLINDRICAL_SURFACE('',#786,0.00214999999999998);
#67=CYLINDRICAL_SURFACE('',#788,0.00215);
#68=CYLINDRICAL_SURFACE('',#794,0.001);
#69=CYLINDRICAL_SURFACE('',#796,0.001);
#70=CYLINDRICAL_SURFACE('',#802,0.001);
#71=CYLINDRICAL_SURFACE('',#804,0.001);
#72=CYLINDRICAL_SURFACE('',#813,0.0025);
#73=CYLINDRICAL_SURFACE('',#814,0.0025);
#74=CYLINDRICAL_SURFACE('',#815,0.00215);
#75=CYLINDRICAL_SURFACE('',#816,0.0025);
#76=CYLINDRICAL_SURFACE('',#817,0.0025);
#77=CYLINDRICAL_SURFACE('',#818,0.00215);
#78=CYLINDRICAL_SURFACE('',#819,0.0025);
#79=CYLINDRICAL_SURFACE('',#820,0.0025);
#80=CYLINDRICAL_SURFACE('',#821,0.0025);
#81=CYLINDRICAL_SURFACE('',#822,0.0025);
#82=ORIENTED_EDGE('',*,*,#282,.T.);
#83=ORIENTED_EDGE('',*,*,#283,.T.);
#84=ORIENTED_EDGE('',*,*,#284,.T.);
#85=ORIENTED_EDGE('',*,*,#285,.T.);
#86=ORIENTED_EDGE('',*,*,#284,.F.);
#87=ORIENTED_EDGE('',*,*,#286,.T.);
#88=ORIENTED_EDGE('',*,*,#287,.F.);
#89=ORIENTED_EDGE('',*,*,#288,.F.);
#90=ORIENTED_EDGE('',*,*,#289,.F.);
#91=ORIENTED_EDGE('',*,*,#290,.T.);
#92=ORIENTED_EDGE('',*,*,#291,.T.);
#93=ORIENTED_EDGE('',*,*,#292,.T.);
#94=ORIENTED_EDGE('',*,*,#293,.F.);
#95=ORIENTED_EDGE('',*,*,#294,.T.);
#96=ORIENTED_EDGE('',*,*,#292,.F.);
#97=ORIENTED_EDGE('',*,*,#295,.F.);
#98=ORIENTED_EDGE('',*,*,#296,.F.);
#99=ORIENTED_EDGE('',*,*,#297,.T.);
#100=ORIENTED_EDGE('',*,*,#298,.T.);
#101=ORIENTED_EDGE('',*,*,#299,.T.);
#102=ORIENTED_EDGE('',*,*,#297,.F.);
#103=ORIENTED_EDGE('',*,*,#300,.T.);
#104=ORIENTED_EDGE('',*,*,#282,.F.);
#105=ORIENTED_EDGE('',*,*,#301,.T.);
#106=ORIENTED_EDGE('',*,*,#290,.F.);
#107=ORIENTED_EDGE('',*,*,#302,.T.);
#108=ORIENTED_EDGE('',*,*,#299,.F.);
#109=ORIENTED_EDGE('',*,*,#303,.F.);
#110=ORIENTED_EDGE('',*,*,#304,.T.);
#111=ORIENTED_EDGE('',*,*,#305,.T.);
#112=ORIENTED_EDGE('',*,*,#306,.F.);
#113=ORIENTED_EDGE('',*,*,#307,.F.);
#114=ORIENTED_EDGE('',*,*,#308,.F.);
#115=ORIENTED_EDGE('',*,*,#309,.F.);
#116=ORIENTED_EDGE('',*,*,#310,.T.);
#117=ORIENTED_EDGE('',*,*,#311,.T.);
#118=ORIENTED_EDGE('',*,*,#312,.T.);
#119=ORIENTED_EDGE('',*,*,#313,.T.);
#120=ORIENTED_EDGE('',*,*,#314,.F.);
#121=ORIENTED_EDGE('',*,*,#315,.F.);
#122=ORIENTED_EDGE('',*,*,#316,.F.);
#123=ORIENTED_EDGE('',*,*,#317,.F.);
#124=ORIENTED_EDGE('',*,*,#318,.T.);
#125=ORIENTED_EDGE('',*,*,#319,.T.);
#126=ORIENTED_EDGE('',*,*,#320,.T.);
#127=ORIENTED_EDGE('',*,*,#321,.F.);
#128=ORIENTED_EDGE('',*,*,#306,.T.);
#129=ORIENTED_EDGE('',*,*,#322,.F.);
#130=ORIENTED_EDGE('',*,*,#323,.T.);
#131=ORIENTED_EDGE('',*,*,#324,.F.);
#132=ORIENTED_EDGE('',*,*,#311,.F.);
#133=ORIENTED_EDGE('',*,*,#325,.F.);
#134=ORIENTED_EDGE('',*,*,#326,.F.);
#135=ORIENTED_EDGE('',*,*,#327,.F.);
#136=ORIENTED_EDGE('',*,*,#304,.F.);
#137=ORIENTED_EDGE('',*,*,#328,.T.);
#138=ORIENTED_EDGE('',*,*,#329,.T.);
#139=ORIENTED_EDGE('',*,*,#330,.T.);
#140=ORIENTED_EDGE('',*,*,#309,.T.);
#141=ORIENTED_EDGE('',*,*,#331,.T.);
#142=ORIENTED_EDGE('',*,*,#332,.F.);
#143=ORIENTED_EDGE('',*,*,#333,.T.);
#144=ORIENTED_EDGE('',*,*,#329,.F.);
#145=ORIENTED_EDGE('',*,*,#334,.T.);
#146=ORIENTED_EDGE('',*,*,#326,.T.);
#147=ORIENTED_EDGE('',*,*,#335,.F.);
#148=ORIENTED_EDGE('',*,*,#336,.F.);
#149=ORIENTED_EDGE('',*,*,#312,.F.);
#150=ORIENTED_EDGE('',*,*,#337,.T.);
#151=ORIENTED_EDGE('',*,*,#338,.T.);
#152=ORIENTED_EDGE('',*,*,#339,.T.);
#153=ORIENTED_EDGE('',*,*,#317,.T.);
#154=ORIENTED_EDGE('',*,*,#340,.T.);
#155=ORIENTED_EDGE('',*,*,#341,.F.);
#156=ORIENTED_EDGE('',*,*,#342,.T.);
#157=ORIENTED_EDGE('',*,*,#338,.F.);
#158=ORIENTED_EDGE('',*,*,#343,.T.);
#159=ORIENTED_EDGE('',*,*,#344,.T.);
#160=ORIENTED_EDGE('',*,*,#345,.F.);
#161=ORIENTED_EDGE('',*,*,#346,.T.);
#162=ORIENTED_EDGE('',*,*,#293,.T.);
#163=ORIENTED_EDGE('',*,*,#347,.T.);
#164=ORIENTED_EDGE('',*,*,#287,.T.);
#165=ORIENTED_EDGE('',*,*,#346,.F.);
#166=ORIENTED_EDGE('',*,*,#286,.F.);
#167=ORIENTED_EDGE('',*,*,#283,.F.);
#168=ORIENTED_EDGE('',*,*,#300,.F.);
#169=ORIENTED_EDGE('',*,*,#296,.T.);
#170=ORIENTED_EDGE('',*,*,#302,.F.);
#171=ORIENTED_EDGE('',*,*,#289,.T.);
#172=ORIENTED_EDGE('',*,*,#294,.F.);
#173=ORIENTED_EDGE('',*,*,#348,.T.);
#174=ORIENTED_EDGE('',*,*,#349,.T.);
#175=ORIENTED_EDGE('',*,*,#350,.T.);
#176=ORIENTED_EDGE('',*,*,#351,.T.);
#177=ORIENTED_EDGE('',*,*,#350,.F.);
#178=ORIENTED_EDGE('',*,*,#352,.F.);
#179=ORIENTED_EDGE('',*,*,#353,.T.);
#180=ORIENTED_EDGE('',*,*,#354,.T.);
#181=ORIENTED_EDGE('',*,*,#348,.F.);
#182=ORIENTED_EDGE('',*,*,#355,.F.);
#183=ORIENTED_EDGE('',*,*,#356,.T.);
#184=ORIENTED_EDGE('',*,*,#357,.T.);
#185=ORIENTED_EDGE('',*,*,#351,.F.);
#186=ORIENTED_EDGE('',*,*,#354,.F.);
#187=ORIENTED_EDGE('',*,*,#358,.T.);
#188=ORIENTED_EDGE('',*,*,#352,.T.);
#189=ORIENTED_EDGE('',*,*,#349,.F.);
#190=ORIENTED_EDGE('',*,*,#357,.F.);
#191=ORIENTED_EDGE('',*,*,#359,.T.);
#192=ORIENTED_EDGE('',*,*,#355,.T.);
#193=ORIENTED_EDGE('',*,*,#323,.F.);
#194=ORIENTED_EDGE('',*,*,#360,.F.);
#195=ORIENTED_EDGE('',*,*,#332,.T.);
#196=ORIENTED_EDGE('',*,*,#361,.T.);
#197=ORIENTED_EDGE('',*,*,#362,.F.);
#198=ORIENTED_EDGE('',*,*,#363,.F.);
#199=ORIENTED_EDGE('',*,*,#341,.T.);
#200=ORIENTED_EDGE('',*,*,#364,.T.);
#201=ORIENTED_EDGE('',*,*,#365,.T.);
#202=ORIENTED_EDGE('',*,*,#366,.T.);
#203=ORIENTED_EDGE('',*,*,#367,.T.);
#204=ORIENTED_EDGE('',*,*,#368,.T.);
#205=ORIENTED_EDGE('',*,*,#356,.F.);
#206=ORIENTED_EDGE('',*,*,#359,.F.);
#207=ORIENTED_EDGE('',*,*,#353,.F.);
#208=ORIENTED_EDGE('',*,*,#358,.F.);
#209=ORIENTED_EDGE('',*,*,#369,.F.);
#210=ORIENTED_EDGE('',*,*,#295,.T.);
#211=ORIENTED_EDGE('',*,*,#370,.F.);
#212=ORIENTED_EDGE('',*,*,#370,.T.);
#213=ORIENTED_EDGE('',*,*,#291,.F.);
#214=ORIENTED_EDGE('',*,*,#371,.F.);
#215=ORIENTED_EDGE('',*,*,#368,.F.);
#216=ORIENTED_EDGE('',*,*,#369,.T.);
#217=ORIENTED_EDGE('',*,*,#367,.F.);
#218=ORIENTED_EDGE('',*,*,#372,.F.);
#219=ORIENTED_EDGE('',*,*,#347,.F.);
#220=ORIENTED_EDGE('',*,*,#371,.T.);
#221=ORIENTED_EDGE('',*,*,#303,.T.);
#222=ORIENTED_EDGE('',*,*,#373,.F.);
#223=ORIENTED_EDGE('',*,*,#288,.T.);
#224=ORIENTED_EDGE('',*,*,#372,.T.);
#225=ORIENTED_EDGE('',*,*,#374,.F.);
#226=ORIENTED_EDGE('',*,*,#373,.T.);
#227=ORIENTED_EDGE('',*,*,#298,.F.);
#228=ORIENTED_EDGE('',*,*,#375,.F.);
#229=ORIENTED_EDGE('',*,*,#365,.F.);
#230=ORIENTED_EDGE('',*,*,#374,.T.);
#231=ORIENTED_EDGE('',*,*,#366,.F.);
#232=ORIENTED_EDGE('',*,*,#376,.F.);
#233=ORIENTED_EDGE('',*,*,#285,.F.);
#234=ORIENTED_EDGE('',*,*,#376,.T.);
#235=ORIENTED_EDGE('',*,*,#375,.T.);
#236=ORIENTED_EDGE('',*,*,#301,.F.);
#237=ORIENTED_EDGE('',*,*,#377,.F.);
#238=ORIENTED_EDGE('',*,*,#344,.F.);
#239=ORIENTED_EDGE('',*,*,#378,.T.);
#240=ORIENTED_EDGE('',*,*,#314,.T.);
#241=ORIENTED_EDGE('',*,*,#379,.F.);
#242=ORIENTED_EDGE('',*,*,#362,.T.);
#243=ORIENTED_EDGE('',*,*,#380,.F.);
#244=ORIENTED_EDGE('',*,*,#319,.F.);
#245=ORIENTED_EDGE('',*,*,#381,.T.);
#246=ORIENTED_EDGE('',*,*,#345,.T.);
#247=ORIENTED_EDGE('',*,*,#381,.F.);
#248=ORIENTED_EDGE('',*,*,#318,.F.);
#249=ORIENTED_EDGE('',*,*,#339,.F.);
#250=ORIENTED_EDGE('',*,*,#315,.T.);
#251=ORIENTED_EDGE('',*,*,#378,.F.);
#252=ORIENTED_EDGE('',*,*,#343,.F.);
#253=ORIENTED_EDGE('',*,*,#337,.F.);
#254=ORIENTED_EDGE('',*,*,#336,.T.);
#255=ORIENTED_EDGE('',*,*,#377,.T.);
#256=ORIENTED_EDGE('',*,*,#325,.T.);
#257=ORIENTED_EDGE('',*,*,#310,.F.);
#258=ORIENTED_EDGE('',*,*,#330,.F.);
#259=ORIENTED_EDGE('',*,*,#335,.T.);
#260=ORIENTED_EDGE('',*,*,#321,.T.);
#261=ORIENTED_EDGE('',*,*,#334,.F.);
#262=ORIENTED_EDGE('',*,*,#328,.F.);
#263=ORIENTED_EDGE('',*,*,#307,.T.);
#264=ORIENTED_EDGE('',*,*,#327,.T.);
#265=ORIENTED_EDGE('',*,*,#320,.F.);
#266=ORIENTED_EDGE('',*,*,#380,.T.);
#267=ORIENTED_EDGE('',*,*,#364,.F.);
#268=ORIENTED_EDGE('',*,*,#340,.F.);
#269=ORIENTED_EDGE('',*,*,#316,.T.);
#270=ORIENTED_EDGE('',*,*,#379,.T.);
#271=ORIENTED_EDGE('',*,*,#313,.F.);
#272=ORIENTED_EDGE('',*,*,#342,.F.);
#273=ORIENTED_EDGE('',*,*,#363,.T.);
#274=ORIENTED_EDGE('',*,*,#324,.T.);
#275=ORIENTED_EDGE('',*,*,#361,.F.);
#276=ORIENTED_EDGE('',*,*,#331,.F.);
#277=ORIENTED_EDGE('',*,*,#308,.T.);
#278=ORIENTED_EDGE('',*,*,#322,.T.);
#279=ORIENTED_EDGE('',*,*,#305,.F.);
#280=ORIENTED_EDGE('',*,*,#333,.F.);
#281=ORIENTED_EDGE('',*,*,#360,.T.);
#282=EDGE_CURVE('',#382,#383,#446,.F.);
#283=EDGE_CURVE('',#383,#384,#447,.T.);
#284=EDGE_CURVE('',#384,#385,#448,.T.);
#285=EDGE_CURVE('',#385,#382,#449,.F.);
#286=EDGE_CURVE('',#384,#386,#16,.F.);
#287=EDGE_CURVE('',#387,#386,#450,.F.);
#288=EDGE_CURVE('',#385,#387,#17,.T.);
#289=EDGE_CURVE('',#388,#389,#451,.T.);
#290=EDGE_CURVE('',#388,#390,#452,.T.);
#291=EDGE_CURVE('',#390,#391,#453,.T.);
#292=EDGE_CURVE('',#391,#389,#454,.F.);
#293=EDGE_CURVE('',#392,#393,#455,.T.);
#294=EDGE_CURVE('',#392,#389,#18,.F.);
#295=EDGE_CURVE('',#393,#391,#19,.T.);
#296=EDGE_CURVE('',#394,#395,#456,.T.);
#297=EDGE_CURVE('',#394,#396,#457,.T.);
#298=EDGE_CURVE('',#396,#397,#458,.T.);
#299=EDGE_CURVE('',#397,#395,#459,.F.);
#300=EDGE_CURVE('',#394,#383,#20,.F.);
#301=EDGE_CURVE('',#382,#396,#21,.F.);
#302=EDGE_CURVE('',#388,#395,#22,.F.);
#303=EDGE_CURVE('',#390,#397,#23,.T.);
#304=EDGE_CURVE('',#398,#399,#460,.T.);
#305=EDGE_CURVE('',#399,#400,#461,.T.);
#306=EDGE_CURVE('',#401,#400,#462,.T.);
#307=EDGE_CURVE('',#398,#401,#463,.T.);
#308=EDGE_CURVE('',#402,#403,#464,.T.);
#309=EDGE_CURVE('',#404,#402,#465,.T.);
#310=EDGE_CURVE('',#404,#405,#466,.T.);
#311=EDGE_CURVE('',#405,#403,#467,.T.);
#312=EDGE_CURVE('',#406,#407,#468,.T.);
#313=EDGE_CURVE('',#407,#408,#469,.T.);
#314=EDGE_CURVE('',#409,#408,#470,.T.);
#315=EDGE_CURVE('',#406,#409,#471,.T.);
#316=EDGE_CURVE('',#410,#411,#472,.T.);
#317=EDGE_CURVE('',#412,#410,#473,.T.);
#318=EDGE_CURVE('',#412,#413,#474,.T.);
#319=EDGE_CURVE('',#413,#411,#475,.T.);
#320=EDGE_CURVE('',#414,#414,#24,.T.);
#321=EDGE_CURVE('',#401,#415,#25,.T.);
#322=EDGE_CURVE('',#416,#400,#26,.T.);
#323=EDGE_CURVE('',#416,#417,#476,.T.);
#324=EDGE_CURVE('',#403,#417,#27,.T.);
#325=EDGE_CURVE('',#418,#405,#28,.T.);
#326=EDGE_CURVE('',#415,#418,#477,.T.);
#327=EDGE_CURVE('',#419,#419,#29,.T.);
#328=EDGE_CURVE('',#398,#420,#30,.T.);
#329=EDGE_CURVE('',#420,#421,#478,.T.);
#330=EDGE_CURVE('',#421,#404,#31,.T.);
#331=EDGE_CURVE('',#402,#422,#32,.T.);
#332=EDGE_CURVE('',#423,#422,#479,.T.);
#333=EDGE_CURVE('',#423,#399,#33,.T.);
#334=EDGE_CURVE('',#420,#415,#480,.T.);
#335=EDGE_CURVE('',#421,#418,#481,.T.);
#336=EDGE_CURVE('',#424,#424,#34,.T.);
#337=EDGE_CURVE('',#406,#425,#35,.T.);
#338=EDGE_CURVE('',#425,#426,#482,.T.);
#339=EDGE_CURVE('',#426,#412,#36,.T.);
#340=EDGE_CURVE('',#410,#427,#37,.T.);
#341=EDGE_CURVE('',#428,#427,#483,.T.);
#342=EDGE_CURVE('',#428,#407,#38,.T.);
#343=EDGE_CURVE('',#425,#429,#484,.T.);
#344=EDGE_CURVE('',#429,#430,#485,.T.);
#345=EDGE_CURVE('',#426,#430,#486,.T.);
#346=EDGE_CURVE('',#386,#392,#487,.T.);
#347=EDGE_CURVE('',#393,#387,#488,.F.);
#348=EDGE_CURVE('',#431,#432,#39,.T.);
#349=EDGE_CURVE('',#432,#431,#40,.T.);
#350=EDGE_CURVE('',#433,#434,#41,.T.);
#351=EDGE_CURVE('',#434,#433,#42,.T.);
#352=EDGE_CURVE('',#435,#433,#489,.T.);
#353=EDGE_CURVE('',#435,#436,#43,.T.);
#354=EDGE_CURVE('',#436,#434,#490,.T.);
#355=EDGE_CURVE('',#437,#431,#491,.T.);
#356=EDGE_CURVE('',#437,#438,#44,.T.);
#357=EDGE_CURVE('',#438,#432,#492,.T.);
#358=EDGE_CURVE('',#436,#435,#45,.T.);
#359=EDGE_CURVE('',#438,#437,#46,.T.);
#360=EDGE_CURVE('',#423,#416,#493,.T.);
#361=EDGE_CURVE('',#422,#417,#494,.T.);
#362=EDGE_CURVE('',#439,#440,#495,.T.);
#363=EDGE_CURVE('',#428,#439,#496,.T.);
#364=EDGE_CURVE('',#427,#440,#497,.T.);
#365=EDGE_CURVE('',#441,#442,#498,.F.);
#366=EDGE_CURVE('',#442,#443,#499,.T.);
#367=EDGE_CURVE('',#443,#444,#500,.T.);
#368=EDGE_CURVE('',#444,#441,#501,.F.);
#369=EDGE_CURVE('',#393,#444,#47,.F.);
#370=EDGE_CURVE('',#444,#391,#48,.F.);
#371=EDGE_CURVE('',#441,#390,#49,.T.);
#372=EDGE_CURVE('',#387,#443,#50,.T.);
#373=EDGE_CURVE('',#441,#397,#51,.F.);
#374=EDGE_CURVE('',#385,#443,#52,.F.);
#375=EDGE_CURVE('',#442,#396,#53,.T.);
#376=EDGE_CURVE('',#382,#442,#54,.T.);
#377=EDGE_CURVE('',#445,#445,#55,.T.);
#378=EDGE_CURVE('',#429,#409,#56,.T.);
#379=EDGE_CURVE('',#439,#408,#57,.T.);
#380=EDGE_CURVE('',#411,#440,#58,.T.);
#381=EDGE_CURVE('',#413,#430,#59,.T.);
#382=VERTEX_POINT('',#1056);
#383=VERTEX_POINT('',#1057);
#384=VERTEX_POINT('',#1059);
#385=VERTEX_POINT('',#1061);
#386=VERTEX_POINT('',#1065);
#387=VERTEX_POINT('',#1067);
#388=VERTEX_POINT('',#1071);
#389=VERTEX_POINT('',#1072);
#390=VERTEX_POINT('',#1074);
#391=VERTEX_POINT('',#1076);
#392=VERTEX_POINT('',#1080);
#393=VERTEX_POINT('',#1081);
#394=VERTEX_POINT('',#1086);
#395=VERTEX_POINT('',#1087);
#396=VERTEX_POINT('',#1089);
#397=VERTEX_POINT('',#1091);
#398=VERTEX_POINT('',#1101);
#399=VERTEX_POINT('',#1102);
#400=VERTEX_POINT('',#1104);
#401=VERTEX_POINT('',#1106);
#402=VERTEX_POINT('',#1110);
#403=VERTEX_POINT('',#1111);
#404=VERTEX_POINT('',#1113);
#405=VERTEX_POINT('',#1115);
#406=VERTEX_POINT('',#1119);
#407=VERTEX_POINT('',#1120);
#408=VERTEX_POINT('',#1122);
#409=VERTEX_POINT('',#1124);
#410=VERTEX_POINT('',#1128);
#411=VERTEX_POINT('',#1129);
#412=VERTEX_POINT('',#1131);
#413=VERTEX_POINT('',#1133);
#414=VERTEX_POINT('',#1137);
#415=VERTEX_POINT('',#1139);
#416=VERTEX_POINT('',#1141);
#417=VERTEX_POINT('',#1143);
#418=VERTEX_POINT('',#1146);
#419=VERTEX_POINT('',#1150);
#420=VERTEX_POINT('',#1152);
#421=VERTEX_POINT('',#1154);
#422=VERTEX_POINT('',#1157);
#423=VERTEX_POINT('',#1159);
#424=VERTEX_POINT('',#1166);
#425=VERTEX_POINT('',#1168);
#426=VERTEX_POINT('',#1170);
#427=VERTEX_POINT('',#1173);
#428=VERTEX_POINT('',#1175);
#429=VERTEX_POINT('',#1179);
#430=VERTEX_POINT('',#1181);
#431=VERTEX_POINT('',#1188);
#432=VERTEX_POINT('',#1189);
#433=VERTEX_POINT('',#1192);
#434=VERTEX_POINT('',#1193);
#435=VERTEX_POINT('',#1197);
#436=VERTEX_POINT('',#1199);
#437=VERTEX_POINT('',#1203);
#438=VERTEX_POINT('',#1205);
#439=VERTEX_POINT('',#1215);
#440=VERTEX_POINT('',#1216);
#441=VERTEX_POINT('',#1220);
#442=VERTEX_POINT('',#1221);
#443=VERTEX_POINT('',#1223);
#444=VERTEX_POINT('',#1225);
#445=VERTEX_POINT('',#1245);
#446=LINE('',#1055,#502);
#447=LINE('',#1058,#503);
#448=LINE('',#1060,#504);
#449=LINE('',#1062,#505);
#450=LINE('',#1066,#506);
#451=LINE('',#1070,#507);
#452=LINE('',#1073,#508);
#453=LINE('',#1075,#509);
#454=LINE('',#1077,#510);
#455=LINE('',#1079,#511);
#456=LINE('',#1085,#512);
#457=LINE('',#1088,#513);
#458=LINE('',#1090,#514);
#459=LINE('',#1092,#515);
#460=LINE('',#1100,#516);
#461=LINE('',#1103,#517);
#462=LINE('',#1105,#518);
#463=LINE('',#1107,#519);
#464=LINE('',#1109,#520);
#465=LINE('',#1112,#521);
#466=LINE('',#1114,#522);
#467=LINE('',#1116,#523);
#468=LINE('',#1118,#524);
#469=LINE('',#1121,#525);
#470=LINE('',#1123,#526);
#471=LINE('',#1125,#527);
#472=LINE('',#1127,#528);
#473=LINE('',#1130,#529);
#474=LINE('',#1132,#530);
#475=LINE('',#1134,#531);
#476=LINE('',#1142,#532);
#477=LINE('',#1147,#533);
#478=LINE('',#1153,#534);
#479=LINE('',#1158,#535);
#480=LINE('',#1162,#536);
#481=LINE('',#1163,#537);
#482=LINE('',#1169,#538);
#483=LINE('',#1174,#539);
#484=LINE('',#1178,#540);
#485=LINE('',#1180,#541);
#486=LINE('',#1182,#542);
#487=LINE('',#1184,#543);
#488=LINE('',#1185,#544);
#489=LINE('',#1196,#545);
#490=LINE('',#1200,#546);
#491=LINE('',#1202,#547);
#492=LINE('',#1206,#548);
#493=LINE('',#1212,#549);
#494=LINE('',#1213,#550);
#495=LINE('',#1214,#551);
#496=LINE('',#1217,#552);
#497=LINE('',#1218,#553);
#498=LINE('',#1219,#554);
#499=LINE('',#1222,#555);
#500=LINE('',#1224,#556);
#501=LINE('',#1226,#557);
#502=VECTOR('',#827,1.);
#503=VECTOR('',#828,1.);
#504=VECTOR('',#829,1.);
#505=VECTOR('',#830,1.);
#506=VECTOR('',#835,1.);
#507=VECTOR('',#840,1.);
#508=VECTOR('',#841,1.);
#509=VECTOR('',#842,1.);
#510=VECTOR('',#843,1.);
#511=VECTOR('',#846,1.);
#512=VECTOR('',#853,1.);
#513=VECTOR('',#854,1.);
#514=VECTOR('',#855,1.);
#515=VECTOR('',#856,1.);
#516=VECTOR('',#871,1.);
#517=VECTOR('',#872,1.);
#518=VECTOR('',#873,1.);
#519=VECTOR('',#874,1.);
#520=VECTOR('',#877,1.);
#521=VECTOR('',#878,1.);
#522=VECTOR('',#879,1.);
#523=VECTOR('',#880,1.);
#524=VECTOR('',#883,1.);
#525=VECTOR('',#884,1.);
#526=VECTOR('',#885,1.);
#527=VECTOR('',#886,1.);
#528=VECTOR('',#889,1.);
#529=VECTOR('',#890,1.);
#530=VECTOR('',#891,1.);
#531=VECTOR('',#892,1.);
#532=VECTOR('',#901,1.);
#533=VECTOR('',#906,1.);
#534=VECTOR('',#913,1.);
#535=VECTOR('',#918,1.);
#536=VECTOR('',#923,1.);
#537=VECTOR('',#924,1.);
#538=VECTOR('',#931,1.);
#539=VECTOR('',#936,1.);
#540=VECTOR('',#941,1.);
#541=VECTOR('',#942,1.);
#542=VECTOR('',#943,1.);
#543=VECTOR('',#946,1.);
#544=VECTOR('',#947,1.);
#545=VECTOR('',#960,1.);
#546=VECTOR('',#963,1.);
#547=VECTOR('',#966,1.);
#548=VECTOR('',#969,1.);
#549=VECTOR('',#980,1.);
#550=VECTOR('',#981,1.);
#551=VECTOR('',#982,1.);
#552=VECTOR('',#983,1.);
#553=VECTOR('',#984,1.);
#554=VECTOR('',#985,1.);
#555=VECTOR('',#986,1.);
#556=VECTOR('',#987,1.);
#557=VECTOR('',#988,1.);
#558=EDGE_LOOP('',(#82,#83,#84,#85));
#559=EDGE_LOOP('',(#86,#87,#88,#89));
#560=EDGE_LOOP('',(#90,#91,#92,#93));
#561=EDGE_LOOP('',(#94,#95,#96,#97));
#562=EDGE_LOOP('',(#98,#99,#100,#101));
#563=EDGE_LOOP('',(#102,#103,#104,#105));
#564=EDGE_LOOP('',(#106,#107,#108,#109));
#565=EDGE_LOOP('',(#110,#111,#112,#113));
#566=EDGE_LOOP('',(#114,#115,#116,#117));
#567=EDGE_LOOP('',(#118,#119,#120,#121));
#568=EDGE_LOOP('',(#122,#123,#124,#125));
#569=EDGE_LOOP('',(#126));
#570=EDGE_LOOP('',(#127,#128,#129,#130,#131,#132,#133,#134));
#571=EDGE_LOOP('',(#135));
#572=EDGE_LOOP('',(#136,#137,#138,#139,#140,#141,#142,#143));
#573=EDGE_LOOP('',(#144,#145,#146,#147));
#574=EDGE_LOOP('',(#148));
#575=EDGE_LOOP('',(#149,#150,#151,#152,#153,#154,#155,#156));
#576=EDGE_LOOP('',(#157,#158,#159,#160));
#577=EDGE_LOOP('',(#161,#162,#163,#164));
#578=EDGE_LOOP('',(#165,#166,#167,#168,#169,#170,#171,#172));
#579=EDGE_LOOP('',(#173,#174));
#580=EDGE_LOOP('',(#175,#176));
#581=EDGE_LOOP('',(#177,#178,#179,#180));
#582=EDGE_LOOP('',(#181,#182,#183,#184));
#583=EDGE_LOOP('',(#185,#186,#187,#188));
#584=EDGE_LOOP('',(#189,#190,#191,#192));
#585=EDGE_LOOP('',(#193,#194,#195,#196));
#586=EDGE_LOOP('',(#197,#198,#199,#200));
#587=EDGE_LOOP('',(#201,#202,#203,#204));
#588=EDGE_LOOP('',(#205,#206));
#589=EDGE_LOOP('',(#207,#208));
#590=EDGE_LOOP('',(#209,#210,#211));
#591=EDGE_LOOP('',(#212,#213,#214,#215));
#592=EDGE_LOOP('',(#216,#217,#218,#219));
#593=EDGE_LOOP('',(#220,#221,#222));
#594=EDGE_LOOP('',(#223,#224,#225));
#595=EDGE_LOOP('',(#226,#227,#228,#229));
#596=EDGE_LOOP('',(#230,#231,#232,#233));
#597=EDGE_LOOP('',(#234,#235,#236));
#598=EDGE_LOOP('',(#237));
#599=EDGE_LOOP('',(#238,#239,#240,#241,#242,#243,#244,#245));
#600=EDGE_LOOP('',(#246,#247,#248,#249));
#601=EDGE_LOOP('',(#250,#251,#252,#253));
#602=EDGE_LOOP('',(#254));
#603=EDGE_LOOP('',(#255));
#604=EDGE_LOOP('',(#256,#257,#258,#259));
#605=EDGE_LOOP('',(#260,#261,#262,#263));
#606=EDGE_LOOP('',(#264));
#607=EDGE_LOOP('',(#265));
#608=EDGE_LOOP('',(#266,#267,#268,#269));
#609=EDGE_LOOP('',(#270,#271,#272,#273));
#610=EDGE_LOOP('',(#274,#275,#276,#277));
#611=EDGE_LOOP('',(#278,#279,#280,#281));
#612=FACE_BOUND('',#558,.T.);
#613=FACE_BOUND('',#559,.T.);
#614=FACE_BOUND('',#560,.T.);
#615=FACE_BOUND('',#561,.T.);
#616=FACE_BOUND('',#562,.T.);
#617=FACE_BOUND('',#563,.T.);
#618=FACE_BOUND('',#564,.T.);
#619=FACE_BOUND('',#565,.T.);
#620=FACE_BOUND('',#566,.T.);
#621=FACE_BOUND('',#567,.T.);
#622=FACE_BOUND('',#568,.T.);
#623=FACE_BOUND('',#569,.T.);
#624=FACE_BOUND('',#570,.T.);
#625=FACE_BOUND('',#571,.T.);
#626=FACE_BOUND('',#572,.T.);
#627=FACE_BOUND('',#573,.T.);
#628=FACE_BOUND('',#574,.T.);
#629=FACE_BOUND('',#575,.T.);
#630=FACE_BOUND('',#576,.T.);
#631=FACE_BOUND('',#577,.T.);
#632=FACE_BOUND('',#578,.T.);
#633=FACE_BOUND('',#579,.T.);
#634=FACE_BOUND('',#580,.T.);
#635=FACE_BOUND('',#581,.T.);
#636=FACE_BOUND('',#582,.T.);
#637=FACE_BOUND('',#583,.T.);
#638=FACE_BOUND('',#584,.T.);
#639=FACE_BOUND('',#585,.T.);
#640=FACE_BOUND('',#586,.T.);
#641=FACE_BOUND('',#587,.T.);
#642=FACE_BOUND('',#588,.T.);
#643=FACE_BOUND('',#589,.T.);
#644=FACE_BOUND('',#590,.T.);
#645=FACE_BOUND('',#591,.T.);
#646=FACE_BOUND('',#592,.T.);
#647=FACE_BOUND('',#593,.T.);
#648=FACE_BOUND('',#594,.T.);
#649=FACE_BOUND('',#595,.T.);
#650=FACE_BOUND('',#596,.T.);
#651=FACE_BOUND('',#597,.T.);
#652=FACE_BOUND('',#598,.T.);
#653=FACE_BOUND('',#599,.T.);
#654=FACE_BOUND('',#600,.T.);
#655=FACE_BOUND('',#601,.T.);
#656=FACE_BOUND('',#602,.T.);
#657=FACE_BOUND('',#603,.T.);
#658=FACE_BOUND('',#604,.T.);
#659=FACE_BOUND('',#605,.T.);
#660=FACE_BOUND('',#606,.T.);
#661=FACE_BOUND('',#607,.T.);
#662=FACE_BOUND('',#608,.T.);
#663=FACE_BOUND('',#609,.T.);
#664=FACE_BOUND('',#610,.T.);
#665=FACE_BOUND('',#611,.T.);
#666=PLANE('',#737);
#667=PLANE('',#741);
#668=PLANE('',#745);
#669=PLANE('',#752);
#670=PLANE('',#753);
#671=PLANE('',#754);
#672=PLANE('',#755);
#673=PLANE('',#756);
#674=PLANE('',#762);
#675=PLANE('',#768);
#676=PLANE('',#769);
#677=PLANE('',#775);
#678=PLANE('',#776);
#679=PLANE('',#777);
#680=PLANE('',#790);
#681=PLANE('',#807);
#682=ADVANCED_FACE('',(#612),#666,.T.);
#683=ADVANCED_FACE('',(#613),#60,.T.);
#684=ADVANCED_FACE('',(#614),#667,.F.);
#685=ADVANCED_FACE('',(#615),#61,.T.);
#686=ADVANCED_FACE('',(#616),#668,.F.);
#687=ADVANCED_FACE('',(#617),#62,.T.);
#688=ADVANCED_FACE('',(#618),#63,.T.);
#689=ADVANCED_FACE('',(#619),#669,.T.);
#690=ADVANCED_FACE('',(#620),#670,.F.);
#691=ADVANCED_FACE('',(#621),#671,.T.);
#692=ADVANCED_FACE('',(#622),#672,.F.);
#693=ADVANCED_FACE('',(#623,#624),#673,.F.);
#694=ADVANCED_FACE('',(#625,#626),#674,.T.);
#695=ADVANCED_FACE('',(#627),#675,.T.);
#696=ADVANCED_FACE('',(#628,#629),#676,.T.);
#697=ADVANCED_FACE('',(#630),#677,.T.);
#698=ADVANCED_FACE('',(#631),#678,.T.);
#699=ADVANCED_FACE('',(#632,#633,#634),#679,.F.);
#700=ADVANCED_FACE('',(#635),#64,.F.);
#701=ADVANCED_FACE('',(#636),#65,.F.);
#702=ADVANCED_FACE('',(#637),#66,.F.);
#703=ADVANCED_FACE('',(#638),#67,.F.);
#704=ADVANCED_FACE('',(#639,#640,#641,#642,#643),#680,.T.);
#705=ADVANCED_FACE('',(#644),#12,.T.);
#706=ADVANCED_FACE('',(#645),#68,.T.);
#707=ADVANCED_FACE('',(#646),#69,.T.);
#708=ADVANCED_FACE('',(#647),#13,.T.);
#709=ADVANCED_FACE('',(#648),#14,.T.);
#710=ADVANCED_FACE('',(#649),#70,.T.);
#711=ADVANCED_FACE('',(#650),#71,.T.);
#712=ADVANCED_FACE('',(#651),#15,.T.);
#713=ADVANCED_FACE('',(#652,#653),#681,.F.);
#714=ADVANCED_FACE('',(#654),#72,.T.);
#715=ADVANCED_FACE('',(#655),#73,.T.);
#716=ADVANCED_FACE('',(#656,#657),#74,.F.);
#717=ADVANCED_FACE('',(#658),#75,.T.);
#718=ADVANCED_FACE('',(#659),#76,.T.);
#719=ADVANCED_FACE('',(#660,#661),#77,.F.);
#720=ADVANCED_FACE('',(#662),#78,.F.);
#721=ADVANCED_FACE('',(#663),#79,.F.);
#722=ADVANCED_FACE('',(#664),#80,.F.);
#723=ADVANCED_FACE('',(#665),#81,.F.);
#724=CLOSED_SHELL('',(#682,#683,#684,#685,#686,#687,#688,#689,#690,#691,
#692,#693,#694,#695,#696,#697,#698,#699,#700,#701,#702,#703,#704,#705,#706,
#707,#708,#709,#710,#711,#712,#713,#714,#715,#716,#717,#718,#719,#720,#721,
#722,#723));
#725=STYLED_ITEM('',(#726),#733);
#726=PRESENTATION_STYLE_ASSIGNMENT((#727));
#727=SURFACE_STYLE_USAGE(.BOTH.,#728);
#728=SURFACE_SIDE_STYLE('',(#729));
#729=SURFACE_STYLE_FILL_AREA(#730);
#730=FILL_AREA_STYLE('',(#731));
#731=FILL_AREA_STYLE_COLOUR('',#732);
#732=COLOUR_RGB('',0.647058823529412,0.647058823529412,0.647058823529412);
#733=MANIFOLD_SOLID_BREP('Camera_Angle_Mount',#724);
#734=SHAPE_DEFINITION_REPRESENTATION(#1266,#735);
#735=SHAPE_REPRESENTATION('Camera_Angle_Mount',(#736),#1261);
#736=AXIS2_PLACEMENT_3D('',#1053,#823,#824);
#737=AXIS2_PLACEMENT_3D('',#1054,#825,#826);
#738=AXIS2_PLACEMENT_3D('',#1063,#831,#832);
#739=AXIS2_PLACEMENT_3D('',#1064,#833,#834);
#740=AXIS2_PLACEMENT_3D('',#1068,#836,#837);
#741=AXIS2_PLACEMENT_3D('',#1069,#838,#839);
#742=AXIS2_PLACEMENT_3D('',#1078,#844,#845);
#743=AXIS2_PLACEMENT_3D('',#1082,#847,#848);
#744=AXIS2_PLACEMENT_3D('',#1083,#849,#850);
#745=AXIS2_PLACEMENT_3D('',#1084,#851,#852);
#746=AXIS2_PLACEMENT_3D('',#1093,#857,#858);
#747=AXIS2_PLACEMENT_3D('',#1094,#859,#860);
#748=AXIS2_PLACEMENT_3D('',#1095,#861,#862);
#749=AXIS2_PLACEMENT_3D('',#1096,#863,#864);
#750=AXIS2_PLACEMENT_3D('',#1097,#865,#866);
#751=AXIS2_PLACEMENT_3D('',#1098,#867,#868);
#752=AXIS2_PLACEMENT_3D('',#1099,#869,#870);
#753=AXIS2_PLACEMENT_3D('',#1108,#875,#876);
#754=AXIS2_PLACEMENT_3D('',#1117,#881,#882);
#755=AXIS2_PLACEMENT_3D('',#1126,#887,#888);
#756=AXIS2_PLACEMENT_3D('',#1135,#893,#894);
#757=AXIS2_PLACEMENT_3D('',#1136,#895,#896);
#758=AXIS2_PLACEMENT_3D('',#1138,#897,#898);
#759=AXIS2_PLACEMENT_3D('',#1140,#899,#900);
#760=AXIS2_PLACEMENT_3D('',#1144,#902,#903);
#761=AXIS2_PLACEMENT_3D('',#1145,#904,#905);
#762=AXIS2_PLACEMENT_3D('',#1148,#907,#908);
#763=AXIS2_PLACEMENT_3D('',#1149,#909,#910);
#764=AXIS2_PLACEMENT_3D('',#1151,#911,#912);
#765=AXIS2_PLACEMENT_3D('',#1155,#914,#915);
#766=AXIS2_PLACEMENT_3D('',#1156,#916,#917);
#767=AXIS2_PLACEMENT_3D('',#1160,#919,#920);
#768=AXIS2_PLACEMENT_3D('',#1161,#921,#922);
#769=AXIS2_PLACEMENT_3D('',#1164,#925,#926);
#770=AXIS2_PLACEMENT_3D('',#1165,#927,#928);
#771=AXIS2_PLACEMENT_3D('',#1167,#929,#930);
#772=AXIS2_PLACEMENT_3D('',#1171,#932,#933);
#773=AXIS2_PLACEMENT_3D('',#1172,#934,#935);
#774=AXIS2_PLACEMENT_3D('',#1176,#937,#938);
#775=AXIS2_PLACEMENT_3D('',#1177,#939,#940);
#776=AXIS2_PLACEMENT_3D('',#1183,#944,#945);
#777=AXIS2_PLACEMENT_3D('',#1186,#948,#949);
#778=AXIS2_PLACEMENT_3D('',#1187,#950,#951);
#779=AXIS2_PLACEMENT_3D('',#1190,#952,#953);
#780=AXIS2_PLACEMENT_3D('',#1191,#954,#955);
#781=AXIS2_PLACEMENT_3D('',#1194,#956,#957);
#782=AXIS2_PLACEMENT_3D('',#1195,#958,#959);
#783=AXIS2_PLACEMENT_3D('',#1198,#961,#962);
#784=AXIS2_PLACEMENT_3D('',#1201,#964,#965);
#785=AXIS2_PLACEMENT_3D('',#1204,#967,#968);
#786=AXIS2_PLACEMENT_3D('',#1207,#970,#971);
#787=AXIS2_PLACEMENT_3D('',#1208,#972,#973);
#788=AXIS2_PLACEMENT_3D('',#1209,#974,#975);
#789=AXIS2_PLACEMENT_3D('',#1210,#976,#977);
#790=AXIS2_PLACEMENT_3D('',#1211,#978,#979);
#791=AXIS2_PLACEMENT_3D('',#1227,#989,#990);
#792=AXIS2_PLACEMENT_3D('',#1228,#991,#992);
#793=AXIS2_PLACEMENT_3D('',#1229,#993,#994);
#794=AXIS2_PLACEMENT_3D('',#1230,#995,#996);
#795=AXIS2_PLACEMENT_3D('',#1231,#997,#998);
#796=AXIS2_PLACEMENT_3D('',#1232,#999,#1000);
#797=AXIS2_PLACEMENT_3D('',#1233,#1001,#1002);
#798=AXIS2_PLACEMENT_3D('',#1234,#1003,#1004);
#799=AXIS2_PLACEMENT_3D('',#1235,#1005,#1006);
#800=AXIS2_PLACEMENT_3D('',#1236,#1007,#1008);
#801=AXIS2_PLACEMENT_3D('',#1237,#1009,#1010);
#802=AXIS2_PLACEMENT_3D('',#1238,#1011,#1012);
#803=AXIS2_PLACEMENT_3D('',#1239,#1013,#1014);
#804=AXIS2_PLACEMENT_3D('',#1240,#1015,#1016);
#805=AXIS2_PLACEMENT_3D('',#1241,#1017,#1018);
#806=AXIS2_PLACEMENT_3D('',#1242,#1019,#1020);
#807=AXIS2_PLACEMENT_3D('',#1243,#1021,#1022);
#808=AXIS2_PLACEMENT_3D('',#1244,#1023,#1024);
#809=AXIS2_PLACEMENT_3D('',#1246,#1025,#1026);
#810=AXIS2_PLACEMENT_3D('',#1247,#1027,#1028);
#811=AXIS2_PLACEMENT_3D('',#1248,#1029,#1030);
#812=AXIS2_PLACEMENT_3D('',#1249,#1031,#1032);
#813=AXIS2_PLACEMENT_3D('',#1250,#1033,#1034);
#814=AXIS2_PLACEMENT_3D('',#1251,#1035,#1036);
#815=AXIS2_PLACEMENT_3D('',#1252,#1037,#1038);
#816=AXIS2_PLACEMENT_3D('',#1253,#1039,#1040);
#817=AXIS2_PLACEMENT_3D('',#1254,#1041,#1042);
#818=AXIS2_PLACEMENT_3D('',#1255,#1043,#1044);
#819=AXIS2_PLACEMENT_3D('',#1256,#1045,#1046);
#820=AXIS2_PLACEMENT_3D('',#1257,#1047,#1048);
#821=AXIS2_PLACEMENT_3D('',#1258,#1049,#1050);
#822=AXIS2_PLACEMENT_3D('',#1259,#1051,#1052);
#823=DIRECTION('',(0.,0.,1.));
#824=DIRECTION('',(1.,0.,0.));
#825=DIRECTION('',(-1.,-1.67541108407384E-16,0.));
#826=DIRECTION('',(1.67541108407384E-16,-1.,0.));
#827=DIRECTION('',(0.,0.,1.));
#828=DIRECTION('',(1.67541108407384E-16,-1.,0.));
#829=DIRECTION('',(0.,0.,1.));
#830=DIRECTION('',(1.67541108407384E-16,-1.,0.));
#831=DIRECTION('',(0.,0.,1.));
#832=DIRECTION('',(1.,0.,0.));
#833=DIRECTION('',(0.,0.,-1.));
#834=DIRECTION('',(-1.,0.,0.));
#835=DIRECTION('',(0.,0.,1.));
#836=DIRECTION('',(0.,0.,1.));
#837=DIRECTION('',(1.,0.,0.));
#838=DIRECTION('',(-1.,-6.70165171026902E-16,0.));
#839=DIRECTION('',(6.70165171026902E-16,-1.,0.));
#840=DIRECTION('',(6.70165171026902E-16,-1.,0.));
#841=DIRECTION('',(0.,0.,1.));
#842=DIRECTION('',(0.,-1.,0.));
#843=DIRECTION('',(0.,0.,1.));
#844=DIRECTION('',(0.,0.,-1.));
#845=DIRECTION('',(-1.,0.,0.));
#846=DIRECTION('',(0.,0.,1.));
#847=DIRECTION('',(0.,0.,-1.));
#848=DIRECTION('',(-1.,0.,0.));
#849=DIRECTION('',(0.,0.,1.));
#850=DIRECTION('',(1.,0.,0.));
#851=DIRECTION('',(0.,-1.,0.));
#852=DIRECTION('',(0.,0.,-1.));
#853=DIRECTION('',(1.,0.,0.));
#854=DIRECTION('',(0.,0.,1.));
#855=DIRECTION('',(1.,0.,0.));
#856=DIRECTION('',(0.,0.,1.));
#857=DIRECTION('',(0.,0.,-1.));
#858=DIRECTION('',(-1.,0.,0.));
#859=DIRECTION('',(0.,0.,-1.));
#860=DIRECTION('',(-1.,0.,0.));
#861=DIRECTION('',(0.,0.,1.));
#862=DIRECTION('',(1.,0.,0.));
#863=DIRECTION('',(0.,0.,1.));
#864=DIRECTION('',(1.,0.,0.));
#865=DIRECTION('',(0.,0.,-1.));
#866=DIRECTION('',(-1.,0.,0.));
#867=DIRECTION('',(0.,0.,1.));
#868=DIRECTION('',(1.,0.,0.));
#869=DIRECTION('',(-3.46944695195362E-16,1.,0.));
#870=DIRECTION('',(-1.,-3.46944695195362E-16,0.));
#871=DIRECTION('',(0.,0.,-1.));
#872=DIRECTION('',(-1.,0.,0.));
#873=DIRECTION('',(0.,0.,-1.));
#874=DIRECTION('',(-1.,0.,0.));
#875=DIRECTION('',(-6.93889390390723E-16,1.,0.));
#876=DIRECTION('',(-1.,-6.93889390390723E-16,0.));
#877=DIRECTION('',(-1.,0.,0.));
#878=DIRECTION('',(0.,0.,-1.));
#879=DIRECTION('',(-1.,0.,0.));
#880=DIRECTION('',(0.,0.,-1.));
#881=DIRECTION('',(-6.93889390390724E-16,1.,0.));
#882=DIRECTION('',(-1.,-6.93889390390724E-16,0.));
#883=DIRECTION('',(0.,0.,-1.));
#884=DIRECTION('',(-1.,0.,0.));
#885=DIRECTION('',(0.,0.,-1.));
#886=DIRECTION('',(-1.,0.,0.));
#887=DIRECTION('',(-6.93889390390724E-16,1.,0.));
#888=DIRECTION('',(-1.,-6.93889390390724E-16,0.));
#889=DIRECTION('',(-1.,0.,0.));
#890=DIRECTION('',(0.,0.,-1.));
#891=DIRECTION('',(-1.,0.,0.));
#892=DIRECTION('',(0.,0.,-1.));
#893=DIRECTION('',(1.,0.,0.));
#894=DIRECTION('',(0.,0.,-1.));
#895=DIRECTION('',(1.,0.,0.));
#896=DIRECTION('',(0.,0.,-1.));
#897=DIRECTION('',(1.,0.,0.));
#898=DIRECTION('',(0.,0.,-1.));
#899=DIRECTION('',(-1.,0.,0.));
#900=DIRECTION('',(0.,0.,1.));
#901=DIRECTION('',(0.,-1.,0.));
#902=DIRECTION('',(-1.,0.,0.));
#903=DIRECTION('',(0.,0.,1.));
#904=DIRECTION('',(1.,0.,0.));
#905=DIRECTION('',(0.,0.,-1.));
#906=DIRECTION('',(0.,-1.,0.));
#907=DIRECTION('',(1.,0.,0.));
#908=DIRECTION('',(0.,0.,-1.));
#909=DIRECTION('',(1.,0.,0.));
#910=DIRECTION('',(0.,0.,-1.));
#911=DIRECTION('',(1.,0.,0.));
#912=DIRECTION('',(0.,0.,-1.));
#913=DIRECTION('',(0.,-1.,0.));
#914=DIRECTION('',(1.,0.,0.));
#915=DIRECTION('',(0.,0.,-1.));
#916=DIRECTION('',(-1.,0.,0.));
#917=DIRECTION('',(0.,0.,1.));
#918=DIRECTION('',(0.,-1.,0.));
#919=DIRECTION('',(-1.,0.,0.));
#920=DIRECTION('',(0.,0.,1.));
#921=DIRECTION('',(0.,0.,1.));
#922=DIRECTION('',(1.,0.,0.));
#923=DIRECTION('',(-1.,0.,0.));
#924=DIRECTION('',(-1.,0.,0.));
#925=DIRECTION('',(1.,0.,0.));
#926=DIRECTION('',(0.,0.,-1.));
#927=DIRECTION('',(1.,0.,0.));
#928=DIRECTION('',(0.,0.,-1.));
#929=DIRECTION('',(1.,0.,0.));
#930=DIRECTION('',(0.,0.,-1.));
#931=DIRECTION('',(0.,-1.,0.));
#932=DIRECTION('',(1.,0.,0.));
#933=DIRECTION('',(0.,0.,-1.));
#934=DIRECTION('',(-1.,0.,0.));
#935=DIRECTION('',(0.,0.,1.));
#936=DIRECTION('',(0.,-1.,0.));
#937=DIRECTION('',(-1.,0.,0.));
#938=DIRECTION('',(0.,0.,1.));
#939=DIRECTION('',(0.,0.,1.));
#940=DIRECTION('',(1.,0.,0.));
#941=DIRECTION('',(-1.,0.,0.));
#942=DIRECTION('',(0.,-1.,0.));
#943=DIRECTION('',(-1.,0.,0.));
#944=DIRECTION('',(0.,-1.,0.));
#945=DIRECTION('',(0.,0.,-1.));
#946=DIRECTION('',(1.,0.,0.));
#947=DIRECTION('',(1.,0.,0.));
#948=DIRECTION('',(0.,0.,1.));
#949=DIRECTION('',(1.,0.,0.));
#950=DIRECTION('',(0.,0.,1.));
#951=DIRECTION('',(1.,0.,0.));
#952=DIRECTION('',(-3.35062874485808E-21,8.0548381172578E-15,1.));
#953=DIRECTION('',(-0.999999999999654,-8.31954335042103E-7,0.));
#954=DIRECTION('',(0.,0.,1.));
#955=DIRECTION('',(1.,0.,0.));
#956=DIRECTION('',(-2.34302107453933E-21,-3.39190141383203E-15,1.));
#957=DIRECTION('',(1.,-5.64793689852918E-15,0.));
#958=DIRECTION('',(0.,0.,-1.));
#959=DIRECTION('',(-1.,0.,0.));
#960=DIRECTION('',(0.,0.,-1.));
#961=DIRECTION('',(0.,0.,1.));
#962=DIRECTION('',(1.,0.,0.));
#963=DIRECTION('',(0.,0.,-1.));
#964=DIRECTION('',(0.,0.,-1.));
#965=DIRECTION('',(-1.,0.,0.));
#966=DIRECTION('',(0.,0.,-1.));
#967=DIRECTION('',(0.,0.,1.));
#968=DIRECTION('',(1.,0.,0.));
#969=DIRECTION('',(0.,0.,-1.));
#970=DIRECTION('',(0.,0.,-1.));
#971=DIRECTION('',(6.9076919894701E-7,0.999999999999761,0.));
#972=DIRECTION('',(1.64489993470361E-21,2.38125831421741E-15,1.));
#973=DIRECTION('',(1.,-5.64793689852918E-15,0.));
#974=DIRECTION('',(0.,0.,-1.));
#975=DIRECTION('',(4.15977166109067E-7,-0.999999999999914,0.));
#976=DIRECTION('',(-4.87298684436421E-22,1.17145536458242E-15,1.));
#977=DIRECTION('',(-0.999999999999654,-8.31954335042103E-7,0.));
#978=DIRECTION('',(0.,0.,1.));
#979=DIRECTION('',(1.,0.,0.));
#980=DIRECTION('',(-1.,0.,0.));
#981=DIRECTION('',(-1.,0.,0.));
#982=DIRECTION('',(0.,-1.,0.));
#983=DIRECTION('',(-1.,0.,0.));
#984=DIRECTION('',(-1.,0.,0.));
#985=DIRECTION('',(1.,0.,0.));
#986=DIRECTION('',(1.67541108407384E-16,-1.,0.));
#987=DIRECTION('',(1.,0.,0.));
#988=DIRECTION('',(0.,-1.,0.));
#989=DIRECTION('',(1.,-8.67361737988403E-16,0.));
#990=DIRECTION('',(8.67361737988403E-16,1.,0.));
#991=DIRECTION('',(1.,0.,0.));
#992=DIRECTION('',(0.,0.,-1.));
#993=DIRECTION('',(0.,-1.,0.));
#994=DIRECTION('',(0.,0.,-1.));
#995=DIRECTION('',(0.,-1.,0.));
#996=DIRECTION('',(0.,0.,-1.));
#997=DIRECTION('',(0.,1.,0.));
#998=DIRECTION('',(0.,0.,1.));
#999=DIRECTION('',(-1.,0.,0.));
#1000=DIRECTION('',(0.,0.,1.));
#1001=DIRECTION('',(-1.,0.,0.));
#1002=DIRECTION('',(0.,0.,1.));
#1003=DIRECTION('',(1.,0.,0.));
#1004=DIRECTION('',(0.,0.,-1.));
#1005=DIRECTION('',(1.,0.,0.));
#1006=DIRECTION('',(0.,0.,-1.));
#1007=DIRECTION('',(0.,-1.,0.));
#1008=DIRECTION('',(0.,0.,-1.));
#1009=DIRECTION('',(-8.67361737988404E-16,-1.,0.));
#1010=DIRECTION('',(1.,-8.67361737988404E-16,0.));
#1011=DIRECTION('',(1.,0.,0.));
#1012=DIRECTION('',(0.,0.,-1.));
#1013=DIRECTION('',(-1.,0.,0.));
#1014=DIRECTION('',(0.,0.,1.));
#1015=DIRECTION('',(-1.67541108407384E-16,1.,0.));
#1016=DIRECTION('',(-1.,-1.67541108407384E-16,0.));
#1017=DIRECTION('',(0.,1.,0.));
#1018=DIRECTION('',(0.,0.,1.));
#1019=DIRECTION('',(0.,0.,1.));
#1020=DIRECTION('',(1.,0.,0.));
#1021=DIRECTION('',(1.,0.,0.));
#1022=DIRECTION('',(0.,0.,-1.));
#1023=DIRECTION('',(-1.,0.,0.));
#1024=DIRECTION('',(0.,0.,1.));
#1025=DIRECTION('',(-1.,0.,0.));
#1026=DIRECTION('',(0.,0.,1.));
#1027=DIRECTION('',(-1.,0.,0.));
#1028=DIRECTION('',(0.,0.,1.));
#1029=DIRECTION('',(-1.,0.,0.));
#1030=DIRECTION('',(0.,0.,1.));
#1031=DIRECTION('',(-1.,0.,0.));
#1032=DIRECTION('',(0.,0.,1.));
#1033=DIRECTION('',(-1.,0.,0.));
#1034=DIRECTION('',(0.,0.,1.));
#1035=DIRECTION('',(-1.,0.,0.));
#1036=DIRECTION('',(0.,0.,1.));
#1037=DIRECTION('',(-1.,0.,0.));
#1038=DIRECTION('',(0.,0.,1.));
#1039=DIRECTION('',(-1.,0.,0.));
#1040=DIRECTION('',(0.,0.,1.));
#1041=DIRECTION('',(-1.,0.,0.));
#1042=DIRECTION('',(0.,0.,1.));
#1043=DIRECTION('',(-1.,0.,0.));
#1044=DIRECTION('',(0.,0.,1.));
#1045=DIRECTION('',(-1.,0.,0.));
#1046=DIRECTION('',(0.,0.,1.));
#1047=DIRECTION('',(-1.,0.,0.));
#1048=DIRECTION('',(0.,0.,1.));
#1049=DIRECTION('',(-1.,0.,0.));
#1050=DIRECTION('',(0.,0.,1.));
#1051=DIRECTION('',(-1.,0.,0.));
#1052=DIRECTION('',(0.,0.,1.));
#1053=CARTESIAN_POINT('',(0.,0.,0.));
#1054=CARTESIAN_POINT('',(-0.00609196610352189,-0.0218540169482391,-0.0423));
#1055=CARTESIAN_POINT('',(-0.00609196610352189,-0.00140803389647811,-0.0453));
#1056=CARTESIAN_POINT('',(-0.00609196610352189,-0.00140803389647811,-0.0235));
#1057=CARTESIAN_POINT('',(-0.00609196610352189,-0.00140803389647811,-0.0245));
#1058=CARTESIAN_POINT('',(-0.00609196610352189,-0.0218540169482391,-0.0245));
#1059=CARTESIAN_POINT('',(-0.00609196610352189,-0.0312080338964781,-0.0245));
#1060=CARTESIAN_POINT('',(-0.00609196610352189,-0.0312080338964781,-0.0423));
#1061=CARTESIAN_POINT('',(-0.00609196610352189,-0.0312080338964781,-0.0235));
#1062=CARTESIAN_POINT('',(-0.00609196610352189,-0.000408033896478106,-0.0235));
#1063=CARTESIAN_POINT('',(-0.00509196610352189,-0.0312080338964781,-0.0423));
#1064=CARTESIAN_POINT('',(-0.00509196610352189,-0.0312080338964781,-0.0245));
#1065=CARTESIAN_POINT('',(-0.00509196610352189,-0.0322080338964781,-0.0245));
#1066=CARTESIAN_POINT('',(-0.00509196610352189,-0.0322080338964781,-0.0423));
#1067=CARTESIAN_POINT('',(-0.00509196610352189,-0.0322080338964781,-0.0235));
#1068=CARTESIAN_POINT('',(-0.00509196610352189,-0.0312080338964781,-0.0235));
#1069=CARTESIAN_POINT('',(0.0887080338964781,-0.02185402834099,-0.0423));
#1070=CARTESIAN_POINT('',(0.0887080338964781,-0.02185402834099,-0.0245));
#1071=CARTESIAN_POINT('',(0.0887080338964781,-0.00140803389647811,-0.0245));
#1072=CARTESIAN_POINT('',(0.0887080338964781,-0.0312080338964781,-0.0245));
#1073=CARTESIAN_POINT('',(0.0887080338964781,-0.00140803389647811,-0.0453));
#1074=CARTESIAN_POINT('',(0.0887080338964781,-0.00140803389647811,-0.0235));
#1075=CARTESIAN_POINT('',(0.0887080338964781,-0.00595402834098993,-0.0235));
#1076=CARTESIAN_POINT('',(0.0887080338964781,-0.0312080338964781,-0.0235));
#1077=CARTESIAN_POINT('',(0.0887080338964781,-0.0312080338964781,-0.0423));
#1078=CARTESIAN_POINT('',(0.0877080338964781,-0.0312080338964781,-0.0423));
#1079=CARTESIAN_POINT('',(0.0877080338964781,-0.0322080338964781,-0.0245));
#1080=CARTESIAN_POINT('',(0.0877080338964781,-0.0322080338964781,-0.0245));
#1081=CARTESIAN_POINT('',(0.0877080338964781,-0.0322080338964781,-0.0235));
#1082=CARTESIAN_POINT('',(0.0877080338964781,-0.0312080338964781,-0.0245));
#1083=CARTESIAN_POINT('',(0.0877080338964781,-0.0312080338964781,-0.0235));
#1084=CARTESIAN_POINT('',(-0.00509196610352189,-0.000408033896478106,-0.0453));
#1085=CARTESIAN_POINT('',(-0.00509196610352189,-0.000408033896478106,-0.0245));
#1086=CARTESIAN_POINT('',(-0.00509196610352189,-0.000408033896478106,-0.0245));
#1087=CARTESIAN_POINT('',(0.0877080338964781,-0.000408033896478106,-0.0245));
#1088=CARTESIAN_POINT('',(-0.00509196610352189,-0.000408033896478106,-0.0245));
#1089=CARTESIAN_POINT('',(-0.00509196610352189,-0.000408033896478106,-0.0235));
#1090=CARTESIAN_POINT('',(-0.00509196610352189,-0.000408033896478106,-0.0235));
#1091=CARTESIAN_POINT('',(0.0877080338964781,-0.000408033896478106,-0.0235));
#1092=CARTESIAN_POINT('',(0.0877080338964781,-0.000408033896478106,-0.0453));
#1093=CARTESIAN_POINT('',(-0.00509196610352189,-0.00140803389647811,-0.0453));
#1094=CARTESIAN_POINT('',(-0.00509196610352189,-0.00140803389647811,-0.0245));
#1095=CARTESIAN_POINT('',(-0.00509196610352189,-0.00140803389647811,-0.0235));
#1096=CARTESIAN_POINT('',(0.0877080338964781,-0.00140803389647811,-0.0453));
#1097=CARTESIAN_POINT('',(0.0877080338964781,-0.00140803389647811,-0.0245));
#1098=CARTESIAN_POINT('',(0.0877080338964781,-0.00140803389647811,-0.0235));
#1099=CARTESIAN_POINT('',(0.0489580338964781,-0.0113080338964781,-0.0075));
#1100=CARTESIAN_POINT('',(0.0514580338964781,-0.0113080338964781,-0.0075));
#1101=CARTESIAN_POINT('',(0.0514580338964781,-0.0113080338964781,-0.01));
#1102=CARTESIAN_POINT('',(0.0514580338964781,-0.0113080338964781,-0.02));
#1103=CARTESIAN_POINT('',(0.0514580338964781,-0.0113080338964781,-0.02));
#1104=CARTESIAN_POINT('',(0.0464580338964781,-0.0113080338964781,-0.02));
#1105=CARTESIAN_POINT('',(0.0464580338964781,-0.0113080338964781,-0.0075));
#1106=CARTESIAN_POINT('',(0.0464580338964781,-0.0113080338964781,-0.01));
#1107=CARTESIAN_POINT('',(0.0520580338964781,-0.0113080338964781,-0.01));
#1108=CARTESIAN_POINT('',(0.0489580338964781,-0.0213080338964781,-0.0075));
#1109=CARTESIAN_POINT('',(0.0514580338964781,-0.0213080338964781,-0.02));
#1110=CARTESIAN_POINT('',(0.0514580338964781,-0.0213080338964781,-0.02));
#1111=CARTESIAN_POINT('',(0.0464580338964781,-0.0213080338964781,-0.02));
#1112=CARTESIAN_POINT('',(0.0514580338964781,-0.0213080338964781,-0.0075));
#1113=CARTESIAN_POINT('',(0.0514580338964781,-0.0213080338964781,-0.01));
#1114=CARTESIAN_POINT('',(0.0520580338964781,-0.0213080338964781,-0.01));
#1115=CARTESIAN_POINT('',(0.0464580338964781,-0.0213080338964781,-0.01));
#1116=CARTESIAN_POINT('',(0.0464580338964781,-0.0213080338964781,-0.0075));
#1117=CARTESIAN_POINT('',(0.0336580338964781,-0.0113080338964781,-0.0075));
#1118=CARTESIAN_POINT('',(0.0361580338964781,-0.0113080338964781,-0.0075));
#1119=CARTESIAN_POINT('',(0.0361580338964781,-0.0113080338964781,-0.01));
#1120=CARTESIAN_POINT('',(0.0361580338964781,-0.0113080338964781,-0.02));
#1121=CARTESIAN_POINT('',(0.0361580338964781,-0.0113080338964781,-0.02));
#1122=CARTESIAN_POINT('',(0.0311580338964781,-0.0113080338964781,-0.02));
#1123=CARTESIAN_POINT('',(0.0311580338964781,-0.0113080338964781,-0.0075));
#1124=CARTESIAN_POINT('',(0.0311580338964781,-0.0113080338964781,-0.01));
#1125=CARTESIAN_POINT('',(0.0520580338964781,-0.0113080338964781,-0.01));
#1126=CARTESIAN_POINT('',(0.0336580338964781,-0.0213080338964781,-0.0075));
#1127=CARTESIAN_POINT('',(0.0361580338964781,-0.0213080338964781,-0.02));
#1128=CARTESIAN_POINT('',(0.0361580338964781,-0.0213080338964781,-0.02));
#1129=CARTESIAN_POINT('',(0.0311580338964781,-0.0213080338964781,-0.02));
#1130=CARTESIAN_POINT('',(0.0361580338964781,-0.0213080338964781,-0.0075));
#1131=CARTESIAN_POINT('',(0.0361580338964781,-0.0213080338964781,-0.01));
#1132=CARTESIAN_POINT('',(0.0520580338964781,-0.0213080338964781,-0.01));
#1133=CARTESIAN_POINT('',(0.0311580338964781,-0.0213080338964781,-0.01));
#1134=CARTESIAN_POINT('',(0.0311580338964781,-0.0213080338964781,-0.0075));
#1135=CARTESIAN_POINT('',(0.0464580338964781,-0.0163080338964781,-0.0075));
#1136=CARTESIAN_POINT('',(0.0464580338964781,-0.0163080338964781,-0.01335));
#1137=CARTESIAN_POINT('',(0.0464580338964781,-0.0163080338964781,-0.0155));
#1138=CARTESIAN_POINT('',(0.0464580338964781,-0.0138080338964781,-0.01));
#1139=CARTESIAN_POINT('',(0.0464580338964781,-0.0138080338964781,-0.0075));
#1140=CARTESIAN_POINT('',(0.0464580338964781,-0.0088080338964781,-0.02));
#1141=CARTESIAN_POINT('',(0.0464580338964781,-0.0088080338964781,-0.0225));
#1142=CARTESIAN_POINT('',(0.0464580338964781,-0.0163080338964781,-0.0225));
#1143=CARTESIAN_POINT('',(0.0464580338964781,-0.0238080338964781,-0.0225));
#1144=CARTESIAN_POINT('',(0.0464580338964781,-0.0238080338964781,-0.02));
#1145=CARTESIAN_POINT('',(0.0464580338964781,-0.0188080338964781,-0.01));
#1146=CARTESIAN_POINT('',(0.0464580338964781,-0.0188080338964781,-0.0075));
#1147=CARTESIAN_POINT('',(0.0464580338964781,-0.0163080338964781,-0.0075));
#1148=CARTESIAN_POINT('',(0.0514580338964781,-0.0163080338964781,-0.0075));
#1149=CARTESIAN_POINT('',(0.0514580338964781,-0.0163080338964781,-0.01335));
#1150=CARTESIAN_POINT('',(0.0514580338964781,-0.0163080338964781,-0.0155));
#1151=CARTESIAN_POINT('',(0.0514580338964781,-0.0138080338964781,-0.01));
#1152=CARTESIAN_POINT('',(0.0514580338964781,-0.0138080338964781,-0.0075));
#1153=CARTESIAN_POINT('',(0.0514580338964781,-0.0163080338964781,-0.0075));
#1154=CARTESIAN_POINT('',(0.0514580338964781,-0.0188080338964781,-0.0075));
#1155=CARTESIAN_POINT('',(0.0514580338964781,-0.0188080338964781,-0.01));
#1156=CARTESIAN_POINT('',(0.0514580338964781,-0.0238080338964781,-0.02));
#1157=CARTESIAN_POINT('',(0.0514580338964781,-0.0238080338964781,-0.0225));
#1158=CARTESIAN_POINT('',(0.0514580338964781,-0.0163080338964781,-0.0225));
#1159=CARTESIAN_POINT('',(0.0514580338964781,-0.0088080338964781,-0.0225));
#1160=CARTESIAN_POINT('',(0.0514580338964781,-0.0088080338964781,-0.02));
#1161=CARTESIAN_POINT('',(0.0413080338964781,-0.0163080338964781,-0.0075));
#1162=CARTESIAN_POINT('',(0.0520580338964781,-0.0138080338964781,-0.0075));
#1163=CARTESIAN_POINT('',(0.0520580338964781,-0.0188080338964781,-0.0075));
#1164=CARTESIAN_POINT('',(0.0361580338964781,-0.0163080338964781,-0.0075));
#1165=CARTESIAN_POINT('',(0.0361580338964781,-0.0163080338964781,-0.01335));
#1166=CARTESIAN_POINT('',(0.0361580338964781,-0.0163080338964781,-0.0155));
#1167=CARTESIAN_POINT('',(0.0361580338964781,-0.0138080338964781,-0.01));
#1168=CARTESIAN_POINT('',(0.0361580338964781,-0.0138080338964781,-0.0075));
#1169=CARTESIAN_POINT('',(0.0361580338964781,-0.0163080338964781,-0.0075));
#1170=CARTESIAN_POINT('',(0.0361580338964781,-0.0188080338964781,-0.0075));
#1171=CARTESIAN_POINT('',(0.0361580338964781,-0.0188080338964781,-0.01));
#1172=CARTESIAN_POINT('',(0.0361580338964781,-0.0238080338964781,-0.02));
#1173=CARTESIAN_POINT('',(0.0361580338964781,-0.0238080338964781,-0.0225));
#1174=CARTESIAN_POINT('',(0.0361580338964781,-0.0163080338964781,-0.0225));
#1175=CARTESIAN_POINT('',(0.0361580338964781,-0.0088080338964781,-0.0225));
#1176=CARTESIAN_POINT('',(0.0361580338964781,-0.0088080338964781,-0.02));
#1177=CARTESIAN_POINT('',(0.0413080338964781,-0.0163080338964781,-0.0075));
#1178=CARTESIAN_POINT('',(0.0520580338964781,-0.0138080338964781,-0.0075));
#1179=CARTESIAN_POINT('',(0.0311580338964781,-0.0138080338964781,-0.0075));
#1180=CARTESIAN_POINT('',(0.0311580338964781,-0.0163080338964781,-0.0075));
#1181=CARTESIAN_POINT('',(0.0311580338964781,-0.0188080338964781,-0.0075));
#1182=CARTESIAN_POINT('',(0.0520580338964781,-0.0188080338964781,-0.0075));
#1183=CARTESIAN_POINT('',(-0.00509196610352189,-0.0322080338964781,-0.0423));
#1184=CARTESIAN_POINT('',(-0.00509196610352189,-0.0322080338964781,-0.0245));
#1185=CARTESIAN_POINT('',(-0.00609196610352189,-0.0322080338964781,-0.0235));
#1186=CARTESIAN_POINT('',(0.0413080338964781,-0.0163080338964781,-0.0245));
#1187=CARTESIAN_POINT('',(0.0035,-0.0115,-0.0245));
#1188=CARTESIAN_POINT('',(0.00565,-0.0115,-0.0245));
#1189=CARTESIAN_POINT('',(0.00135000000000074,-0.0115000017887018,-0.0245));
#1190=CARTESIAN_POINT('',(0.0035,-0.0115,-0.0245));
#1191=CARTESIAN_POINT('',(0.078499949102826,-0.0115000227855018,-0.0245));
#1192=CARTESIAN_POINT('',(0.0763499491028281,-0.0115000198151941,-0.0245));
#1193=CARTESIAN_POINT('',(0.080649949102826,-0.0115000227855017,-0.0245));
#1194=CARTESIAN_POINT('',(0.078499949102826,-0.0115000227855017,-0.0245));
#1195=CARTESIAN_POINT('',(0.078499949102826,-0.0115000227855018,-0.0225));
#1196=CARTESIAN_POINT('',(0.0763499491028281,-0.0115000198151941,-0.0225));
#1197=CARTESIAN_POINT('',(0.0763499491028281,-0.0115000198151941,-0.0225));
#1198=CARTESIAN_POINT('',(0.078499949102826,-0.0115000227855018,-0.0225));
#1199=CARTESIAN_POINT('',(0.080649949102826,-0.0115000227855017,-0.0225));
#1200=CARTESIAN_POINT('',(0.080649949102826,-0.0115000227855017,-0.0225));
#1201=CARTESIAN_POINT('',(0.0035,-0.0115,-0.0225));
#1202=CARTESIAN_POINT('',(0.00565,-0.0115,-0.0225));
#1203=CARTESIAN_POINT('',(0.00565,-0.0115,-0.0225));
#1204=CARTESIAN_POINT('',(0.0035,-0.0115,-0.0225));
#1205=CARTESIAN_POINT('',(0.00135000000000074,-0.0115000017887018,-0.0225));
#1206=CARTESIAN_POINT('',(0.00135000000000074,-0.0115000017887018,-0.0225));
#1207=CARTESIAN_POINT('',(0.078499949102826,-0.0115000227855017,-0.0225));
#1208=CARTESIAN_POINT('',(0.078499949102826,-0.0115000227855017,-0.0225));
#1209=CARTESIAN_POINT('',(0.0035,-0.0115,-0.0225));
#1210=CARTESIAN_POINT('',(0.0035,-0.0115,-0.0225));
#1211=CARTESIAN_POINT('',(0.0413080338964781,-0.0163080338964781,-0.0225));
#1212=CARTESIAN_POINT('',(0.0514580338964781,-0.0088080338964781,-0.0225));
#1213=CARTESIAN_POINT('',(0.0514580338964781,-0.0238080338964781,-0.0225));
#1214=CARTESIAN_POINT('',(0.0311580338964781,-0.0163080338964781,-0.0225));
#1215=CARTESIAN_POINT('',(0.0311580338964781,-0.0088080338964781,-0.0225));
#1216=CARTESIAN_POINT('',(0.0311580338964781,-0.0238080338964781,-0.0225));
#1217=CARTESIAN_POINT('',(0.0361580338964781,-0.0088080338964781,-0.0225));
#1218=CARTESIAN_POINT('',(0.0361580338964781,-0.0238080338964781,-0.0225));
#1219=CARTESIAN_POINT('',(0.0413080338964781,-0.00140803389647811,-0.0225));
#1220=CARTESIAN_POINT('',(0.0877080338964781,-0.00140803389647811,-0.0225));
#1221=CARTESIAN_POINT('',(-0.00509196610352189,-0.00140803389647811,-0.0225));
#1222=CARTESIAN_POINT('',(-0.00509196610352189,-0.0322080338964781,-0.0225));
#1223=CARTESIAN_POINT('',(-0.00509196610352189,-0.0312080338964781,-0.0225));
#1224=CARTESIAN_POINT('',(0.0887080338964781,-0.0312080338964781,-0.0225));
#1225=CARTESIAN_POINT('',(0.0877080338964781,-0.0312080338964781,-0.0225));
#1226=CARTESIAN_POINT('',(0.0877080338964781,-0.0163080338964781,-0.0225));
#1227=CARTESIAN_POINT('',(0.0877080338964781,-0.0312080338964781,-0.0235));
#1228=CARTESIAN_POINT('',(0.0877080338964781,-0.0312080338964781,-0.0235));
#1229=CARTESIAN_POINT('',(0.0877080338964781,-0.0312080338964781,-0.0235));
#1230=CARTESIAN_POINT('',(0.0877080338964781,-0.00595402834098993,-0.0235));
#1231=CARTESIAN_POINT('',(0.0877080338964781,-0.00140803389647811,-0.0235));
#1232=CARTESIAN_POINT('',(0.0413080338964781,-0.0312080338964781,-0.0235));
#1233=CARTESIAN_POINT('',(-0.00509196610352189,-0.0312080338964781,-0.0235));
#1234=CARTESIAN_POINT('',(0.0877080338964781,-0.00140803389647811,-0.0235));
#1235=CARTESIAN_POINT('',(0.0877080338964781,-0.00140803389647811,-0.0235));
#1236=CARTESIAN_POINT('',(-0.00509196610352189,-0.0312080338964781,-0.0235));
#1237=CARTESIAN_POINT('',(-0.00509196610352189,-0.0312080338964781,-0.0235));
#1238=CARTESIAN_POINT('',(-0.00509196610352189,-0.00140803389647811,-0.0235));
#1239=CARTESIAN_POINT('',(-0.00509196610352189,-0.00140803389647811,-0.0235));
#1240=CARTESIAN_POINT('',(-0.00509196610352189,-0.0163080338964781,-0.0235));
#1241=CARTESIAN_POINT('',(-0.00509196610352189,-0.00140803389647811,-0.0235));
#1242=CARTESIAN_POINT('',(-0.00509196610352189,-0.00140803389647811,-0.0235));
#1243=CARTESIAN_POINT('',(0.0311580338964781,-0.0163080338964781,-0.0075));
#1244=CARTESIAN_POINT('',(0.0311580338964781,-0.0163080338964781,-0.01335));
#1245=CARTESIAN_POINT('',(0.0311580338964781,-0.0163080338964781,-0.0112));
#1246=CARTESIAN_POINT('',(0.0311580338964781,-0.0138080338964781,-0.01));
#1247=CARTESIAN_POINT('',(0.0311580338964781,-0.0088080338964781,-0.02));
#1248=CARTESIAN_POINT('',(0.0311580338964781,-0.0238080338964781,-0.02));
#1249=CARTESIAN_POINT('',(0.0311580338964781,-0.0188080338964781,-0.01));
#1250=CARTESIAN_POINT('',(0.0520580338964781,-0.0188080338964781,-0.01));
#1251=CARTESIAN_POINT('',(0.0520580338964781,-0.0138080338964781,-0.01));
#1252=CARTESIAN_POINT('',(0.0520580338964781,-0.0163080338964781,-0.01335));
#1253=CARTESIAN_POINT('',(0.0520580338964781,-0.0188080338964781,-0.01));
#1254=CARTESIAN_POINT('',(0.0520580338964781,-0.0138080338964781,-0.01));
#1255=CARTESIAN_POINT('',(0.0520580338964781,-0.0163080338964781,-0.01335));
#1256=CARTESIAN_POINT('',(0.0361580338964781,-0.0238080338964781,-0.02));
#1257=CARTESIAN_POINT('',(0.0361580338964781,-0.0088080338964781,-0.02));
#1258=CARTESIAN_POINT('',(0.0514580338964781,-0.0238080338964781,-0.02));
#1259=CARTESIAN_POINT('',(0.0514580338964781,-0.0088080338964781,-0.02));
#1260=MECHANICAL_DESIGN_GEOMETRIC_PRESENTATION_REPRESENTATION('',(#725),
#1261);
#1261=(
GEOMETRIC_REPRESENTATION_CONTEXT(3)
GLOBAL_UNCERTAINTY_ASSIGNED_CONTEXT((#1262))
GLOBAL_UNIT_ASSIGNED_CONTEXT((#1265,#1264,#1263))
REPRESENTATION_CONTEXT('Camera_Angle_Mount','TOP_LEVEL_ASSEMBLY_PART')
);
#1262=UNCERTAINTY_MEASURE_WITH_UNIT(LENGTH_MEASURE(1.E-8),#1265,
'DISTANCE_ACCURACY_VALUE','Maximum Tolerance applied to model');
#1263=(
NAMED_UNIT(*)
SI_UNIT($,.STERADIAN.)
SOLID_ANGLE_UNIT()
);
#1264=(
NAMED_UNIT(*)
PLANE_ANGLE_UNIT()
SI_UNIT($,.RADIAN.)
);
#1265=(
LENGTH_UNIT()
NAMED_UNIT(*)
SI_UNIT($,.METRE.)
);
#1266=PRODUCT_DEFINITION_SHAPE('','',#1267);
#1267=PRODUCT_DEFINITION('','',#1269,#1268);
#1268=PRODUCT_DEFINITION_CONTEXT('',#1275,'design');
#1269=PRODUCT_DEFINITION_FORMATION_WITH_SPECIFIED_SOURCE('','',#1271,
 .NOT_KNOWN.);
#1270=PRODUCT_RELATED_PRODUCT_CATEGORY('','',(#1271));
#1271=PRODUCT('Camera_Angle_Mount','Camera_Angle_Mount',
'Camera_Angle_Mount',(#1273));
#1272=PRODUCT_CATEGORY('','');
#1273=PRODUCT_CONTEXT('',#1275,'mechanical');
#1274=APPLICATION_PROTOCOL_DEFINITION('international standard',
'ap242_managed_model_based_3d_engineering',2020,#1275);
#1275=APPLICATION_CONTEXT('managed model based 3d engineering');
ENDSEC;
END-ISO-10303-21;
