ISO-10303-21;
HEADER;
/* Generated by software containing ST-Developer
 * from STEP Tools, Inc. (www.steptools.com) 
 */
/* OPTION: using custom renumber hook */

FILE_DESCRIPTION(
/* description */ ('STEP AP242 Edition 2',
'CAx-IF Rec.Pracs.---Representation and Presentation of Product Manufa
cturing Information (PMI)---4.0---2014-10-13',
'CAx-IF Rec.Pracs.---3D Tessellated Geometry---0.4---2014-09-14','2;1',
'CAx-IF Rec.Pracs.---User Defined Attributes---1.5---2016-08-15'),
/* implementation_level */ '2;1');

FILE_NAME(
/* name */ 'ECE148_Camera_Pivot - Camera_Angle_Bracket',
/* time_stamp */ '2026-09-03T00:30:00Z',
/* author */ (''),
/* organization */ (''),
/* preprocessor_version */ 'ST-DEVELOPER v20',
/* originating_system */ 'ONSHAPE BY PTC INC, 1.220',
/* authorisation */ '  ');

FILE_SCHEMA (('AP242_MANAGED_MODEL_BASED_3D_ENGINEERING_MIM_LF { 1 0 10303 442 3 1 4 }'));
ENDSEC;

DATA;
#10=SHAPE_REPRESENTATION_RELATIONSHIP('','',#423,#11);
#11=ADVANCED_BREP_SHAPE_REPRESENTATION('',(#421),#711);
#12=LINE('',#605,#42);
#13=LINE('',#610,#43);
#14=LINE('',#614,#44);
#15=LINE('',#618,#45);
#16=LINE('',#632,#46);
#17=LINE('',#634,#47);
#18=LINE('',#636,#48);
#19=LINE('',#638,#49);
#20=LINE('',#641,#50);
#21=LINE('',#642,#51);
#22=LINE('',#644,#52);
#23=LINE('',#646,#53);
#24=LINE('',#648,#54);
#25=LINE('',#650,#55);
#26=LINE('',#652,#56);
#27=LINE('',#654,#57);
#28=LINE('',#656,#58);
#29=LINE('',#659,#59);
#30=LINE('',#661,#60);
#31=LINE('',#663,#61);
#32=LINE('',#669,#62);
#33=LINE('',#671,#63);
#34=LINE('',#673,#64);
#35=LINE('',#679,#65);
#36=LINE('',#681,#66);
#37=LINE('',#683,#67);
#38=LINE('',#685,#68);
#39=LINE('',#691,#69);
#40=LINE('',#698,#70);
#41=LINE('',#699,#71);
#42=VECTOR('',#485,1.);
#43=VECTOR('',#488,1.);
#44=VECTOR('',#491,1.);
#45=VECTOR('',#494,1.);
#46=VECTOR('',#511,1.);
#47=VECTOR('',#512,1.);
#48=VECTOR('',#513,1.);
#49=VECTOR('',#516,1.);
#50=VECTOR('',#517,1.);
#51=VECTOR('',#518,1.);
#52=VECTOR('',#521,1.);
#53=VECTOR('',#522,1.);
#54=VECTOR('',#523,1.);
#55=VECTOR('',#526,1.);
#56=VECTOR('',#527,1.);
#57=VECTOR('',#528,1.);
#58=VECTOR('',#531,1.);
#59=VECTOR('',#532,1.);
#60=VECTOR('',#533,1.);
#61=VECTOR('',#534,1.);
#62=VECTOR('',#545,1.);
#63=VECTOR('',#546,1.);
#64=VECTOR('',#547,1.);
#65=VECTOR('',#554,1.);
#66=VECTOR('',#557,1.);
#67=VECTOR('',#558,1.);
#68=VECTOR('',#559,1.);
#69=VECTOR('',#566,1.);
#70=VECTOR('',#575,1.);
#71=VECTOR('',#576,1.);
#72=PLANE('',#428);
#73=PLANE('',#430);
#74=PLANE('',#441);
#75=PLANE('',#442);
#76=PLANE('',#443);
#77=PLANE('',#444);
#78=PLANE('',#445);
#79=PLANE('',#450);
#80=PLANE('',#454);
#81=PLANE('',#461);
#82=PLANE('',#462);
#83=PLANE('',#463);
#84=PLANE('',#466);
#85=ORIENTED_EDGE('',*,*,#189,.F.);
#86=ORIENTED_EDGE('',*,*,#190,.T.);
#87=ORIENTED_EDGE('',*,*,#189,.T.);
#88=ORIENTED_EDGE('',*,*,#191,.F.);
#89=ORIENTED_EDGE('',*,*,#190,.F.);
#90=ORIENTED_EDGE('',*,*,#192,.T.);
#91=ORIENTED_EDGE('',*,*,#193,.T.);
#92=ORIENTED_EDGE('',*,*,#194,.T.);
#93=ORIENTED_EDGE('',*,*,#195,.T.);
#94=ORIENTED_EDGE('',*,*,#196,.F.);
#95=ORIENTED_EDGE('',*,*,#197,.T.);
#96=ORIENTED_EDGE('',*,*,#198,.F.);
#97=ORIENTED_EDGE('',*,*,#199,.T.);
#98=ORIENTED_EDGE('',*,*,#200,.F.);
#99=ORIENTED_EDGE('',*,*,#201,.F.);
#100=ORIENTED_EDGE('',*,*,#191,.T.);
#101=ORIENTED_EDGE('',*,*,#202,.F.);
#102=ORIENTED_EDGE('',*,*,#203,.F.);
#103=ORIENTED_EDGE('',*,*,#198,.T.);
#104=ORIENTED_EDGE('',*,*,#204,.T.);
#105=ORIENTED_EDGE('',*,*,#205,.F.);
#106=ORIENTED_EDGE('',*,*,#206,.T.);
#107=ORIENTED_EDGE('',*,*,#207,.T.);
#108=ORIENTED_EDGE('',*,*,#208,.T.);
#109=ORIENTED_EDGE('',*,*,#192,.F.);
#110=ORIENTED_EDGE('',*,*,#209,.T.);
#111=ORIENTED_EDGE('',*,*,#194,.F.);
#112=ORIENTED_EDGE('',*,*,#210,.T.);
#113=ORIENTED_EDGE('',*,*,#211,.T.);
#114=ORIENTED_EDGE('',*,*,#212,.T.);
#115=ORIENTED_EDGE('',*,*,#196,.T.);
#116=ORIENTED_EDGE('',*,*,#213,.T.);
#117=ORIENTED_EDGE('',*,*,#214,.F.);
#118=ORIENTED_EDGE('',*,*,#215,.T.);
#119=ORIENTED_EDGE('',*,*,#216,.T.);
#120=ORIENTED_EDGE('',*,*,#217,.T.);
#121=ORIENTED_EDGE('',*,*,#218,.F.);
#122=ORIENTED_EDGE('',*,*,#219,.F.);
#123=ORIENTED_EDGE('',*,*,#202,.T.);
#124=ORIENTED_EDGE('',*,*,#201,.T.);
#125=ORIENTED_EDGE('',*,*,#211,.F.);
#126=ORIENTED_EDGE('',*,*,#220,.T.);
#127=ORIENTED_EDGE('',*,*,#207,.F.);
#128=ORIENTED_EDGE('',*,*,#221,.T.);
#129=ORIENTED_EDGE('',*,*,#205,.T.);
#130=ORIENTED_EDGE('',*,*,#222,.T.);
#131=ORIENTED_EDGE('',*,*,#214,.T.);
#132=ORIENTED_EDGE('',*,*,#223,.T.);
#133=ORIENTED_EDGE('',*,*,#224,.F.);
#134=ORIENTED_EDGE('',*,*,#216,.F.);
#135=ORIENTED_EDGE('',*,*,#225,.T.);
#136=ORIENTED_EDGE('',*,*,#226,.T.);
#137=ORIENTED_EDGE('',*,*,#227,.F.);
#138=ORIENTED_EDGE('',*,*,#226,.F.);
#139=ORIENTED_EDGE('',*,*,#228,.T.);
#140=ORIENTED_EDGE('',*,*,#229,.T.);
#141=ORIENTED_EDGE('',*,*,#230,.T.);
#142=ORIENTED_EDGE('',*,*,#229,.F.);
#143=ORIENTED_EDGE('',*,*,#231,.F.);
#144=ORIENTED_EDGE('',*,*,#232,.T.);
#145=ORIENTED_EDGE('',*,*,#233,.F.);
#146=ORIENTED_EDGE('',*,*,#232,.F.);
#147=ORIENTED_EDGE('',*,*,#234,.T.);
#148=ORIENTED_EDGE('',*,*,#235,.T.);
#149=ORIENTED_EDGE('',*,*,#236,.F.);
#150=ORIENTED_EDGE('',*,*,#237,.T.);
#151=ORIENTED_EDGE('',*,*,#238,.T.);
#152=ORIENTED_EDGE('',*,*,#235,.F.);
#153=ORIENTED_EDGE('',*,*,#239,.F.);
#154=ORIENTED_EDGE('',*,*,#218,.T.);
#155=ORIENTED_EDGE('',*,*,#236,.T.);
#156=ORIENTED_EDGE('',*,*,#219,.T.);
#157=ORIENTED_EDGE('',*,*,#239,.T.);
#158=ORIENTED_EDGE('',*,*,#234,.F.);
#159=ORIENTED_EDGE('',*,*,#231,.T.);
#160=ORIENTED_EDGE('',*,*,#228,.F.);
#161=ORIENTED_EDGE('',*,*,#225,.F.);
#162=ORIENTED_EDGE('',*,*,#237,.F.);
#163=ORIENTED_EDGE('',*,*,#217,.F.);
#164=ORIENTED_EDGE('',*,*,#224,.T.);
#165=ORIENTED_EDGE('',*,*,#227,.T.);
#166=ORIENTED_EDGE('',*,*,#230,.F.);
#167=ORIENTED_EDGE('',*,*,#233,.T.);
#168=ORIENTED_EDGE('',*,*,#238,.F.);
#169=ORIENTED_EDGE('',*,*,#240,.F.);
#170=ORIENTED_EDGE('',*,*,#200,.T.);
#171=ORIENTED_EDGE('',*,*,#240,.T.);
#172=ORIENTED_EDGE('',*,*,#203,.T.);
#173=ORIENTED_EDGE('',*,*,#220,.F.);
#174=ORIENTED_EDGE('',*,*,#210,.F.);
#175=ORIENTED_EDGE('',*,*,#193,.F.);
#176=ORIENTED_EDGE('',*,*,#208,.F.);
#177=ORIENTED_EDGE('',*,*,#223,.F.);
#178=ORIENTED_EDGE('',*,*,#213,.F.);
#179=ORIENTED_EDGE('',*,*,#195,.F.);
#180=ORIENTED_EDGE('',*,*,#212,.F.);
#181=ORIENTED_EDGE('',*,*,#222,.F.);
#182=ORIENTED_EDGE('',*,*,#204,.F.);
#183=ORIENTED_EDGE('',*,*,#197,.F.);
#184=ORIENTED_EDGE('',*,*,#215,.F.);
#185=ORIENTED_EDGE('',*,*,#221,.F.);
#186=ORIENTED_EDGE('',*,*,#209,.F.);
#187=ORIENTED_EDGE('',*,*,#199,.F.);
#188=ORIENTED_EDGE('',*,*,#206,.F.);
#189=EDGE_CURVE('',#241,#241,#279,.T.);
#190=EDGE_CURVE('',#242,#242,#280,.T.);
#191=EDGE_CURVE('',#243,#243,#281,.T.);
#192=EDGE_CURVE('',#244,#245,#12,.T.);
#193=EDGE_CURVE('',#245,#246,#282,.T.);
#194=EDGE_CURVE('',#246,#247,#13,.T.);
#195=EDGE_CURVE('',#247,#248,#283,.T.);
#196=EDGE_CURVE('',#249,#248,#14,.T.);
#197=EDGE_CURVE('',#249,#250,#284,.T.);
#198=EDGE_CURVE('',#251,#250,#15,.T.);
#199=EDGE_CURVE('',#251,#244,#285,.T.);
#200=EDGE_CURVE('',#252,#252,#286,.T.);
#201=EDGE_CURVE('',#253,#253,#287,.T.);
#202=EDGE_CURVE('',#254,#254,#288,.T.);
#203=EDGE_CURVE('',#255,#255,#289,.F.);
#204=EDGE_CURVE('',#250,#256,#16,.F.);
#205=EDGE_CURVE('',#257,#256,#17,.T.);
#206=EDGE_CURVE('',#257,#251,#18,.T.);
#207=EDGE_CURVE('',#258,#259,#19,.T.);
#208=EDGE_CURVE('',#259,#245,#20,.T.);
#209=EDGE_CURVE('',#244,#258,#21,.F.);
#210=EDGE_CURVE('',#246,#260,#22,.F.);
#211=EDGE_CURVE('',#260,#261,#23,.T.);
#212=EDGE_CURVE('',#261,#247,#24,.T.);
#213=EDGE_CURVE('',#248,#262,#25,.F.);
#214=EDGE_CURVE('',#263,#262,#26,.T.);
#215=EDGE_CURVE('',#263,#249,#27,.T.);
#216=EDGE_CURVE('',#264,#265,#28,.T.);
#217=EDGE_CURVE('',#265,#266,#29,.T.);
#218=EDGE_CURVE('',#267,#266,#30,.T.);
#219=EDGE_CURVE('',#264,#267,#31,.T.);
#220=EDGE_CURVE('',#260,#259,#290,.F.);
#221=EDGE_CURVE('',#258,#257,#291,.F.);
#222=EDGE_CURVE('',#256,#263,#292,.F.);
#223=EDGE_CURVE('',#262,#261,#293,.F.);
#224=EDGE_CURVE('',#265,#268,#32,.T.);
#225=EDGE_CURVE('',#264,#269,#33,.T.);
#226=EDGE_CURVE('',#269,#268,#34,.T.);
#227=EDGE_CURVE('',#268,#270,#294,.T.);
#228=EDGE_CURVE('',#269,#271,#295,.T.);
#229=EDGE_CURVE('',#271,#270,#35,.T.);
#230=EDGE_CURVE('',#272,#270,#36,.T.);
#231=EDGE_CURVE('',#273,#271,#37,.T.);
#232=EDGE_CURVE('',#273,#272,#38,.T.);
#233=EDGE_CURVE('',#272,#274,#296,.T.);
#234=EDGE_CURVE('',#273,#275,#297,.T.);
#235=EDGE_CURVE('',#275,#274,#39,.T.);
#236=EDGE_CURVE('',#276,#276,#298,.T.);
#237=EDGE_CURVE('',#277,#277,#299,.T.);
#238=EDGE_CURVE('',#266,#274,#40,.T.);
#239=EDGE_CURVE('',#267,#275,#41,.T.);
#240=EDGE_CURVE('',#278,#278,#300,.T.);
#241=VERTEX_POINT('',#598);
#242=VERTEX_POINT('',#600);
#243=VERTEX_POINT('',#603);
#244=VERTEX_POINT('',#606);
#245=VERTEX_POINT('',#607);
#246=VERTEX_POINT('',#609);
#247=VERTEX_POINT('',#611);
#248=VERTEX_POINT('',#613);
#249=VERTEX_POINT('',#615);
#250=VERTEX_POINT('',#617);
#251=VERTEX_POINT('',#619);
#252=VERTEX_POINT('',#622);
#253=VERTEX_POINT('',#625);
#254=VERTEX_POINT('',#628);
#255=VERTEX_POINT('',#630);
#256=VERTEX_POINT('',#633);
#257=VERTEX_POINT('',#635);
#258=VERTEX_POINT('',#639);
#259=VERTEX_POINT('',#640);
#260=VERTEX_POINT('',#645);
#261=VERTEX_POINT('',#647);
#262=VERTEX_POINT('',#651);
#263=VERTEX_POINT('',#653);
#264=VERTEX_POINT('',#657);
#265=VERTEX_POINT('',#658);
#266=VERTEX_POINT('',#660);
#267=VERTEX_POINT('',#662);
#268=VERTEX_POINT('',#670);
#269=VERTEX_POINT('',#672);
#270=VERTEX_POINT('',#676);
#271=VERTEX_POINT('',#678);
#272=VERTEX_POINT('',#682);
#273=VERTEX_POINT('',#684);
#274=VERTEX_POINT('',#688);
#275=VERTEX_POINT('',#690);
#276=VERTEX_POINT('',#694);
#277=VERTEX_POINT('',#696);
#278=VERTEX_POINT('',#704);
#279=CIRCLE('',#426,0.00165);
#280=CIRCLE('',#427,0.00165);
#281=CIRCLE('',#429,0.002);
#282=CIRCLE('',#431,0.002);
#283=CIRCLE('',#432,0.002);
#284=CIRCLE('',#433,0.002);
#285=CIRCLE('',#434,0.002);
#286=CIRCLE('',#435,0.00165);
#287=CIRCLE('',#437,0.002);
#288=CIRCLE('',#439,0.002);
#289=CIRCLE('',#440,0.002);
#290=CIRCLE('',#446,0.002);
#291=CIRCLE('',#447,0.002);
#292=CIRCLE('',#448,0.002);
#293=CIRCLE('',#449,0.002);
#294=CIRCLE('',#452,0.003);
#295=CIRCLE('',#453,0.003);
#296=CIRCLE('',#456,0.003);
#297=CIRCLE('',#457,0.003);
#298=CIRCLE('',#459,0.00215);
#299=CIRCLE('',#460,0.00215);
#300=CIRCLE('',#465,0.00165);
#301=EDGE_LOOP('',(#85));
#302=EDGE_LOOP('',(#86));
#303=EDGE_LOOP('',(#87));
#304=EDGE_LOOP('',(#88));
#305=EDGE_LOOP('',(#89));
#306=EDGE_LOOP('',(#90,#91,#92,#93,#94,#95,#96,#97));
#307=EDGE_LOOP('',(#98));
#308=EDGE_LOOP('',(#99));
#309=EDGE_LOOP('',(#100));
#310=EDGE_LOOP('',(#101));
#311=EDGE_LOOP('',(#102));
#312=EDGE_LOOP('',(#103,#104,#105,#106));
#313=EDGE_LOOP('',(#107,#108,#109,#110));
#314=EDGE_LOOP('',(#111,#112,#113,#114));
#315=EDGE_LOOP('',(#115,#116,#117,#118));
#316=EDGE_LOOP('',(#119,#120,#121,#122));
#317=EDGE_LOOP('',(#123));
#318=EDGE_LOOP('',(#124));
#319=EDGE_LOOP('',(#125,#126,#127,#128,#129,#130,#131,#132));
#320=EDGE_LOOP('',(#133,#134,#135,#136));
#321=EDGE_LOOP('',(#137,#138,#139,#140));
#322=EDGE_LOOP('',(#141,#142,#143,#144));
#323=EDGE_LOOP('',(#145,#146,#147,#148));
#324=EDGE_LOOP('',(#149));
#325=EDGE_LOOP('',(#150));
#326=EDGE_LOOP('',(#151,#152,#153,#154));
#327=EDGE_LOOP('',(#155));
#328=EDGE_LOOP('',(#156,#157,#158,#159,#160,#161));
#329=EDGE_LOOP('',(#162));
#330=EDGE_LOOP('',(#163,#164,#165,#166,#167,#168));
#331=EDGE_LOOP('',(#169));
#332=EDGE_LOOP('',(#170));
#333=EDGE_LOOP('',(#171));
#334=EDGE_LOOP('',(#172));
#335=EDGE_LOOP('',(#173,#174,#175,#176));
#336=EDGE_LOOP('',(#177,#178,#179,#180));
#337=EDGE_LOOP('',(#181,#182,#183,#184));
#338=EDGE_LOOP('',(#185,#186,#187,#188));
#339=FACE_BOUND('',#301,.T.);
#340=FACE_BOUND('',#302,.T.);
#341=FACE_BOUND('',#303,.T.);
#342=FACE_BOUND('',#304,.T.);
#343=FACE_BOUND('',#305,.T.);
#344=FACE_BOUND('',#306,.T.);
#345=FACE_BOUND('',#307,.T.);
#346=FACE_BOUND('',#308,.T.);
#347=FACE_BOUND('',#309,.T.);
#348=FACE_BOUND('',#310,.T.);
#349=FACE_BOUND('',#311,.T.);
#350=FACE_BOUND('',#312,.T.);
#351=FACE_BOUND('',#313,.T.);
#352=FACE_BOUND('',#314,.T.);
#353=FACE_BOUND('',#315,.T.);
#354=FACE_BOUND('',#316,.T.);
#355=FACE_BOUND('',#317,.T.);
#356=FACE_BOUND('',#318,.T.);
#357=FACE_BOUND('',#319,.T.);
#358=FACE_BOUND('',#320,.T.);
#359=FACE_BOUND('',#321,.T.);
#360=FACE_BOUND('',#322,.T.);
#361=FACE_BOUND('',#323,.T.);
#362=FACE_BOUND('',#324,.T.);
#363=FACE_BOUND('',#325,.T.);
#364=FACE_BOUND('',#326,.T.);
#365=FACE_BOUND('',#327,.T.);
#366=FACE_BOUND('',#328,.T.);
#367=FACE_BOUND('',#329,.T.);
#368=FACE_BOUND('',#330,.T.);
#369=FACE_BOUND('',#331,.T.);
#370=FACE_BOUND('',#332,.T.);
#371=FACE_BOUND('',#333,.T.);
#372=FACE_BOUND('',#334,.T.);
#373=FACE_BOUND('',#335,.T.);
#374=FACE_BOUND('',#336,.T.);
#375=FACE_BOUND('',#337,.T.);
#376=FACE_BOUND('',#338,.T.);
#377=CYLINDRICAL_SURFACE('',#425,0.00165);
#378=CYLINDRICAL_SURFACE('',#436,0.002);
#379=CYLINDRICAL_SURFACE('',#438,0.002);
#380=CYLINDRICAL_SURFACE('',#451,0.003);
#381=CYLINDRICAL_SURFACE('',#455,0.003);
#382=CYLINDRICAL_SURFACE('',#458,0.00215);
#383=CYLINDRICAL_SURFACE('',#464,0.00165);
#384=CYLINDRICAL_SURFACE('',#467,0.002);
#385=CYLINDRICAL_SURFACE('',#468,0.002);
#386=CYLINDRICAL_SURFACE('',#469,0.002);
#387=CYLINDRICAL_SURFACE('',#470,0.002);
#388=ADVANCED_FACE('',(#339,#340),#377,.F.);
#389=ADVANCED_FACE('',(#341,#342),#72,.F.);
#390=ADVANCED_FACE('',(#343,#344,#345),#73,.T.);
#391=ADVANCED_FACE('',(#346,#347),#378,.F.);
#392=ADVANCED_FACE('',(#348,#349),#379,.F.);
#393=ADVANCED_FACE('',(#350),#74,.F.);
#394=ADVANCED_FACE('',(#351),#75,.T.);
#395=ADVANCED_FACE('',(#352),#76,.T.);
#396=ADVANCED_FACE('',(#353),#77,.F.);
#397=ADVANCED_FACE('',(#354,#355,#356,#357),#78,.F.);
#398=ADVANCED_FACE('',(#358),#79,.T.);
#399=ADVANCED_FACE('',(#359),#380,.T.);
#400=ADVANCED_FACE('',(#360),#80,.F.);
#401=ADVANCED_FACE('',(#361),#381,.T.);
#402=ADVANCED_FACE('',(#362,#363),#382,.F.);
#403=ADVANCED_FACE('',(#364),#81,.F.);
#404=ADVANCED_FACE('',(#365,#366),#82,.F.);
#405=ADVANCED_FACE('',(#367,#368),#83,.T.);
#406=ADVANCED_FACE('',(#369,#370),#383,.F.);
#407=ADVANCED_FACE('',(#371,#372),#84,.F.);
#408=ADVANCED_FACE('',(#373),#384,.T.);
#409=ADVANCED_FACE('',(#374),#385,.T.);
#410=ADVANCED_FACE('',(#375),#386,.T.);
#411=ADVANCED_FACE('',(#376),#387,.T.);
#412=CLOSED_SHELL('',(#388,#389,#390,#391,#392,#393,#394,#395,#396,#397,
#398,#399,#400,#401,#402,#403,#404,#405,#406,#407,#408,#409,#410,#411));
#413=STYLED_ITEM('',(#414),#421);
#414=PRESENTATION_STYLE_ASSIGNMENT((#415));
#415=SURFACE_STYLE_USAGE(.BOTH.,#416);
#416=SURFACE_SIDE_STYLE('',(#417));
#417=SURFACE_STYLE_FILL_AREA(#418);
#418=FILL_AREA_STYLE('',(#419));
#419=FILL_AREA_STYLE_COLOUR('',#420);
#420=COLOUR_RGB('',0.917647058823529,0.917647058823529,0.917647058823529);
#421=MANIFOLD_SOLID_BREP('Camera_Angle_Bracket',#412);
#422=SHAPE_DEFINITION_REPRESENTATION(#716,#423);
#423=SHAPE_REPRESENTATION('Camera_Angle_Bracket',(#424),#711);
#424=AXIS2_PLACEMENT_3D('',#595,#471,#472);
#425=AXIS2_PLACEMENT_3D('',#596,#473,#474);
#426=AXIS2_PLACEMENT_3D('',#597,#475,#476);
#427=AXIS2_PLACEMENT_3D('',#599,#477,#478);
#428=AXIS2_PLACEMENT_3D('',#601,#479,#480);
#429=AXIS2_PLACEMENT_3D('',#602,#481,#482);
#430=AXIS2_PLACEMENT_3D('',#604,#483,#484);
#431=AXIS2_PLACEMENT_3D('',#608,#486,#487);
#432=AXIS2_PLACEMENT_3D('',#612,#489,#490);
#433=AXIS2_PLACEMENT_3D('',#616,#492,#493);
#434=AXIS2_PLACEMENT_3D('',#620,#495,#496);
#435=AXIS2_PLACEMENT_3D('',#621,#497,#498);
#436=AXIS2_PLACEMENT_3D('',#623,#499,#500);
#437=AXIS2_PLACEMENT_3D('',#624,#501,#502);
#438=AXIS2_PLACEMENT_3D('',#626,#503,#504);
#439=AXIS2_PLACEMENT_3D('',#627,#505,#506);
#440=AXIS2_PLACEMENT_3D('',#629,#507,#508);
#441=AXIS2_PLACEMENT_3D('',#631,#509,#510);
#442=AXIS2_PLACEMENT_3D('',#637,#514,#515);
#443=AXIS2_PLACEMENT_3D('',#643,#519,#520);
#444=AXIS2_PLACEMENT_3D('',#649,#524,#525);
#445=AXIS2_PLACEMENT_3D('',#655,#529,#530);
#446=AXIS2_PLACEMENT_3D('',#664,#535,#536);
#447=AXIS2_PLACEMENT_3D('',#665,#537,#538);
#448=AXIS2_PLACEMENT_3D('',#666,#539,#540);
#449=AXIS2_PLACEMENT_3D('',#667,#541,#542);
#450=AXIS2_PLACEMENT_3D('',#668,#543,#544);
#451=AXIS2_PLACEMENT_3D('',#674,#548,#549);
#452=AXIS2_PLACEMENT_3D('',#675,#550,#551);
#453=AXIS2_PLACEMENT_3D('',#677,#552,#553);
#454=AXIS2_PLACEMENT_3D('',#680,#555,#556);
#455=AXIS2_PLACEMENT_3D('',#686,#560,#561);
#456=AXIS2_PLACEMENT_3D('',#687,#562,#563);
#457=AXIS2_PLACEMENT_3D('',#689,#564,#565);
#458=AXIS2_PLACEMENT_3D('',#692,#567,#568);
#459=AXIS2_PLACEMENT_3D('',#693,#569,#570);
#460=AXIS2_PLACEMENT_3D('',#695,#571,#572);
#461=AXIS2_PLACEMENT_3D('',#697,#573,#574);
#462=AXIS2_PLACEMENT_3D('',#700,#577,#578);
#463=AXIS2_PLACEMENT_3D('',#701,#579,#580);
#464=AXIS2_PLACEMENT_3D('',#702,#581,#582);
#465=AXIS2_PLACEMENT_3D('',#703,#583,#584);
#466=AXIS2_PLACEMENT_3D('',#705,#585,#586);
#467=AXIS2_PLACEMENT_3D('',#706,#587,#588);
#468=AXIS2_PLACEMENT_3D('',#707,#589,#590);
#469=AXIS2_PLACEMENT_3D('',#708,#591,#592);
#470=AXIS2_PLACEMENT_3D('',#709,#593,#594);
#471=DIRECTION('',(0.,0.,1.));
#472=DIRECTION('',(1.,0.,0.));
#473=DIRECTION('',(0.,0.,1.));
#474=DIRECTION('',(1.,0.,0.));
#475=DIRECTION('',(0.,0.,1.));
#476=DIRECTION('',(1.,0.,0.));
#477=DIRECTION('',(0.,0.,1.));
#478=DIRECTION('',(1.,0.,0.));
#479=DIRECTION('',(0.,0.,1.));
#480=DIRECTION('',(1.,0.,0.));
#481=DIRECTION('',(0.,0.,1.));
#482=DIRECTION('',(1.,0.,0.));
#483=DIRECTION('',(0.,0.,1.));
#484=DIRECTION('',(1.,0.,0.));
#485=DIRECTION('',(0.,1.,0.));
#486=DIRECTION('',(0.,0.,1.));
#487=DIRECTION('',(1.,0.,0.));
#488=DIRECTION('',(-1.,-1.22128592027105E-16,0.));
#489=DIRECTION('',(0.,0.,1.));
#490=DIRECTION('',(1.,0.,0.));
#491=DIRECTION('',(0.,1.,0.));
#492=DIRECTION('',(0.,0.,1.));
#493=DIRECTION('',(1.,0.,0.));
#494=DIRECTION('',(-1.,-1.59514895708872E-16,0.));
#495=DIRECTION('',(0.,0.,1.));
#496=DIRECTION('',(1.,0.,0.));
#497=DIRECTION('',(0.,0.,1.));
#498=DIRECTION('',(1.,0.,0.));
#499=DIRECTION('',(0.,0.,1.));
#500=DIRECTION('',(1.,0.,0.));
#501=DIRECTION('',(0.,0.,1.));
#502=DIRECTION('',(1.,0.,0.));
#503=DIRECTION('',(0.,0.,1.));
#504=DIRECTION('',(1.,0.,0.));
#505=DIRECTION('',(0.,0.,1.));
#506=DIRECTION('',(1.,0.,0.));
#507=DIRECTION('',(0.,0.,1.));
#508=DIRECTION('',(1.,0.,0.));
#509=DIRECTION('',(-1.59514895708872E-16,1.,0.));
#510=DIRECTION('',(-1.,-1.59514895708872E-16,0.));
#511=DIRECTION('',(0.,0.,1.));
#512=DIRECTION('',(-1.,-1.59514895708872E-16,0.));
#513=DIRECTION('',(0.,0.,1.));
#514=DIRECTION('',(1.,0.,0.));
#515=DIRECTION('',(0.,0.,-1.));
#516=DIRECTION('',(0.,1.,0.));
#517=DIRECTION('',(0.,0.,1.));
#518=DIRECTION('',(0.,0.,1.));
#519=DIRECTION('',(-1.22128592027105E-16,1.,0.));
#520=DIRECTION('',(-1.,-1.22128592027105E-16,0.));
#521=DIRECTION('',(0.,0.,1.));
#522=DIRECTION('',(-1.,-1.22128592027105E-16,0.));
#523=DIRECTION('',(0.,0.,1.));
#524=DIRECTION('',(1.,0.,0.));
#525=DIRECTION('',(0.,0.,-1.));
#526=DIRECTION('',(0.,0.,1.));
#527=DIRECTION('',(0.,1.,0.));
#528=DIRECTION('',(0.,0.,1.));
#529=DIRECTION('',(0.,0.,1.));
#530=DIRECTION('',(1.,0.,0.));
#531=DIRECTION('',(1.,0.,0.));
#532=DIRECTION('',(0.,1.,0.));
#533=DIRECTION('',(1.,0.,0.));
#534=DIRECTION('',(0.,1.,0.));
#535=DIRECTION('',(0.,0.,1.));
#536=DIRECTION('',(1.,0.,0.));
#537=DIRECTION('',(0.,0.,1.));
#538=DIRECTION('',(1.,0.,0.));
#539=DIRECTION('',(0.,0.,1.));
#540=DIRECTION('',(1.,0.,0.));
#541=DIRECTION('',(0.,0.,1.));
#542=DIRECTION('',(1.,0.,0.));
#543=DIRECTION('',(0.,-1.,-2.89120579329468E-16));
#544=DIRECTION('',(0.,2.89120579329468E-16,-1.));
#545=DIRECTION('',(0.,2.89120579329468E-16,-1.));
#546=DIRECTION('',(0.,2.89120579329468E-16,-1.));
#547=DIRECTION('',(1.,0.,0.));
#548=DIRECTION('',(1.,0.,0.));
#549=DIRECTION('',(0.,0.,-1.));
#550=DIRECTION('',(1.,0.,0.));
#551=DIRECTION('',(0.,0.,-1.));
#552=DIRECTION('',(1.,0.,0.));
#553=DIRECTION('',(0.,0.,-1.));
#554=DIRECTION('',(1.,0.,0.));
#555=DIRECTION('',(0.,0.,1.));
#556=DIRECTION('',(1.,0.,0.));
#557=DIRECTION('',(0.,-1.,0.));
#558=DIRECTION('',(0.,-1.,0.));
#559=DIRECTION('',(1.,0.,0.));
#560=DIRECTION('',(1.,0.,0.));
#561=DIRECTION('',(0.,0.,-1.));
#562=DIRECTION('',(1.,0.,0.));
#563=DIRECTION('',(0.,0.,-1.));
#564=DIRECTION('',(1.,0.,0.));
#565=DIRECTION('',(0.,0.,-1.));
#566=DIRECTION('',(1.,0.,0.));
#567=DIRECTION('',(1.,0.,0.));
#568=DIRECTION('',(0.,0.,-1.));
#569=DIRECTION('',(1.,0.,0.));
#570=DIRECTION('',(0.,0.,-1.));
#571=DIRECTION('',(1.,0.,0.));
#572=DIRECTION('',(0.,0.,-1.));
#573=DIRECTION('',(0.,-1.,-2.89120579329468E-16));
#574=DIRECTION('',(0.,2.89120579329468E-16,-1.));
#575=DIRECTION('',(0.,2.89120579329468E-16,-1.));
#576=DIRECTION('',(0.,2.89120579329468E-16,-1.));
#577=DIRECTION('',(1.,0.,0.));
#578=DIRECTION('',(0.,1.,0.));
#579=DIRECTION('',(1.,0.,0.));
#580=DIRECTION('',(0.,1.,0.));
#581=DIRECTION('',(0.,0.,1.));
#582=DIRECTION('',(1.,0.,0.));
#583=DIRECTION('',(0.,0.,1.));
#584=DIRECTION('',(1.,0.,0.));
#585=DIRECTION('',(0.,0.,1.));
#586=DIRECTION('',(1.,0.,0.));
#587=DIRECTION('',(0.,0.,1.));
#588=DIRECTION('',(1.,0.,0.));
#589=DIRECTION('',(0.,0.,-1.));
#590=DIRECTION('',(-1.,0.,0.));
#591=DIRECTION('',(0.,0.,1.));
#592=DIRECTION('',(1.,0.,0.));
#593=DIRECTION('',(0.,0.,-1.));
#594=DIRECTION('',(-1.,0.,0.));
#595=CARTESIAN_POINT('',(0.,0.,0.));
#596=CARTESIAN_POINT('',(0.078499949102826,-0.0156580338964781,0.001));
#597=CARTESIAN_POINT('',(0.078499949102826,-0.0156580338964781,0.001));
#598=CARTESIAN_POINT('',(0.080149949102826,-0.0156580338964781,0.001));
#599=CARTESIAN_POINT('',(0.078499949102826,-0.0156580338964781,0.003));
#600=CARTESIAN_POINT('',(0.080149949102826,-0.0156580338964781,0.003));
#601=CARTESIAN_POINT('',(0.040999974551413,-0.0156580338964781,0.001));
#602=CARTESIAN_POINT('',(0.078499949102826,-0.0156580338964781,0.001));
#603=CARTESIAN_POINT('',(0.080499949102826,-0.0156580338964781,0.001));
#604=CARTESIAN_POINT('',(0.040999974551413,-0.0156580338964781,0.003));
#605=CARTESIAN_POINT('',(0.0844999491028259,-0.0156580338964781,0.003));
#606=CARTESIAN_POINT('',(0.0844999491028259,-0.0286580338964781,0.003));
#607=CARTESIAN_POINT('',(0.0844999491028259,-0.0026580338964781,0.003));
#608=CARTESIAN_POINT('',(0.0824999491028259,-0.0026580338964781,0.003));
#609=CARTESIAN_POINT('',(0.0824999491028259,-0.000658033896478094,0.003));
#610=CARTESIAN_POINT('',(0.040999974551413,-0.000658033896478099,0.003));
#611=CARTESIAN_POINT('',(-0.0005,-0.000658033896478104,0.003));
#612=CARTESIAN_POINT('',(-0.0005,-0.00265803389647811,0.003));
#613=CARTESIAN_POINT('',(-0.0025,-0.00265803389647811,0.003));
#614=CARTESIAN_POINT('',(-0.0025,-0.0156580338964781,0.003));
#615=CARTESIAN_POINT('',(-0.0025,-0.0286580338964781,0.003));
#616=CARTESIAN_POINT('',(-0.0005,-0.0286580338964781,0.003));
#617=CARTESIAN_POINT('',(-0.0005,-0.0306580338964781,0.003));
#618=CARTESIAN_POINT('',(0.040999974551413,-0.0306580338964781,0.003));
#619=CARTESIAN_POINT('',(0.0824999491028259,-0.0306580338964781,0.003));
#620=CARTESIAN_POINT('',(0.0824999491028259,-0.0286580338964781,0.003));
#621=CARTESIAN_POINT('',(0.0035,-0.0156580338964781,0.003));
#622=CARTESIAN_POINT('',(0.00515,-0.0156580338964781,0.003));
#623=CARTESIAN_POINT('',(0.078499949102826,-0.0156580338964781,-0.003));
#624=CARTESIAN_POINT('',(0.078499949102826,-0.0156580338964781,-0.003));
#625=CARTESIAN_POINT('',(0.080499949102826,-0.0156580338964781,-0.003));
#626=CARTESIAN_POINT('',(0.0035,-0.0156580338964781,-0.003));
#627=CARTESIAN_POINT('',(0.0035,-0.0156580338964781,-0.003));
#628=CARTESIAN_POINT('',(0.0055,-0.0156580338964781,-0.003));
#629=CARTESIAN_POINT('',(0.0035,-0.0156580338964781,0.001));
#630=CARTESIAN_POINT('',(0.0055,-0.0156580338964781,0.001));
#631=CARTESIAN_POINT('',(0.040999974551413,-0.0306580338964781,-0.003));
#632=CARTESIAN_POINT('',(-0.0005,-0.0306580338964781,-0.003));
#633=CARTESIAN_POINT('',(-0.0005,-0.0306580338964781,-0.003));
#634=CARTESIAN_POINT('',(0.040999974551413,-0.0306580338964781,-0.003));
#635=CARTESIAN_POINT('',(0.0824999491028259,-0.0306580338964781,-0.003));
#636=CARTESIAN_POINT('',(0.0824999491028259,-0.0306580338964781,0.003));
#637=CARTESIAN_POINT('',(0.0844999491028259,-0.0156580338964781,-0.003));
#638=CARTESIAN_POINT('',(0.0844999491028259,-0.0156580338964781,-0.003));
#639=CARTESIAN_POINT('',(0.0844999491028259,-0.0286580338964781,-0.003));
#640=CARTESIAN_POINT('',(0.0844999491028259,-0.0026580338964781,-0.003));
#641=CARTESIAN_POINT('',(0.0844999491028259,-0.0026580338964781,-0.003));
#642=CARTESIAN_POINT('',(0.0844999491028259,-0.0286580338964781,-0.003));
#643=CARTESIAN_POINT('',(0.040999974551413,-0.000658033896478099,-0.003));
#644=CARTESIAN_POINT('',(0.0824999491028259,-0.000658033896478094,-0.003));
#645=CARTESIAN_POINT('',(0.0824999491028259,-0.000658033896478094,-0.003));
#646=CARTESIAN_POINT('',(0.040999974551413,-0.000658033896478099,-0.003));
#647=CARTESIAN_POINT('',(-0.0005,-0.000658033896478104,-0.003));
#648=CARTESIAN_POINT('',(-0.0005,-0.000658033896478104,0.003));
#649=CARTESIAN_POINT('',(-0.0025,-0.0156580338964781,-0.003));
#650=CARTESIAN_POINT('',(-0.0025,-0.00265803389647811,-0.003));
#651=CARTESIAN_POINT('',(-0.0025,-0.00265803389647811,-0.003));
#652=CARTESIAN_POINT('',(-0.0025,-0.0156580338964781,-0.003));
#653=CARTESIAN_POINT('',(-0.0025,-0.0286580338964781,-0.003));
#654=CARTESIAN_POINT('',(-0.0025,-0.0286580338964781,-0.003));
#655=CARTESIAN_POINT('',(0.040999974551413,-0.0156580338964781,-0.003));
#656=CARTESIAN_POINT('',(0.0359999491028259,-0.0206580338964781,-0.003));
#657=CARTESIAN_POINT('',(0.0359999491028259,-0.0206580338964781,-0.003));
#658=CARTESIAN_POINT('',(0.0459999491028259,-0.0206580338964781,-0.003));
#659=CARTESIAN_POINT('',(0.0459999491028259,-0.0156580338964781,-0.003));
#660=CARTESIAN_POINT('',(0.0459999491028259,-0.0106580338964781,-0.003));
#661=CARTESIAN_POINT('',(0.0359999491028259,-0.0106580338964781,-0.003));
#662=CARTESIAN_POINT('',(0.0359999491028259,-0.0106580338964781,-0.003));
#663=CARTESIAN_POINT('',(0.0359999491028259,-0.0156580338964781,-0.003));
#664=CARTESIAN_POINT('',(0.0824999491028259,-0.0026580338964781,-0.003));
#665=CARTESIAN_POINT('',(0.0824999491028259,-0.0286580338964781,-0.003));
#666=CARTESIAN_POINT('',(-0.0005,-0.0286580338964781,-0.003));
#667=CARTESIAN_POINT('',(-0.0005,-0.00265803389647811,-0.003));
#668=CARTESIAN_POINT('',(0.0359999491028259,-0.0206580338964781,-0.009));
#669=CARTESIAN_POINT('',(0.0459999491028259,-0.0206580338964781,-0.009));
#670=CARTESIAN_POINT('',(0.0459999491028259,-0.0206580338964781,-0.015));
#671=CARTESIAN_POINT('',(0.0359999491028259,-0.0206580338964781,-0.009));
#672=CARTESIAN_POINT('',(0.0359999491028259,-0.0206580338964781,-0.015));
#673=CARTESIAN_POINT('',(0.0359999491028259,-0.0206580338964781,-0.015));
#674=CARTESIAN_POINT('',(0.0359999491028259,-0.0176580338964781,-0.015));
#675=CARTESIAN_POINT('',(0.0459999491028259,-0.0176580338964781,-0.015));
#676=CARTESIAN_POINT('',(0.0459999491028259,-0.0176580338964781,-0.018));
#677=CARTESIAN_POINT('',(0.0359999491028259,-0.0176580338964781,-0.015));
#678=CARTESIAN_POINT('',(0.0359999491028259,-0.0176580338964781,-0.018));
#679=CARTESIAN_POINT('',(0.0359999491028259,-0.0176580338964781,-0.018));
#680=CARTESIAN_POINT('',(0.0359999491028259,-0.0156580338964781,-0.018));
#681=CARTESIAN_POINT('',(0.0459999491028259,-0.0156580338964781,-0.018));
#682=CARTESIAN_POINT('',(0.0459999491028259,-0.0136580338964781,-0.018));
#683=CARTESIAN_POINT('',(0.0359999491028259,-0.0156580338964781,-0.018));
#684=CARTESIAN_POINT('',(0.0359999491028259,-0.0136580338964781,-0.018));
#685=CARTESIAN_POINT('',(0.0359999491028259,-0.0136580338964781,-0.018));
#686=CARTESIAN_POINT('',(0.0359999491028259,-0.0136580338964781,-0.015));
#687=CARTESIAN_POINT('',(0.0459999491028259,-0.0136580338964781,-0.015));
#688=CARTESIAN_POINT('',(0.0459999491028259,-0.0106580338964781,-0.015));
#689=CARTESIAN_POINT('',(0.0359999491028259,-0.0136580338964781,-0.015));
#690=CARTESIAN_POINT('',(0.0359999491028259,-0.0106580338964781,-0.015));
#691=CARTESIAN_POINT('',(0.0359999491028259,-0.0106580338964781,-0.015));
#692=CARTESIAN_POINT('',(0.0359999491028259,-0.0156580338964781,-0.0133));
#693=CARTESIAN_POINT('',(0.0359999491028259,-0.0156580338964781,-0.0133));
#694=CARTESIAN_POINT('',(0.0359999491028259,-0.0156580338964781,-0.01545));
#695=CARTESIAN_POINT('',(0.0459999491028259,-0.0156580338964781,-0.0133));
#696=CARTESIAN_POINT('',(0.0459999491028259,-0.0156580338964781,-0.01545));
#697=CARTESIAN_POINT('',(0.0359999491028259,-0.0106580338964781,-0.009));
#698=CARTESIAN_POINT('',(0.0459999491028259,-0.0106580338964781,-0.009));
#699=CARTESIAN_POINT('',(0.0359999491028259,-0.0106580338964781,-0.009));
#700=CARTESIAN_POINT('',(0.0359999491028259,-0.0173486691159272,-0.0075));
#701=CARTESIAN_POINT('',(0.0459999491028259,-0.0173486691159272,-0.0075));
#702=CARTESIAN_POINT('',(0.0035,-0.0156580338964781,0.001));
#703=CARTESIAN_POINT('',(0.0035,-0.0156580338964781,0.001));
#704=CARTESIAN_POINT('',(0.00515,-0.0156580338964781,0.001));
#705=CARTESIAN_POINT('',(0.040999974551413,-0.0156580338964781,0.001));
#706=CARTESIAN_POINT('',(0.0824999491028259,-0.0026580338964781,-0.003));
#707=CARTESIAN_POINT('',(-0.0005,-0.00265803389647811,-0.003));
#708=CARTESIAN_POINT('',(-0.0005,-0.0286580338964781,-0.003));
#709=CARTESIAN_POINT('',(0.0824999491028259,-0.0286580338964781,-0.003));
#710=MECHANICAL_DESIGN_GEOMETRIC_PRESENTATION_REPRESENTATION('',(#413),
#711);
#711=(
GEOMETRIC_REPRESENTATION_CONTEXT(3)
GLOBAL_UNCERTAINTY_ASSIGNED_CONTEXT((#712))
GLOBAL_UNIT_ASSIGNED_CONTEXT((#715,#714,#713))
REPRESENTATION_CONTEXT('Camera_Angle_Bracket','TOP_LEVEL_ASSEMBLY_PART')
);
#712=UNCERTAINTY_MEASURE_WITH_UNIT(LENGTH_MEASURE(1.E-8),#715,
'DISTANCE_ACCURACY_VALUE','Maximum Tolerance applied to model');
#713=(
NAMED_UNIT(*)
SI_UNIT($,.STERADIAN.)
SOLID_ANGLE_UNIT()
);
#714=(
NAMED_UNIT(*)
PLANE_ANGLE_UNIT()
SI_UNIT($,.RADIAN.)
);
#715=(
LENGTH_UNIT()
NAMED_UNIT(*)
SI_UNIT($,.METRE.)
);
#716=PRODUCT_DEFINITION_SHAPE('','',#717);
#717=PRODUCT_DEFINITION('','',#719,#718);
#718=PRODUCT_DEFINITION_CONTEXT('',#725,'design');
#719=PRODUCT_DEFINITION_FORMATION_WITH_SPECIFIED_SOURCE('','',#721,
 .NOT_KNOWN.);
#720=PRODUCT_RELATED_PRODUCT_CATEGORY('','',(#721));
#721=PRODUCT('Camera_Angle_Bracket','Camera_Angle_Bracket',
'Camera_Angle_Bracket',(#723));
#722=PRODUCT_CATEGORY('','');
#723=PRODUCT_CONTEXT('',#725,'mechanical');
#724=APPLICATION_PROTOCOL_DEFINITION('international standard',
'ap242_managed_model_based_3d_engineering',2020,#725);
#725=APPLICATION_CONTEXT('managed model based 3d engineering');
ENDSEC;
END-ISO-10303-21;
