ISO-10303-21;
HEADER;
/* Generated by software containing ST-Developer
 * from STEP Tools, Inc. (www.steptools.com) 
 */
/* OPTION: using custom renumber hook */

FILE_DESCRIPTION(
/* description */ ('STEP AP242 Edition 2',
'CAx-IF Rec.Pracs.---Representation and Presentation of Product Manufa
cturing Information (PMI)---4.0---2014-10-13',
'CAx-IF Rec.Pracs.---3D Tessellated Geometry---0.4---2014-09-14','2;1',
'CAx-IF Rec.Pracs.---User Defined Attributes---1.5---2016-08-15'),
/* implementation_level */ '2;1');

FILE_NAME(
/* name */ 'Servo_To_Chassis_V2 - Motor_To_Chassis',
/* time_stamp */ '2026-09-03T00:28:02Z',
/* author */ (''),
/* organization */ (''),
/* preprocessor_version */ 'ST-DEVELOPER v20',
/* originating_system */ 'ONSHAPE BY PTC INC, 1.220',
/* authorisation */ '  ');

FILE_SCHEMA (('AP242_MANAGED_MODEL_BASED_3D_ENGINEERING_MIM_LF { 1 0 10303 442 3 1 4 }'));
ENDSEC;

DATA;
#10=SHAPE_REPRESENTATION_RELATIONSHIP('','',#558,#11);
#11=ADVANCED_BREP_SHAPE_REPRESENTATION('',(#556),#968);
#12=TOROIDAL_SURFACE('',#610,0.005,0.002);
#13=TOROIDAL_SURFACE('',#618,0.005,0.002);
#14=SPHERICAL_SURFACE('',#599,0.002);
#15=SPHERICAL_SURFACE('',#608,0.002);
#16=SPHERICAL_SURFACE('',#620,0.002);
#17=SPHERICAL_SURFACE('',#626,0.002);
#18=CYLINDRICAL_SURFACE('',#576,0.00165);
#19=CYLINDRICAL_SURFACE('',#578,0.00165);
#20=CYLINDRICAL_SURFACE('',#580,0.00165);
#21=CYLINDRICAL_SURFACE('',#584,0.00165);
#22=CYLINDRICAL_SURFACE('',#590,0.00165);
#23=CYLINDRICAL_SURFACE('',#592,0.00165);
#24=CYLINDRICAL_SURFACE('',#594,0.003);
#25=CYLINDRICAL_SURFACE('',#597,0.002);
#26=CYLINDRICAL_SURFACE('',#602,0.002);
#27=CYLINDRICAL_SURFACE('',#604,0.002);
#28=CYLINDRICAL_SURFACE('',#606,0.002);
#29=CYLINDRICAL_SURFACE('',#612,0.002);
#30=CYLINDRICAL_SURFACE('',#614,0.002);
#31=CYLINDRICAL_SURFACE('',#616,0.002);
#32=CYLINDRICAL_SURFACE('',#622,0.002);
#33=CYLINDRICAL_SURFACE('',#624,0.002);
#34=CYLINDRICAL_SURFACE('',#628,0.002);
#35=CYLINDRICAL_SURFACE('',#629,0.002);
#36=CYLINDRICAL_SURFACE('',#632,0.002);
#37=LINE('',#822,#66);
#38=LINE('',#827,#67);
#39=LINE('',#829,#68);
#40=LINE('',#831,#69);
#41=LINE('',#835,#70);
#42=LINE('',#838,#71);
#43=LINE('',#840,#72);
#44=LINE('',#842,#73);
#45=LINE('',#856,#74);
#46=LINE('',#859,#75);
#47=LINE('',#861,#76);
#48=LINE('',#863,#77);
#49=LINE('',#865,#78);
#50=LINE('',#868,#79);
#51=LINE('',#869,#80);
#52=LINE('',#871,#81);
#53=LINE('',#873,#82);
#54=LINE('',#877,#83);
#55=LINE('',#880,#84);
#56=LINE('',#882,#85);
#57=LINE('',#884,#86);
#58=LINE('',#895,#87);
#59=LINE('',#897,#88);
#60=LINE('',#901,#89);
#61=LINE('',#903,#90);
#62=LINE('',#905,#91);
#63=LINE('',#913,#92);
#64=LINE('',#916,#93);
#65=LINE('',#917,#94);
#66=VECTOR('',#643,1.);
#67=VECTOR('',#646,1.);
#68=VECTOR('',#647,1.);
#69=VECTOR('',#648,1.);
#70=VECTOR('',#653,1.);
#71=VECTOR('',#654,1.);
#72=VECTOR('',#655,1.);
#73=VECTOR('',#656,1.);
#74=VECTOR('',#671,1.);
#75=VECTOR('',#672,1.);
#76=VECTOR('',#673,1.);
#77=VECTOR('',#674,1.);
#78=VECTOR('',#677,1.);
#79=VECTOR('',#678,1.);
#80=VECTOR('',#679,1.);
#81=VECTOR('',#680,1.);
#82=VECTOR('',#681,1.);
#83=VECTOR('',#686,1.);
#84=VECTOR('',#687,1.);
#85=VECTOR('',#688,1.);
#86=VECTOR('',#689,1.);
#87=VECTOR('',#704,1.);
#88=VECTOR('',#705,1.);
#89=VECTOR('',#708,1.);
#90=VECTOR('',#709,1.);
#91=VECTOR('',#710,1.);
#92=VECTOR('',#723,1.);
#93=VECTOR('',#724,1.);
#94=VECTOR('',#725,1.);
#95=ORIENTED_EDGE('',*,*,#233,.T.);
#96=ORIENTED_EDGE('',*,*,#234,.T.);
#97=ORIENTED_EDGE('',*,*,#235,.T.);
#98=ORIENTED_EDGE('',*,*,#236,.T.);
#99=ORIENTED_EDGE('',*,*,#237,.T.);
#100=ORIENTED_EDGE('',*,*,#238,.F.);
#101=ORIENTED_EDGE('',*,*,#239,.F.);
#102=ORIENTED_EDGE('',*,*,#240,.T.);
#103=ORIENTED_EDGE('',*,*,#241,.T.);
#104=ORIENTED_EDGE('',*,*,#242,.T.);
#105=ORIENTED_EDGE('',*,*,#243,.T.);
#106=ORIENTED_EDGE('',*,*,#244,.T.);
#107=ORIENTED_EDGE('',*,*,#245,.F.);
#108=ORIENTED_EDGE('',*,*,#246,.T.);
#109=ORIENTED_EDGE('',*,*,#247,.F.);
#110=ORIENTED_EDGE('',*,*,#248,.F.);
#111=ORIENTED_EDGE('',*,*,#249,.F.);
#112=ORIENTED_EDGE('',*,*,#250,.F.);
#113=ORIENTED_EDGE('',*,*,#251,.T.);
#114=ORIENTED_EDGE('',*,*,#252,.T.);
#115=ORIENTED_EDGE('',*,*,#253,.T.);
#116=ORIENTED_EDGE('',*,*,#254,.T.);
#117=ORIENTED_EDGE('',*,*,#255,.T.);
#118=ORIENTED_EDGE('',*,*,#256,.T.);
#119=ORIENTED_EDGE('',*,*,#239,.T.);
#120=ORIENTED_EDGE('',*,*,#257,.F.);
#121=ORIENTED_EDGE('',*,*,#258,.T.);
#122=ORIENTED_EDGE('',*,*,#259,.T.);
#123=ORIENTED_EDGE('',*,*,#260,.T.);
#124=ORIENTED_EDGE('',*,*,#261,.T.);
#125=ORIENTED_EDGE('',*,*,#262,.T.);
#126=ORIENTED_EDGE('',*,*,#263,.F.);
#127=ORIENTED_EDGE('',*,*,#264,.T.);
#128=ORIENTED_EDGE('',*,*,#249,.T.);
#129=ORIENTED_EDGE('',*,*,#265,.F.);
#130=ORIENTED_EDGE('',*,*,#248,.T.);
#131=ORIENTED_EDGE('',*,*,#266,.F.);
#132=ORIENTED_EDGE('',*,*,#247,.T.);
#133=ORIENTED_EDGE('',*,*,#267,.F.);
#134=ORIENTED_EDGE('',*,*,#237,.F.);
#135=ORIENTED_EDGE('',*,*,#268,.T.);
#136=ORIENTED_EDGE('',*,*,#269,.T.);
#137=ORIENTED_EDGE('',*,*,#270,.T.);
#138=ORIENTED_EDGE('',*,*,#271,.T.);
#139=ORIENTED_EDGE('',*,*,#272,.T.);
#140=ORIENTED_EDGE('',*,*,#273,.T.);
#141=ORIENTED_EDGE('',*,*,#250,.T.);
#142=ORIENTED_EDGE('',*,*,#274,.F.);
#143=ORIENTED_EDGE('',*,*,#263,.T.);
#144=ORIENTED_EDGE('',*,*,#275,.T.);
#145=ORIENTED_EDGE('',*,*,#257,.T.);
#146=ORIENTED_EDGE('',*,*,#238,.T.);
#147=ORIENTED_EDGE('',*,*,#273,.F.);
#148=ORIENTED_EDGE('',*,*,#276,.T.);
#149=ORIENTED_EDGE('',*,*,#267,.T.);
#150=ORIENTED_EDGE('',*,*,#266,.T.);
#151=ORIENTED_EDGE('',*,*,#265,.T.);
#152=ORIENTED_EDGE('',*,*,#274,.T.);
#153=ORIENTED_EDGE('',*,*,#277,.T.);
#154=ORIENTED_EDGE('',*,*,#278,.T.);
#155=ORIENTED_EDGE('',*,*,#235,.F.);
#156=ORIENTED_EDGE('',*,*,#279,.T.);
#157=ORIENTED_EDGE('',*,*,#280,.F.);
#158=ORIENTED_EDGE('',*,*,#245,.T.);
#159=ORIENTED_EDGE('',*,*,#281,.T.);
#160=ORIENTED_EDGE('',*,*,#246,.F.);
#161=ORIENTED_EDGE('',*,*,#253,.F.);
#162=ORIENTED_EDGE('',*,*,#282,.T.);
#163=ORIENTED_EDGE('',*,*,#241,.F.);
#164=ORIENTED_EDGE('',*,*,#283,.T.);
#165=ORIENTED_EDGE('',*,*,#284,.F.);
#166=ORIENTED_EDGE('',*,*,#258,.F.);
#167=ORIENTED_EDGE('',*,*,#275,.F.);
#168=ORIENTED_EDGE('',*,*,#262,.F.);
#169=ORIENTED_EDGE('',*,*,#285,.F.);
#170=ORIENTED_EDGE('',*,*,#284,.T.);
#171=ORIENTED_EDGE('',*,*,#286,.F.);
#172=ORIENTED_EDGE('',*,*,#276,.F.);
#173=ORIENTED_EDGE('',*,*,#272,.F.);
#174=ORIENTED_EDGE('',*,*,#287,.F.);
#175=ORIENTED_EDGE('',*,*,#264,.F.);
#176=ORIENTED_EDGE('',*,*,#286,.T.);
#177=ORIENTED_EDGE('',*,*,#261,.F.);
#178=ORIENTED_EDGE('',*,*,#288,.F.);
#179=ORIENTED_EDGE('',*,*,#251,.F.);
#180=ORIENTED_EDGE('',*,*,#285,.T.);
#181=ORIENTED_EDGE('',*,*,#254,.F.);
#182=ORIENTED_EDGE('',*,*,#289,.F.);
#183=ORIENTED_EDGE('',*,*,#259,.F.);
#184=ORIENTED_EDGE('',*,*,#288,.T.);
#185=ORIENTED_EDGE('',*,*,#287,.T.);
#186=ORIENTED_EDGE('',*,*,#290,.F.);
#187=ORIENTED_EDGE('',*,*,#289,.T.);
#188=ORIENTED_EDGE('',*,*,#283,.F.);
#189=ORIENTED_EDGE('',*,*,#291,.F.);
#190=ORIENTED_EDGE('',*,*,#260,.F.);
#191=ORIENTED_EDGE('',*,*,#290,.T.);
#192=ORIENTED_EDGE('',*,*,#271,.F.);
#193=ORIENTED_EDGE('',*,*,#292,.F.);
#194=ORIENTED_EDGE('',*,*,#252,.F.);
#195=ORIENTED_EDGE('',*,*,#291,.T.);
#196=ORIENTED_EDGE('',*,*,#244,.F.);
#197=ORIENTED_EDGE('',*,*,#293,.F.);
#198=ORIENTED_EDGE('',*,*,#255,.F.);
#199=ORIENTED_EDGE('',*,*,#240,.F.);
#200=ORIENTED_EDGE('',*,*,#256,.F.);
#201=ORIENTED_EDGE('',*,*,#294,.F.);
#202=ORIENTED_EDGE('',*,*,#279,.F.);
#203=ORIENTED_EDGE('',*,*,#292,.T.);
#204=ORIENTED_EDGE('',*,*,#270,.F.);
#205=ORIENTED_EDGE('',*,*,#295,.F.);
#206=ORIENTED_EDGE('',*,*,#282,.F.);
#207=ORIENTED_EDGE('',*,*,#294,.T.);
#208=ORIENTED_EDGE('',*,*,#293,.T.);
#209=ORIENTED_EDGE('',*,*,#296,.F.);
#210=ORIENTED_EDGE('',*,*,#295,.T.);
#211=ORIENTED_EDGE('',*,*,#269,.F.);
#212=ORIENTED_EDGE('',*,*,#297,.F.);
#213=ORIENTED_EDGE('',*,*,#242,.F.);
#214=ORIENTED_EDGE('',*,*,#296,.T.);
#215=ORIENTED_EDGE('',*,*,#243,.F.);
#216=ORIENTED_EDGE('',*,*,#298,.F.);
#217=ORIENTED_EDGE('',*,*,#277,.F.);
#218=ORIENTED_EDGE('',*,*,#298,.T.);
#219=ORIENTED_EDGE('',*,*,#297,.T.);
#220=ORIENTED_EDGE('',*,*,#299,.F.);
#221=ORIENTED_EDGE('',*,*,#299,.T.);
#222=ORIENTED_EDGE('',*,*,#268,.F.);
#223=ORIENTED_EDGE('',*,*,#236,.F.);
#224=ORIENTED_EDGE('',*,*,#278,.F.);
#225=ORIENTED_EDGE('',*,*,#234,.F.);
#226=ORIENTED_EDGE('',*,*,#300,.T.);
#227=ORIENTED_EDGE('',*,*,#300,.F.);
#228=ORIENTED_EDGE('',*,*,#281,.F.);
#229=ORIENTED_EDGE('',*,*,#233,.F.);
#230=ORIENTED_EDGE('',*,*,#301,.T.);
#231=ORIENTED_EDGE('',*,*,#280,.T.);
#232=ORIENTED_EDGE('',*,*,#301,.F.);
#233=EDGE_CURVE('',#302,#302,#348,.T.);
#234=EDGE_CURVE('',#303,#303,#349,.T.);
#235=EDGE_CURVE('',#304,#305,#37,.T.);
#236=EDGE_CURVE('',#305,#306,#350,.T.);
#237=EDGE_CURVE('',#306,#307,#38,.T.);
#238=EDGE_CURVE('',#308,#307,#39,.T.);
#239=EDGE_CURVE('',#309,#308,#40,.T.);
#240=EDGE_CURVE('',#309,#304,#351,.T.);
#241=EDGE_CURVE('',#310,#311,#41,.F.);
#242=EDGE_CURVE('',#311,#312,#42,.F.);
#243=EDGE_CURVE('',#312,#313,#43,.T.);
#244=EDGE_CURVE('',#313,#310,#44,.T.);
#245=EDGE_CURVE('',#314,#314,#352,.T.);
#246=EDGE_CURVE('',#315,#315,#353,.T.);
#247=EDGE_CURVE('',#316,#316,#354,.T.);
#248=EDGE_CURVE('',#317,#317,#355,.T.);
#249=EDGE_CURVE('',#318,#318,#356,.T.);
#250=EDGE_CURVE('',#319,#319,#357,.T.);
#251=EDGE_CURVE('',#320,#321,#45,.F.);
#252=EDGE_CURVE('',#321,#322,#46,.T.);
#253=EDGE_CURVE('',#322,#323,#47,.T.);
#254=EDGE_CURVE('',#323,#320,#48,.F.);
#255=EDGE_CURVE('',#324,#325,#49,.F.);
#256=EDGE_CURVE('',#325,#309,#50,.T.);
#257=EDGE_CURVE('',#326,#308,#51,.T.);
#258=EDGE_CURVE('',#326,#327,#52,.F.);
#259=EDGE_CURVE('',#327,#328,#53,.T.);
#260=EDGE_CURVE('',#328,#324,#358,.F.);
#261=EDGE_CURVE('',#329,#330,#54,.T.);
#262=EDGE_CURVE('',#330,#331,#55,.T.);
#263=EDGE_CURVE('',#332,#331,#56,.T.);
#264=EDGE_CURVE('',#332,#329,#57,.F.);
#265=EDGE_CURVE('',#333,#333,#359,.T.);
#266=EDGE_CURVE('',#334,#334,#360,.T.);
#267=EDGE_CURVE('',#335,#335,#361,.T.);
#268=EDGE_CURVE('',#306,#336,#58,.F.);
#269=EDGE_CURVE('',#336,#337,#59,.T.);
#270=EDGE_CURVE('',#337,#338,#362,.T.);
#271=EDGE_CURVE('',#338,#339,#60,.F.);
#272=EDGE_CURVE('',#339,#340,#61,.T.);
#273=EDGE_CURVE('',#340,#307,#62,.T.);
#274=EDGE_CURVE('',#341,#341,#363,.T.);
#275=EDGE_CURVE('',#331,#326,#364,.F.);
#276=EDGE_CURVE('',#340,#332,#365,.F.);
#277=EDGE_CURVE('',#342,#343,#63,.F.);
#278=EDGE_CURVE('',#343,#305,#64,.T.);
#279=EDGE_CURVE('',#304,#342,#65,.F.);
#280=EDGE_CURVE('',#344,#344,#366,.T.);
#281=EDGE_CURVE('',#345,#345,#367,.T.);
#282=EDGE_CURVE('',#322,#311,#368,.F.);
#283=EDGE_CURVE('',#310,#323,#369,.T.);
#284=EDGE_CURVE('',#327,#330,#370,.T.);
#285=EDGE_CURVE('',#327,#320,#371,.F.);
#286=EDGE_CURVE('',#320,#330,#372,.F.);
#287=EDGE_CURVE('',#329,#339,#373,.T.);
#288=EDGE_CURVE('',#321,#329,#374,.T.);
#289=EDGE_CURVE('',#328,#323,#375,.T.);
#290=EDGE_CURVE('',#321,#339,#376,.F.);
#291=EDGE_CURVE('',#324,#310,#377,.T.);
#292=EDGE_CURVE('',#322,#338,#378,.T.);
#293=EDGE_CURVE('',#325,#313,#379,.T.);
#294=EDGE_CURVE('',#342,#325,#380,.T.);
#295=EDGE_CURVE('',#311,#337,#381,.T.);
#296=EDGE_CURVE('',#342,#313,#382,.F.);
#297=EDGE_CURVE('',#312,#336,#383,.T.);
#298=EDGE_CURVE('',#343,#312,#384,.T.);
#299=EDGE_CURVE('',#343,#336,#385,.F.);
#300=EDGE_CURVE('',#346,#346,#386,.T.);
#301=EDGE_CURVE('',#347,#347,#387,.T.);
#302=VERTEX_POINT('',#819);
#303=VERTEX_POINT('',#821);
#304=VERTEX_POINT('',#823);
#305=VERTEX_POINT('',#824);
#306=VERTEX_POINT('',#826);
#307=VERTEX_POINT('',#828);
#308=VERTEX_POINT('',#830);
#309=VERTEX_POINT('',#832);
#310=VERTEX_POINT('',#836);
#311=VERTEX_POINT('',#837);
#312=VERTEX_POINT('',#839);
#313=VERTEX_POINT('',#841);
#314=VERTEX_POINT('',#844);
#315=VERTEX_POINT('',#846);
#316=VERTEX_POINT('',#849);
#317=VERTEX_POINT('',#851);
#318=VERTEX_POINT('',#853);
#319=VERTEX_POINT('',#855);
#320=VERTEX_POINT('',#857);
#321=VERTEX_POINT('',#858);
#322=VERTEX_POINT('',#860);
#323=VERTEX_POINT('',#862);
#324=VERTEX_POINT('',#866);
#325=VERTEX_POINT('',#867);
#326=VERTEX_POINT('',#870);
#327=VERTEX_POINT('',#872);
#328=VERTEX_POINT('',#874);
#329=VERTEX_POINT('',#878);
#330=VERTEX_POINT('',#879);
#331=VERTEX_POINT('',#881);
#332=VERTEX_POINT('',#883);
#333=VERTEX_POINT('',#887);
#334=VERTEX_POINT('',#890);
#335=VERTEX_POINT('',#893);
#336=VERTEX_POINT('',#896);
#337=VERTEX_POINT('',#898);
#338=VERTEX_POINT('',#900);
#339=VERTEX_POINT('',#902);
#340=VERTEX_POINT('',#904);
#341=VERTEX_POINT('',#908);
#342=VERTEX_POINT('',#914);
#343=VERTEX_POINT('',#915);
#344=VERTEX_POINT('',#920);
#345=VERTEX_POINT('',#923);
#346=VERTEX_POINT('',#961);
#347=VERTEX_POINT('',#965);
#348=CIRCLE('',#561,0.002);
#349=CIRCLE('',#562,0.002);
#350=CIRCLE('',#563,0.002);
#351=CIRCLE('',#564,0.002);
#352=CIRCLE('',#566,0.00165);
#353=CIRCLE('',#567,0.00165);
#354=CIRCLE('',#569,0.00165);
#355=CIRCLE('',#570,0.00165);
#356=CIRCLE('',#571,0.00165);
#357=CIRCLE('',#572,0.00165);
#358=CIRCLE('',#574,0.005);
#359=CIRCLE('',#577,0.00165);
#360=CIRCLE('',#579,0.00165);
#361=CIRCLE('',#581,0.00165);
#362=CIRCLE('',#583,0.005);
#363=CIRCLE('',#585,0.00165);
#364=CIRCLE('',#587,0.002);
#365=CIRCLE('',#588,0.002);
#366=CIRCLE('',#591,0.00165);
#367=CIRCLE('',#593,0.00165);
#368=CIRCLE('',#595,0.003);
#369=CIRCLE('',#596,0.003);
#370=CIRCLE('',#598,0.002);
#371=CIRCLE('',#600,0.002);
#372=CIRCLE('',#601,0.002);
#373=CIRCLE('',#603,0.002);
#374=CIRCLE('',#605,0.002);
#375=CIRCLE('',#607,0.002);
#376=CIRCLE('',#609,0.002);
#377=CIRCLE('',#611,0.002);
#378=CIRCLE('',#613,0.002);
#379=CIRCLE('',#615,0.002);
#380=CIRCLE('',#617,0.002);
#381=CIRCLE('',#619,0.002);
#382=CIRCLE('',#621,0.002);
#383=CIRCLE('',#623,0.002);
#384=CIRCLE('',#625,0.002);
#385=CIRCLE('',#627,0.002);
#386=CIRCLE('',#630,0.002);
#387=CIRCLE('',#633,0.002);
#388=EDGE_LOOP('',(#95));
#389=EDGE_LOOP('',(#96));
#390=EDGE_LOOP('',(#97,#98,#99,#100,#101,#102));
#391=EDGE_LOOP('',(#103,#104,#105,#106));
#392=EDGE_LOOP('',(#107));
#393=EDGE_LOOP('',(#108));
#394=EDGE_LOOP('',(#109));
#395=EDGE_LOOP('',(#110));
#396=EDGE_LOOP('',(#111));
#397=EDGE_LOOP('',(#112));
#398=EDGE_LOOP('',(#113,#114,#115,#116));
#399=EDGE_LOOP('',(#117,#118,#119,#120,#121,#122,#123));
#400=EDGE_LOOP('',(#124,#125,#126,#127));
#401=EDGE_LOOP('',(#128));
#402=EDGE_LOOP('',(#129));
#403=EDGE_LOOP('',(#130));
#404=EDGE_LOOP('',(#131));
#405=EDGE_LOOP('',(#132));
#406=EDGE_LOOP('',(#133));
#407=EDGE_LOOP('',(#134,#135,#136,#137,#138,#139,#140));
#408=EDGE_LOOP('',(#141));
#409=EDGE_LOOP('',(#142));
#410=EDGE_LOOP('',(#143,#144,#145,#146,#147,#148));
#411=EDGE_LOOP('',(#149));
#412=EDGE_LOOP('',(#150));
#413=EDGE_LOOP('',(#151));
#414=EDGE_LOOP('',(#152));
#415=EDGE_LOOP('',(#153,#154,#155,#156));
#416=EDGE_LOOP('',(#157));
#417=EDGE_LOOP('',(#158));
#418=EDGE_LOOP('',(#159));
#419=EDGE_LOOP('',(#160));
#420=EDGE_LOOP('',(#161,#162,#163,#164));
#421=EDGE_LOOP('',(#165,#166,#167,#168));
#422=EDGE_LOOP('',(#169,#170,#171));
#423=EDGE_LOOP('',(#172,#173,#174,#175));
#424=EDGE_LOOP('',(#176,#177,#178,#179));
#425=EDGE_LOOP('',(#180,#181,#182,#183));
#426=EDGE_LOOP('',(#184,#185,#186));
#427=EDGE_LOOP('',(#187,#188,#189,#190));
#428=EDGE_LOOP('',(#191,#192,#193,#194));
#429=EDGE_LOOP('',(#195,#196,#197,#198));
#430=EDGE_LOOP('',(#199,#200,#201,#202));
#431=EDGE_LOOP('',(#203,#204,#205,#206));
#432=EDGE_LOOP('',(#207,#208,#209));
#433=EDGE_LOOP('',(#210,#211,#212,#213));
#434=EDGE_LOOP('',(#214,#215,#216,#217));
#435=EDGE_LOOP('',(#218,#219,#220));
#436=EDGE_LOOP('',(#221,#222,#223,#224));
#437=EDGE_LOOP('',(#225));
#438=EDGE_LOOP('',(#226));
#439=EDGE_LOOP('',(#227));
#440=EDGE_LOOP('',(#228));
#441=EDGE_LOOP('',(#229));
#442=EDGE_LOOP('',(#230));
#443=EDGE_LOOP('',(#231));
#444=EDGE_LOOP('',(#232));
#445=FACE_BOUND('',#388,.T.);
#446=FACE_BOUND('',#389,.T.);
#447=FACE_BOUND('',#390,.T.);
#448=FACE_BOUND('',#391,.T.);
#449=FACE_BOUND('',#392,.T.);
#450=FACE_BOUND('',#393,.T.);
#451=FACE_BOUND('',#394,.T.);
#452=FACE_BOUND('',#395,.T.);
#453=FACE_BOUND('',#396,.T.);
#454=FACE_BOUND('',#397,.T.);
#455=FACE_BOUND('',#398,.T.);
#456=FACE_BOUND('',#399,.T.);
#457=FACE_BOUND('',#400,.T.);
#458=FACE_BOUND('',#401,.T.);
#459=FACE_BOUND('',#402,.T.);
#460=FACE_BOUND('',#403,.T.);
#461=FACE_BOUND('',#404,.T.);
#462=FACE_BOUND('',#405,.T.);
#463=FACE_BOUND('',#406,.T.);
#464=FACE_BOUND('',#407,.T.);
#465=FACE_BOUND('',#408,.T.);
#466=FACE_BOUND('',#409,.T.);
#467=FACE_BOUND('',#410,.T.);
#468=FACE_BOUND('',#411,.T.);
#469=FACE_BOUND('',#412,.T.);
#470=FACE_BOUND('',#413,.T.);
#471=FACE_BOUND('',#414,.T.);
#472=FACE_BOUND('',#415,.T.);
#473=FACE_BOUND('',#416,.T.);
#474=FACE_BOUND('',#417,.T.);
#475=FACE_BOUND('',#418,.T.);
#476=FACE_BOUND('',#419,.T.);
#477=FACE_BOUND('',#420,.T.);
#478=FACE_BOUND('',#421,.T.);
#479=FACE_BOUND('',#422,.T.);
#480=FACE_BOUND('',#423,.T.);
#481=FACE_BOUND('',#424,.T.);
#482=FACE_BOUND('',#425,.T.);
#483=FACE_BOUND('',#426,.T.);
#484=FACE_BOUND('',#427,.T.);
#485=FACE_BOUND('',#428,.T.);
#486=FACE_BOUND('',#429,.T.);
#487=FACE_BOUND('',#430,.T.);
#488=FACE_BOUND('',#431,.T.);
#489=FACE_BOUND('',#432,.T.);
#490=FACE_BOUND('',#433,.T.);
#491=FACE_BOUND('',#434,.T.);
#492=FACE_BOUND('',#435,.T.);
#493=FACE_BOUND('',#436,.T.);
#494=FACE_BOUND('',#437,.T.);
#495=FACE_BOUND('',#438,.T.);
#496=FACE_BOUND('',#439,.T.);
#497=FACE_BOUND('',#440,.T.);
#498=FACE_BOUND('',#441,.T.);
#499=FACE_BOUND('',#442,.T.);
#500=FACE_BOUND('',#443,.T.);
#501=FACE_BOUND('',#444,.T.);
#502=PLANE('',#560);
#503=PLANE('',#565);
#504=PLANE('',#568);
#505=PLANE('',#573);
#506=PLANE('',#575);
#507=PLANE('',#582);
#508=PLANE('',#586);
#509=PLANE('',#589);
#510=PLANE('',#631);
#511=PLANE('',#634);
#512=ADVANCED_FACE('',(#445,#446,#447),#502,.T.);
#513=ADVANCED_FACE('',(#448,#449,#450),#503,.T.);
#514=ADVANCED_FACE('',(#451,#452,#453,#454,#455),#504,.T.);
#515=ADVANCED_FACE('',(#456),#505,.T.);
#516=ADVANCED_FACE('',(#457),#506,.T.);
#517=ADVANCED_FACE('',(#458,#459),#18,.F.);
#518=ADVANCED_FACE('',(#460,#461),#19,.F.);
#519=ADVANCED_FACE('',(#462,#463),#20,.F.);
#520=ADVANCED_FACE('',(#464),#507,.F.);
#521=ADVANCED_FACE('',(#465,#466),#21,.F.);
#522=ADVANCED_FACE('',(#467,#468,#469,#470,#471),#508,.F.);
#523=ADVANCED_FACE('',(#472),#509,.T.);
#524=ADVANCED_FACE('',(#473,#474),#22,.F.);
#525=ADVANCED_FACE('',(#475,#476),#23,.F.);
#526=ADVANCED_FACE('',(#477),#24,.F.);
#527=ADVANCED_FACE('',(#478),#25,.T.);
#528=ADVANCED_FACE('',(#479),#14,.T.);
#529=ADVANCED_FACE('',(#480),#26,.T.);
#530=ADVANCED_FACE('',(#481),#27,.T.);
#531=ADVANCED_FACE('',(#482),#28,.T.);
#532=ADVANCED_FACE('',(#483),#15,.T.);
#533=ADVANCED_FACE('',(#484),#12,.T.);
#534=ADVANCED_FACE('',(#485),#29,.T.);
#535=ADVANCED_FACE('',(#486),#30,.T.);
#536=ADVANCED_FACE('',(#487),#31,.T.);
#537=ADVANCED_FACE('',(#488),#13,.T.);
#538=ADVANCED_FACE('',(#489),#16,.T.);
#539=ADVANCED_FACE('',(#490),#32,.T.);
#540=ADVANCED_FACE('',(#491),#33,.T.);
#541=ADVANCED_FACE('',(#492),#17,.T.);
#542=ADVANCED_FACE('',(#493),#34,.T.);
#543=ADVANCED_FACE('',(#494,#495),#35,.F.);
#544=ADVANCED_FACE('',(#496,#497),#510,.F.);
#545=ADVANCED_FACE('',(#498,#499),#36,.F.);
#546=ADVANCED_FACE('',(#500,#501),#511,.F.);
#547=CLOSED_SHELL('',(#512,#513,#514,#515,#516,#517,#518,#519,#520,#521,
#522,#523,#524,#525,#526,#527,#528,#529,#530,#531,#532,#533,#534,#535,#536,
#537,#538,#539,#540,#541,#542,#543,#544,#545,#546));
#548=STYLED_ITEM('',(#549),#556);
#549=PRESENTATION_STYLE_ASSIGNMENT((#550));
#550=SURFACE_STYLE_USAGE(.BOTH.,#551);
#551=SURFACE_SIDE_STYLE('',(#552));
#552=SURFACE_STYLE_FILL_AREA(#553);
#553=FILL_AREA_STYLE('',(#554));
#554=FILL_AREA_STYLE_COLOUR('',#555);
#555=COLOUR_RGB('',0.615686274509804,0.811764705882353,0.929411764705882);
#556=MANIFOLD_SOLID_BREP('Motor_To_Chassis',#547);
#557=SHAPE_DEFINITION_REPRESENTATION(#973,#558);
#558=SHAPE_REPRESENTATION('Motor_To_Chassis',(#559),#968);
#559=AXIS2_PLACEMENT_3D('',#816,#635,#636);
#560=AXIS2_PLACEMENT_3D('',#817,#637,#638);
#561=AXIS2_PLACEMENT_3D('',#818,#639,#640);
#562=AXIS2_PLACEMENT_3D('',#820,#641,#642);
#563=AXIS2_PLACEMENT_3D('',#825,#644,#645);
#564=AXIS2_PLACEMENT_3D('',#833,#649,#650);
#565=AXIS2_PLACEMENT_3D('',#834,#651,#652);
#566=AXIS2_PLACEMENT_3D('',#843,#657,#658);
#567=AXIS2_PLACEMENT_3D('',#845,#659,#660);
#568=AXIS2_PLACEMENT_3D('',#847,#661,#662);
#569=AXIS2_PLACEMENT_3D('',#848,#663,#664);
#570=AXIS2_PLACEMENT_3D('',#850,#665,#666);
#571=AXIS2_PLACEMENT_3D('',#852,#667,#668);
#572=AXIS2_PLACEMENT_3D('',#854,#669,#670);
#573=AXIS2_PLACEMENT_3D('',#864,#675,#676);
#574=AXIS2_PLACEMENT_3D('',#875,#682,#683);
#575=AXIS2_PLACEMENT_3D('',#876,#684,#685);
#576=AXIS2_PLACEMENT_3D('',#885,#690,#691);
#577=AXIS2_PLACEMENT_3D('',#886,#692,#693);
#578=AXIS2_PLACEMENT_3D('',#888,#694,#695);
#579=AXIS2_PLACEMENT_3D('',#889,#696,#697);
#580=AXIS2_PLACEMENT_3D('',#891,#698,#699);
#581=AXIS2_PLACEMENT_3D('',#892,#700,#701);
#582=AXIS2_PLACEMENT_3D('',#894,#702,#703);
#583=AXIS2_PLACEMENT_3D('',#899,#706,#707);
#584=AXIS2_PLACEMENT_3D('',#906,#711,#712);
#585=AXIS2_PLACEMENT_3D('',#907,#713,#714);
#586=AXIS2_PLACEMENT_3D('',#909,#715,#716);
#587=AXIS2_PLACEMENT_3D('',#910,#717,#718);
#588=AXIS2_PLACEMENT_3D('',#911,#719,#720);
#589=AXIS2_PLACEMENT_3D('',#912,#721,#722);
#590=AXIS2_PLACEMENT_3D('',#918,#726,#727);
#591=AXIS2_PLACEMENT_3D('',#919,#728,#729);
#592=AXIS2_PLACEMENT_3D('',#921,#730,#731);
#593=AXIS2_PLACEMENT_3D('',#922,#732,#733);
#594=AXIS2_PLACEMENT_3D('',#924,#734,#735);
#595=AXIS2_PLACEMENT_3D('',#925,#736,#737);
#596=AXIS2_PLACEMENT_3D('',#926,#738,#739);
#597=AXIS2_PLACEMENT_3D('',#927,#740,#741);
#598=AXIS2_PLACEMENT_3D('',#928,#742,#743);
#599=AXIS2_PLACEMENT_3D('',#929,#744,#745);
#600=AXIS2_PLACEMENT_3D('',#930,#746,#747);
#601=AXIS2_PLACEMENT_3D('',#931,#748,#749);
#602=AXIS2_PLACEMENT_3D('',#932,#750,#751);
#603=AXIS2_PLACEMENT_3D('',#933,#752,#753);
#604=AXIS2_PLACEMENT_3D('',#934,#754,#755);
#605=AXIS2_PLACEMENT_3D('',#935,#756,#757);
#606=AXIS2_PLACEMENT_3D('',#936,#758,#759);
#607=AXIS2_PLACEMENT_3D('',#937,#760,#761);
#608=AXIS2_PLACEMENT_3D('',#938,#762,#763);
#609=AXIS2_PLACEMENT_3D('',#939,#764,#765);
#610=AXIS2_PLACEMENT_3D('',#940,#766,#767);
#611=AXIS2_PLACEMENT_3D('',#941,#768,#769);
#612=AXIS2_PLACEMENT_3D('',#942,#770,#771);
#613=AXIS2_PLACEMENT_3D('',#943,#772,#773);
#614=AXIS2_PLACEMENT_3D('',#944,#774,#775);
#615=AXIS2_PLACEMENT_3D('',#945,#776,#777);
#616=AXIS2_PLACEMENT_3D('',#946,#778,#779);
#617=AXIS2_PLACEMENT_3D('',#947,#780,#781);
#618=AXIS2_PLACEMENT_3D('',#948,#782,#783);
#619=AXIS2_PLACEMENT_3D('',#949,#784,#785);
#620=AXIS2_PLACEMENT_3D('',#950,#786,#787);
#621=AXIS2_PLACEMENT_3D('',#951,#788,#789);
#622=AXIS2_PLACEMENT_3D('',#952,#790,#791);
#623=AXIS2_PLACEMENT_3D('',#953,#792,#793);
#624=AXIS2_PLACEMENT_3D('',#954,#794,#795);
#625=AXIS2_PLACEMENT_3D('',#955,#796,#797);
#626=AXIS2_PLACEMENT_3D('',#956,#798,#799);
#627=AXIS2_PLACEMENT_3D('',#957,#800,#801);
#628=AXIS2_PLACEMENT_3D('',#958,#802,#803);
#629=AXIS2_PLACEMENT_3D('',#959,#804,#805);
#630=AXIS2_PLACEMENT_3D('',#960,#806,#807);
#631=AXIS2_PLACEMENT_3D('',#962,#808,#809);
#632=AXIS2_PLACEMENT_3D('',#963,#810,#811);
#633=AXIS2_PLACEMENT_3D('',#964,#812,#813);
#634=AXIS2_PLACEMENT_3D('',#966,#814,#815);
#635=DIRECTION('',(0.,0.,1.));
#636=DIRECTION('',(1.,0.,0.));
#637=DIRECTION('',(0.,-1.,0.));
#638=DIRECTION('',(0.,0.,-1.));
#639=DIRECTION('',(-1.15648231731787E-16,1.,0.));
#640=DIRECTION('',(-1.,-1.15648231731787E-16,0.));
#641=DIRECTION('',(-1.15648231731787E-16,1.,0.));
#642=DIRECTION('',(-1.,-1.15648231731787E-16,0.));
#643=DIRECTION('',(-1.,0.,0.));
#644=DIRECTION('',(0.,-1.,0.));
#645=DIRECTION('',(0.,0.,-1.));
#646=DIRECTION('',(0.,0.,-1.));
#647=DIRECTION('',(-1.,0.,0.));
#648=DIRECTION('',(0.,0.,-1.));
#649=DIRECTION('',(0.,-1.,0.));
#650=DIRECTION('',(0.,0.,-1.));
#651=DIRECTION('',(-1.15648231731787E-16,1.,0.));
#652=DIRECTION('',(-1.,-1.15648231731787E-16,0.));
#653=DIRECTION('',(1.,1.15648231731787E-16,0.));
#654=DIRECTION('',(0.,0.,-1.));
#655=DIRECTION('',(1.,1.15648231731787E-16,0.));
#656=DIRECTION('',(0.,0.,-1.));
#657=DIRECTION('',(-1.15648231731787E-16,1.,0.));
#658=DIRECTION('',(-1.,-1.15648231731787E-16,0.));
#659=DIRECTION('',(1.15648231731787E-16,-1.,0.));
#660=DIRECTION('',(-1.,-1.15648231731787E-16,0.));
#661=DIRECTION('',(0.,0.,1.));
#662=DIRECTION('',(1.,0.,0.));
#663=DIRECTION('',(0.,0.,1.));
#664=DIRECTION('',(1.,0.,0.));
#665=DIRECTION('',(0.,0.,1.));
#666=DIRECTION('',(1.,0.,0.));
#667=DIRECTION('',(0.,0.,1.));
#668=DIRECTION('',(1.,0.,0.));
#669=DIRECTION('',(0.,0.,1.));
#670=DIRECTION('',(1.,0.,0.));
#671=DIRECTION('',(1.,2.31296463463574E-16,0.));
#672=DIRECTION('',(-4.95635278850516E-17,-1.,0.));
#673=DIRECTION('',(1.,1.15648231731787E-16,0.));
#674=DIRECTION('',(-4.95635278850516E-17,-1.,0.));
#675=DIRECTION('',(1.,-4.95635278850516E-17,0.));
#676=DIRECTION('',(4.95635278850516E-17,1.,0.));
#677=DIRECTION('',(0.,0.,-1.));
#678=DIRECTION('',(-4.95635278850516E-17,-1.,0.));
#679=DIRECTION('',(-4.95635278850516E-17,-1.,0.));
#680=DIRECTION('',(0.,0.,-1.));
#681=DIRECTION('',(-4.95635278850516E-17,-1.,0.));
#682=DIRECTION('',(1.,-4.95635278850516E-17,0.));
#683=DIRECTION('',(4.95635278850516E-17,1.,0.));
#684=DIRECTION('',(-2.31296463463574E-16,1.,0.));
#685=DIRECTION('',(-1.,-2.31296463463574E-16,0.));
#686=DIRECTION('',(1.,2.31296463463574E-16,0.));
#687=DIRECTION('',(0.,0.,-1.));
#688=DIRECTION('',(1.,2.31296463463574E-16,0.));
#689=DIRECTION('',(0.,0.,-1.));
#690=DIRECTION('',(0.,0.,-1.));
#691=DIRECTION('',(-1.,0.,0.));
#692=DIRECTION('',(0.,0.,1.));
#693=DIRECTION('',(1.,0.,0.));
#694=DIRECTION('',(0.,0.,-1.));
#695=DIRECTION('',(-1.,0.,0.));
#696=DIRECTION('',(0.,0.,1.));
#697=DIRECTION('',(1.,0.,0.));
#698=DIRECTION('',(0.,0.,-1.));
#699=DIRECTION('',(-1.,0.,0.));
#700=DIRECTION('',(0.,0.,1.));
#701=DIRECTION('',(1.,0.,0.));
#702=DIRECTION('',(1.,-4.95635278850516E-17,0.));
#703=DIRECTION('',(4.95635278850516E-17,1.,0.));
#704=DIRECTION('',(-4.95635278850516E-17,-1.,0.));
#705=DIRECTION('',(0.,0.,-1.));
#706=DIRECTION('',(1.,-4.95635278850516E-17,0.));
#707=DIRECTION('',(4.95635278850516E-17,1.,0.));
#708=DIRECTION('',(-4.95635278850516E-17,-1.,0.));
#709=DIRECTION('',(0.,0.,-1.));
#710=DIRECTION('',(-4.95635278850516E-17,-1.,0.));
#711=DIRECTION('',(0.,0.,-1.));
#712=DIRECTION('',(-1.,0.,0.));
#713=DIRECTION('',(0.,0.,1.));
#714=DIRECTION('',(1.,0.,0.));
#715=DIRECTION('',(0.,0.,1.));
#716=DIRECTION('',(1.,0.,0.));
#717=DIRECTION('',(0.,0.,1.));
#718=DIRECTION('',(1.,0.,0.));
#719=DIRECTION('',(0.,0.,1.));
#720=DIRECTION('',(1.,0.,0.));
#721=DIRECTION('',(0.,0.,1.));
#722=DIRECTION('',(1.,0.,0.));
#723=DIRECTION('',(1.,1.15648231731787E-16,0.));
#724=DIRECTION('',(-4.95635278850516E-17,-1.,0.));
#725=DIRECTION('',(-4.95635278850516E-17,-1.,0.));
#726=DIRECTION('',(-1.15648231731787E-16,1.,0.));
#727=DIRECTION('',(-1.,-1.15648231731787E-16,0.));
#728=DIRECTION('',(-1.15648231731787E-16,1.,0.));
#729=DIRECTION('',(-1.,-1.15648231731787E-16,0.));
#730=DIRECTION('',(-1.15648231731787E-16,1.,0.));
#731=DIRECTION('',(-1.,-1.15648231731787E-16,0.));
#732=DIRECTION('',(1.15648231731787E-16,-1.,0.));
#733=DIRECTION('',(-1.,-1.15648231731787E-16,0.));
#734=DIRECTION('',(-1.,-1.15648231731787E-16,0.));
#735=DIRECTION('',(1.15648231731787E-16,-1.,0.));
#736=DIRECTION('',(1.,-4.95635278850516E-17,0.));
#737=DIRECTION('',(4.95635278850516E-17,1.,0.));
#738=DIRECTION('',(1.,-4.95635278850516E-17,0.));
#739=DIRECTION('',(4.95635278850516E-17,1.,0.));
#740=DIRECTION('',(0.,0.,-1.));
#741=DIRECTION('',(-1.,0.,0.));
#742=DIRECTION('',(0.,0.,1.));
#743=DIRECTION('',(1.,0.,0.));
#744=DIRECTION('',(0.,1.,0.));
#745=DIRECTION('',(0.,0.,1.));
#746=DIRECTION('',(0.,1.,0.));
#747=DIRECTION('',(0.,0.,1.));
#748=DIRECTION('',(1.,0.,-8.67361737988404E-16));
#749=DIRECTION('',(-8.67361737988404E-16,0.,-1.));
#750=DIRECTION('',(0.,0.,1.));
#751=DIRECTION('',(1.,0.,0.));
#752=DIRECTION('',(0.,0.,1.));
#753=DIRECTION('',(1.,0.,0.));
#754=DIRECTION('',(1.,2.31296463463574E-16,0.));
#755=DIRECTION('',(-2.31296463463574E-16,1.,0.));
#756=DIRECTION('',(-1.,-8.67361737988404E-16,0.));
#757=DIRECTION('',(8.67361737988404E-16,-1.,0.));
#758=DIRECTION('',(-4.95635278850516E-17,-1.,0.));
#759=DIRECTION('',(1.,-4.95635278850516E-17,0.));
#760=DIRECTION('',(0.,-1.,0.));
#761=DIRECTION('',(0.,0.,-1.));
#762=DIRECTION('',(0.,1.,0.));
#763=DIRECTION('',(0.,0.,1.));
#764=DIRECTION('',(0.,1.,0.));
#765=DIRECTION('',(0.,0.,1.));
#766=DIRECTION('',(1.,-4.95635278850516E-17,0.));
#767=DIRECTION('',(4.95635278850516E-17,1.,0.));
#768=DIRECTION('',(0.,0.,1.));
#769=DIRECTION('',(1.,0.,0.));
#770=DIRECTION('',(4.95635278850516E-17,1.,0.));
#771=DIRECTION('',(-1.,4.95635278850516E-17,0.));
#772=DIRECTION('',(0.,-1.,0.));
#773=DIRECTION('',(0.,0.,-1.));
#774=DIRECTION('',(0.,0.,-1.));
#775=DIRECTION('',(-1.,0.,0.));
#776=DIRECTION('',(0.,8.67361737988404E-16,1.));
#777=DIRECTION('',(0.,-1.,8.67361737988404E-16));
#778=DIRECTION('',(-4.95635278850516E-17,-1.,0.));
#779=DIRECTION('',(1.,-4.95635278850516E-17,0.));
#780=DIRECTION('',(0.,1.,0.));
#781=DIRECTION('',(0.,0.,1.));
#782=DIRECTION('',(1.,-4.95635278850516E-17,0.));
#783=DIRECTION('',(4.95635278850516E-17,1.,0.));
#784=DIRECTION('',(0.,0.,1.));
#785=DIRECTION('',(1.,0.,0.));
#786=DIRECTION('',(1.,0.,8.67361737988404E-16));
#787=DIRECTION('',(8.67361737988404E-16,0.,-1.));
#788=DIRECTION('',(1.,0.,0.));
#789=DIRECTION('',(0.,0.,-1.));
#790=DIRECTION('',(0.,0.,1.));
#791=DIRECTION('',(1.,0.,0.));
#792=DIRECTION('',(0.,0.,1.));
#793=DIRECTION('',(1.,0.,0.));
#794=DIRECTION('',(1.,1.15648231731787E-16,0.));
#795=DIRECTION('',(-1.15648231731787E-16,1.,0.));
#796=DIRECTION('',(-1.,8.67361737988404E-16,0.));
#797=DIRECTION('',(-8.67361737988404E-16,-1.,0.));
#798=DIRECTION('',(0.,1.,0.));
#799=DIRECTION('',(0.,0.,1.));
#800=DIRECTION('',(0.,1.,0.));
#801=DIRECTION('',(0.,0.,1.));
#802=DIRECTION('',(4.95635278850516E-17,1.,0.));
#803=DIRECTION('',(-1.,4.95635278850516E-17,0.));
#804=DIRECTION('',(-1.15648231731787E-16,1.,0.));
#805=DIRECTION('',(-1.,-1.15648231731787E-16,0.));
#806=DIRECTION('',(-1.15648231731787E-16,1.,0.));
#807=DIRECTION('',(-1.,-1.15648231731787E-16,0.));
#808=DIRECTION('',(-1.15648231731787E-16,1.,0.));
#809=DIRECTION('',(-1.,-1.15648231731787E-16,0.));
#810=DIRECTION('',(-1.15648231731787E-16,1.,0.));
#811=DIRECTION('',(-1.,-1.15648231731787E-16,0.));
#812=DIRECTION('',(-1.15648231731787E-16,1.,0.));
#813=DIRECTION('',(-1.,-1.15648231731787E-16,0.));
#814=DIRECTION('',(-1.15648231731787E-16,1.,0.));
#815=DIRECTION('',(-1.,-1.15648231731787E-16,0.));
#816=CARTESIAN_POINT('',(0.,0.,0.));
#817=CARTESIAN_POINT('',(0.,-0.01919,0.005));
#818=CARTESIAN_POINT('',(0.005,-0.01919,0.011));
#819=CARTESIAN_POINT('',(0.003,-0.01919,0.011));
#820=CARTESIAN_POINT('',(-0.005,-0.01919,0.011));
#821=CARTESIAN_POINT('',(-0.007,-0.01919,0.011));
#822=CARTESIAN_POINT('',(0.,-0.01919,0.017));
#823=CARTESIAN_POINT('',(0.013,-0.01919,0.017));
#824=CARTESIAN_POINT('',(-0.013,-0.01919,0.017));
#825=CARTESIAN_POINT('',(-0.013,-0.01919,0.015));
#826=CARTESIAN_POINT('',(-0.015,-0.01919,0.015));
#827=CARTESIAN_POINT('',(-0.015,-0.01919,0.005));
#828=CARTESIAN_POINT('',(-0.015,-0.01919,0.));
#829=CARTESIAN_POINT('',(0.,-0.01919,0.));
#830=CARTESIAN_POINT('',(0.015,-0.01919,0.));
#831=CARTESIAN_POINT('',(0.015,-0.01919,0.005));
#832=CARTESIAN_POINT('',(0.015,-0.01919,0.015));
#833=CARTESIAN_POINT('',(0.013,-0.01919,0.015));
#834=CARTESIAN_POINT('',(0.,-0.01319,0.017));
#835=CARTESIAN_POINT('',(-0.015,-0.01319,0.008));
#836=CARTESIAN_POINT('',(0.013,-0.01319,0.008));
#837=CARTESIAN_POINT('',(-0.013,-0.01319,0.008));
#838=CARTESIAN_POINT('',(-0.013,-0.01319,0.017));
#839=CARTESIAN_POINT('',(-0.013,-0.01319,0.015));
#840=CARTESIAN_POINT('',(0.,-0.01319,0.015));
#841=CARTESIAN_POINT('',(0.013,-0.01319,0.015));
#842=CARTESIAN_POINT('',(0.013,-0.01319,0.017));
#843=CARTESIAN_POINT('',(0.005,-0.01319,0.011));
#844=CARTESIAN_POINT('',(0.00335,-0.01319,0.011));
#845=CARTESIAN_POINT('',(-0.005,-0.01319,0.011));
#846=CARTESIAN_POINT('',(-0.00665,-0.01319,0.011));
#847=CARTESIAN_POINT('',(0.,-0.00169,0.005));
#848=CARTESIAN_POINT('',(0.007,1.01033360929657E-19,0.005));
#849=CARTESIAN_POINT('',(0.00865,1.01033360929657E-19,0.005));
#850=CARTESIAN_POINT('',(-1.01033360929657E-19,0.007,0.005));
#851=CARTESIAN_POINT('',(0.00165,0.007,0.005));
#852=CARTESIAN_POINT('',(-0.007,-1.01033360929657E-19,0.005));
#853=CARTESIAN_POINT('',(-0.00535,-1.01033360929657E-19,0.005));
#854=CARTESIAN_POINT('',(-1.63369011504715E-18,-0.007,0.005));
#855=CARTESIAN_POINT('',(0.00165,-0.007,0.005));
#856=CARTESIAN_POINT('',(-3.5850951836854E-18,0.01381,0.005));
#857=CARTESIAN_POINT('',(0.013,0.01381,0.005));
#858=CARTESIAN_POINT('',(-0.013,0.01381,0.005));
#859=CARTESIAN_POINT('',(-0.013,-0.01019,0.005));
#860=CARTESIAN_POINT('',(-0.013,-0.01019,0.005));
#861=CARTESIAN_POINT('',(0.015,-0.01019,0.005));
#862=CARTESIAN_POINT('',(0.013,-0.01019,0.005));
#863=CARTESIAN_POINT('',(0.013,-0.00169,0.005));
#864=CARTESIAN_POINT('',(0.015,-0.00169,0.005));
#865=CARTESIAN_POINT('',(0.015,-0.01519,0.005));
#866=CARTESIAN_POINT('',(0.015,-0.01519,0.008));
#867=CARTESIAN_POINT('',(0.015,-0.01519,0.015));
#868=CARTESIAN_POINT('',(0.015,-0.00169,0.015));
#869=CARTESIAN_POINT('',(0.015,-0.00169,0.));
#870=CARTESIAN_POINT('',(0.015,0.01381,0.));
#871=CARTESIAN_POINT('',(0.015,0.01381,0.005));
#872=CARTESIAN_POINT('',(0.015,0.01381,0.003));
#873=CARTESIAN_POINT('',(0.015,-0.00169,0.003));
#874=CARTESIAN_POINT('',(0.015,-0.01019,0.003));
#875=CARTESIAN_POINT('',(0.015,-0.01019,0.008));
#876=CARTESIAN_POINT('',(0.,0.01581,0.005));
#877=CARTESIAN_POINT('',(0.,0.01581,0.003));
#878=CARTESIAN_POINT('',(-0.013,0.01581,0.003));
#879=CARTESIAN_POINT('',(0.013,0.01581,0.003));
#880=CARTESIAN_POINT('',(0.013,0.01581,0.005));
#881=CARTESIAN_POINT('',(0.013,0.01581,0.));
#882=CARTESIAN_POINT('',(0.,0.01581,0.));
#883=CARTESIAN_POINT('',(-0.013,0.01581,0.));
#884=CARTESIAN_POINT('',(-0.013,0.01581,0.005));
#885=CARTESIAN_POINT('',(-0.007,-1.01033360929657E-19,0.005));
#886=CARTESIAN_POINT('',(-0.007,-1.01033360929657E-19,0.));
#887=CARTESIAN_POINT('',(-0.00535,-1.01033360929657E-19,0.));
#888=CARTESIAN_POINT('',(-1.01033360929657E-19,0.007,0.005));
#889=CARTESIAN_POINT('',(-1.01033360929657E-19,0.007,0.));
#890=CARTESIAN_POINT('',(0.00165,0.007,0.));
#891=CARTESIAN_POINT('',(0.007,1.01033360929657E-19,0.005));
#892=CARTESIAN_POINT('',(0.007,1.01033360929657E-19,0.));
#893=CARTESIAN_POINT('',(0.00865,1.01033360929657E-19,0.));
#894=CARTESIAN_POINT('',(-0.015,-0.00169,0.005));
#895=CARTESIAN_POINT('',(-0.015,-0.01319,0.015));
#896=CARTESIAN_POINT('',(-0.015,-0.01519,0.015));
#897=CARTESIAN_POINT('',(-0.015,-0.01519,0.008));
#898=CARTESIAN_POINT('',(-0.015,-0.01519,0.008));
#899=CARTESIAN_POINT('',(-0.015,-0.01019,0.008));
#900=CARTESIAN_POINT('',(-0.015,-0.01019,0.003));
#901=CARTESIAN_POINT('',(-0.015,0.01581,0.003));
#902=CARTESIAN_POINT('',(-0.015,0.01381,0.003));
#903=CARTESIAN_POINT('',(-0.015,0.01381,0.));
#904=CARTESIAN_POINT('',(-0.015,0.01381,0.));
#905=CARTESIAN_POINT('',(-0.015,-0.00169,0.));
#906=CARTESIAN_POINT('',(-1.63369011504715E-18,-0.007,0.005));
#907=CARTESIAN_POINT('',(-1.63369011504715E-18,-0.007,0.));
#908=CARTESIAN_POINT('',(0.00165,-0.007,0.));
#909=CARTESIAN_POINT('',(0.,-0.00169,0.));
#910=CARTESIAN_POINT('',(0.013,0.01381,0.));
#911=CARTESIAN_POINT('',(-0.013,0.01381,0.));
#912=CARTESIAN_POINT('',(0.,-0.00169,0.017));
#913=CARTESIAN_POINT('',(1.56125112837913E-18,-0.01519,0.017));
#914=CARTESIAN_POINT('',(0.013,-0.01519,0.017));
#915=CARTESIAN_POINT('',(-0.013,-0.01519,0.017));
#916=CARTESIAN_POINT('',(-0.013,-0.01919,0.017));
#917=CARTESIAN_POINT('',(0.013,-0.00169,0.017));
#918=CARTESIAN_POINT('',(0.005,-0.03819,0.011));
#919=CARTESIAN_POINT('',(0.005,-0.01519,0.011));
#920=CARTESIAN_POINT('',(0.00335,-0.01519,0.011));
#921=CARTESIAN_POINT('',(-0.005,-0.03819,0.011));
#922=CARTESIAN_POINT('',(-0.005,-0.01519,0.011));
#923=CARTESIAN_POINT('',(-0.00665,-0.01519,0.011));
#924=CARTESIAN_POINT('',(9.83009969720191E-19,-0.01019,0.008));
#925=CARTESIAN_POINT('',(-0.013,-0.01019,0.008));
#926=CARTESIAN_POINT('',(0.013,-0.01019,0.008));
#927=CARTESIAN_POINT('',(0.013,0.01381,0.005));
#928=CARTESIAN_POINT('',(0.013,0.01381,0.003));
#929=CARTESIAN_POINT('',(0.013,0.01381,0.003));
#930=CARTESIAN_POINT('',(0.013,0.01381,0.003));
#931=CARTESIAN_POINT('',(0.013,0.01381,0.003));
#932=CARTESIAN_POINT('',(-0.013,0.01381,0.005));
#933=CARTESIAN_POINT('',(-0.013,0.01381,0.003));
#934=CARTESIAN_POINT('',(4.62592926927149E-19,0.01381,0.003));
#935=CARTESIAN_POINT('',(-0.013,0.01381,0.003));
#936=CARTESIAN_POINT('',(0.013,-0.00169,0.003));
#937=CARTESIAN_POINT('',(0.013,-0.01019,0.003));
#938=CARTESIAN_POINT('',(-0.013,0.01381,0.003));
#939=CARTESIAN_POINT('',(-0.013,0.01381,0.003));
#940=CARTESIAN_POINT('',(0.013,-0.01019,0.008));
#941=CARTESIAN_POINT('',(0.013,-0.01519,0.008));
#942=CARTESIAN_POINT('',(-0.013,-0.00169,0.003));
#943=CARTESIAN_POINT('',(-0.013,-0.01019,0.003));
#944=CARTESIAN_POINT('',(0.013,-0.01519,0.017));
#945=CARTESIAN_POINT('',(0.013,-0.01519,0.015));
#946=CARTESIAN_POINT('',(0.013,-0.00169,0.015));
#947=CARTESIAN_POINT('',(0.013,-0.01519,0.015));
#948=CARTESIAN_POINT('',(-0.013,-0.01019,0.008));
#949=CARTESIAN_POINT('',(-0.013,-0.01519,0.008));
#950=CARTESIAN_POINT('',(0.013,-0.01519,0.015));
#951=CARTESIAN_POINT('',(0.013,-0.01519,0.015));
#952=CARTESIAN_POINT('',(-0.013,-0.01519,0.005));
#953=CARTESIAN_POINT('',(-0.013,-0.01519,0.015));
#954=CARTESIAN_POINT('',(2.31296463463575E-19,-0.01519,0.015));
#955=CARTESIAN_POINT('',(-0.013,-0.01519,0.015));
#956=CARTESIAN_POINT('',(-0.013,-0.01519,0.015));
#957=CARTESIAN_POINT('',(-0.013,-0.01519,0.015));
#958=CARTESIAN_POINT('',(-0.013,-0.00169,0.015));
#959=CARTESIAN_POINT('',(-0.005,-0.01919,0.011));
#960=CARTESIAN_POINT('',(-0.005,-0.01519,0.011));
#961=CARTESIAN_POINT('',(-0.007,-0.01519,0.011));
#962=CARTESIAN_POINT('',(1.75669664000584E-18,-0.01519,0.011));
#963=CARTESIAN_POINT('',(0.005,-0.01919,0.011));
#964=CARTESIAN_POINT('',(0.005,-0.01519,0.011));
#965=CARTESIAN_POINT('',(0.003,-0.01519,0.011));
#966=CARTESIAN_POINT('',(1.75669664000584E-18,-0.01519,0.011));
#967=MECHANICAL_DESIGN_GEOMETRIC_PRESENTATION_REPRESENTATION('',(#548),
#968);
#968=(
GEOMETRIC_REPRESENTATION_CONTEXT(3)
GLOBAL_UNCERTAINTY_ASSIGNED_CONTEXT((#969))
GLOBAL_UNIT_ASSIGNED_CONTEXT((#972,#971,#970))
REPRESENTATION_CONTEXT('Motor_To_Chassis','TOP_LEVEL_ASSEMBLY_PART')
);
#969=UNCERTAINTY_MEASURE_WITH_UNIT(LENGTH_MEASURE(1.E-8),#972,
'DISTANCE_ACCURACY_VALUE','Maximum Tolerance applied to model');
#970=(
NAMED_UNIT(*)
SI_UNIT($,.STERADIAN.)
SOLID_ANGLE_UNIT()
);
#971=(
NAMED_UNIT(*)
PLANE_ANGLE_UNIT()
SI_UNIT($,.RADIAN.)
);
#972=(
LENGTH_UNIT()
NAMED_UNIT(*)
SI_UNIT($,.METRE.)
);
#973=PRODUCT_DEFINITION_SHAPE('','',#974);
#974=PRODUCT_DEFINITION('','',#976,#975);
#975=PRODUCT_DEFINITION_CONTEXT('',#982,'design');
#976=PRODUCT_DEFINITION_FORMATION_WITH_SPECIFIED_SOURCE('','',#978,
 .NOT_KNOWN.);
#977=PRODUCT_RELATED_PRODUCT_CATEGORY('','',(#978));
#978=PRODUCT('Motor_To_Chassis','Motor_To_Chassis','Motor_To_Chassis',(#980));
#979=PRODUCT_CATEGORY('','');
#980=PRODUCT_CONTEXT('',#982,'mechanical');
#981=APPLICATION_PROTOCOL_DEFINITION('international standard',
'ap242_managed_model_based_3d_engineering',2020,#982);
#982=APPLICATION_CONTEXT('managed model based 3d engineering');
ENDSEC;
END-ISO-10303-21;
