ISO-10303-21;
HEADER;
/* Generated by software containing ST-Developer
 * from STEP Tools, Inc. (www.steptools.com) 
 */
/* OPTION: using custom renumber hook */

FILE_DESCRIPTION(
/* description */ ('STEP AP242 Edition 2',
'CAx-IF Rec.Pracs.---Representation and Presentation of Product Manufa
cturing Information (PMI)---4.0---2014-10-13',
'CAx-IF Rec.Pracs.---3D Tessellated Geometry---0.4---2014-09-14','2;1',
'CAx-IF Rec.Pracs.---User Defined Attributes---1.5---2016-08-15'),
/* implementation_level */ '2;1');

FILE_NAME(
/* name */ 'ECE148_Camera_Mount - Stepper_Motor_Mount',
/* time_stamp */ '2026-09-03T00:32:43Z',
/* author */ (''),
/* organization */ (''),
/* preprocessor_version */ 'ST-DEVELOPER v20',
/* originating_system */ 'ONSHAPE BY PTC INC, 1.220',
/* authorisation */ '  ');

FILE_SCHEMA (('AP242_MANAGED_MODEL_BASED_3D_ENGINEERING_MIM_LF { 1 0 10303 442 3 1 4 }'));
ENDSEC;

DATA;
#10=SHAPE_REPRESENTATION_RELATIONSHIP('','',#275,#11);
#11=ADVANCED_BREP_SHAPE_REPRESENTATION('',(#273),#449);
#12=CIRCLE('',#281,0.00165);
#13=CIRCLE('',#282,0.00165);
#14=CIRCLE('',#284,0.00165);
#15=CIRCLE('',#285,0.00165);
#16=CIRCLE('',#287,0.00165);
#17=CIRCLE('',#288,0.00165);
#18=CIRCLE('',#291,0.00165);
#19=CIRCLE('',#292,0.00165);
#20=CIRCLE('',#294,0.00165);
#21=CIRCLE('',#295,0.00165);
#22=CIRCLE('',#296,0.00165);
#23=CIRCLE('',#297,0.00165);
#24=CIRCLE('',#299,0.00165);
#25=CIRCLE('',#300,0.00165);
#26=CIRCLE('',#301,0.00165);
#27=CIRCLE('',#302,0.00165);
#28=CYLINDRICAL_SURFACE('',#280,0.00165);
#29=CYLINDRICAL_SURFACE('',#283,0.00165);
#30=CYLINDRICAL_SURFACE('',#286,0.00165);
#31=CYLINDRICAL_SURFACE('',#290,0.00165);
#32=CYLINDRICAL_SURFACE('',#303,0.00165);
#33=CYLINDRICAL_SURFACE('',#304,0.00165);
#34=CYLINDRICAL_SURFACE('',#305,0.00165);
#35=CYLINDRICAL_SURFACE('',#306,0.00165);
#36=ORIENTED_EDGE('',*,*,#92,.F.);
#37=ORIENTED_EDGE('',*,*,#93,.F.);
#38=ORIENTED_EDGE('',*,*,#94,.T.);
#39=ORIENTED_EDGE('',*,*,#95,.T.);
#40=ORIENTED_EDGE('',*,*,#96,.T.);
#41=ORIENTED_EDGE('',*,*,#97,.F.);
#42=ORIENTED_EDGE('',*,*,#98,.F.);
#43=ORIENTED_EDGE('',*,*,#93,.T.);
#44=ORIENTED_EDGE('',*,*,#99,.T.);
#45=ORIENTED_EDGE('',*,*,#100,.F.);
#46=ORIENTED_EDGE('',*,*,#101,.F.);
#47=ORIENTED_EDGE('',*,*,#97,.T.);
#48=ORIENTED_EDGE('',*,*,#102,.F.);
#49=ORIENTED_EDGE('',*,*,#103,.T.);
#50=ORIENTED_EDGE('',*,*,#104,.F.);
#51=ORIENTED_EDGE('',*,*,#105,.T.);
#52=ORIENTED_EDGE('',*,*,#106,.F.);
#53=ORIENTED_EDGE('',*,*,#107,.T.);
#54=ORIENTED_EDGE('',*,*,#108,.T.);
#55=ORIENTED_EDGE('',*,*,#95,.F.);
#56=ORIENTED_EDGE('',*,*,#109,.F.);
#57=ORIENTED_EDGE('',*,*,#100,.T.);
#58=ORIENTED_EDGE('',*,*,#110,.F.);
#59=ORIENTED_EDGE('',*,*,#111,.T.);
#60=ORIENTED_EDGE('',*,*,#112,.F.);
#61=ORIENTED_EDGE('',*,*,#113,.F.);
#62=ORIENTED_EDGE('',*,*,#114,.F.);
#63=ORIENTED_EDGE('',*,*,#115,.F.);
#64=ORIENTED_EDGE('',*,*,#94,.F.);
#65=ORIENTED_EDGE('',*,*,#98,.T.);
#66=ORIENTED_EDGE('',*,*,#101,.T.);
#67=ORIENTED_EDGE('',*,*,#109,.T.);
#68=ORIENTED_EDGE('',*,*,#106,.T.);
#69=ORIENTED_EDGE('',*,*,#104,.T.);
#70=ORIENTED_EDGE('',*,*,#102,.T.);
#71=ORIENTED_EDGE('',*,*,#110,.T.);
#72=ORIENTED_EDGE('',*,*,#116,.T.);
#73=ORIENTED_EDGE('',*,*,#117,.T.);
#74=ORIENTED_EDGE('',*,*,#118,.T.);
#75=ORIENTED_EDGE('',*,*,#119,.T.);
#76=ORIENTED_EDGE('',*,*,#92,.T.);
#77=ORIENTED_EDGE('',*,*,#108,.F.);
#78=ORIENTED_EDGE('',*,*,#99,.F.);
#79=ORIENTED_EDGE('',*,*,#96,.F.);
#80=ORIENTED_EDGE('',*,*,#107,.F.);
#81=ORIENTED_EDGE('',*,*,#105,.F.);
#82=ORIENTED_EDGE('',*,*,#103,.F.);
#83=ORIENTED_EDGE('',*,*,#111,.F.);
#84=ORIENTED_EDGE('',*,*,#119,.F.);
#85=ORIENTED_EDGE('',*,*,#115,.T.);
#86=ORIENTED_EDGE('',*,*,#118,.F.);
#87=ORIENTED_EDGE('',*,*,#114,.T.);
#88=ORIENTED_EDGE('',*,*,#117,.F.);
#89=ORIENTED_EDGE('',*,*,#113,.T.);
#90=ORIENTED_EDGE('',*,*,#116,.F.);
#91=ORIENTED_EDGE('',*,*,#112,.T.);
#92=EDGE_CURVE('',#120,#121,#144,.T.);
#93=EDGE_CURVE('',#122,#120,#145,.T.);
#94=EDGE_CURVE('',#122,#123,#146,.T.);
#95=EDGE_CURVE('',#123,#121,#147,.T.);
#96=EDGE_CURVE('',#120,#124,#148,.T.);
#97=EDGE_CURVE('',#125,#124,#149,.T.);
#98=EDGE_CURVE('',#122,#125,#150,.T.);
#99=EDGE_CURVE('',#124,#126,#151,.T.);
#100=EDGE_CURVE('',#127,#126,#152,.T.);
#101=EDGE_CURVE('',#125,#127,#153,.T.);
#102=EDGE_CURVE('',#128,#128,#12,.T.);
#103=EDGE_CURVE('',#129,#129,#13,.T.);
#104=EDGE_CURVE('',#130,#130,#14,.T.);
#105=EDGE_CURVE('',#131,#131,#15,.T.);
#106=EDGE_CURVE('',#132,#132,#16,.T.);
#107=EDGE_CURVE('',#133,#133,#17,.T.);
#108=EDGE_CURVE('',#126,#121,#154,.T.);
#109=EDGE_CURVE('',#127,#123,#155,.T.);
#110=EDGE_CURVE('',#134,#134,#18,.T.);
#111=EDGE_CURVE('',#135,#135,#19,.T.);
#112=EDGE_CURVE('',#136,#136,#20,.T.);
#113=EDGE_CURVE('',#137,#137,#21,.T.);
#114=EDGE_CURVE('',#138,#138,#22,.T.);
#115=EDGE_CURVE('',#139,#139,#23,.T.);
#116=EDGE_CURVE('',#140,#140,#24,.T.);
#117=EDGE_CURVE('',#141,#141,#25,.T.);
#118=EDGE_CURVE('',#142,#142,#26,.T.);
#119=EDGE_CURVE('',#143,#143,#27,.T.);
#120=VERTEX_POINT('',#384);
#121=VERTEX_POINT('',#385);
#122=VERTEX_POINT('',#387);
#123=VERTEX_POINT('',#389);
#124=VERTEX_POINT('',#393);
#125=VERTEX_POINT('',#395);
#126=VERTEX_POINT('',#399);
#127=VERTEX_POINT('',#401);
#128=VERTEX_POINT('',#405);
#129=VERTEX_POINT('',#407);
#130=VERTEX_POINT('',#410);
#131=VERTEX_POINT('',#412);
#132=VERTEX_POINT('',#415);
#133=VERTEX_POINT('',#417);
#134=VERTEX_POINT('',#423);
#135=VERTEX_POINT('',#425);
#136=VERTEX_POINT('',#428);
#137=VERTEX_POINT('',#430);
#138=VERTEX_POINT('',#432);
#139=VERTEX_POINT('',#434);
#140=VERTEX_POINT('',#437);
#141=VERTEX_POINT('',#439);
#142=VERTEX_POINT('',#441);
#143=VERTEX_POINT('',#443);
#144=LINE('',#383,#156);
#145=LINE('',#386,#157);
#146=LINE('',#388,#158);
#147=LINE('',#390,#159);
#148=LINE('',#392,#160);
#149=LINE('',#394,#161);
#150=LINE('',#396,#162);
#151=LINE('',#398,#163);
#152=LINE('',#400,#164);
#153=LINE('',#402,#165);
#154=LINE('',#419,#166);
#155=LINE('',#420,#167);
#156=VECTOR('',#311,1.);
#157=VECTOR('',#312,1.);
#158=VECTOR('',#313,1.);
#159=VECTOR('',#314,1.);
#160=VECTOR('',#317,1.);
#161=VECTOR('',#318,1.);
#162=VECTOR('',#319,1.);
#163=VECTOR('',#322,1.);
#164=VECTOR('',#323,1.);
#165=VECTOR('',#324,1.);
#166=VECTOR('',#345,1.);
#167=VECTOR('',#346,1.);
#168=EDGE_LOOP('',(#36,#37,#38,#39));
#169=EDGE_LOOP('',(#40,#41,#42,#43));
#170=EDGE_LOOP('',(#44,#45,#46,#47));
#171=EDGE_LOOP('',(#48));
#172=EDGE_LOOP('',(#49));
#173=EDGE_LOOP('',(#50));
#174=EDGE_LOOP('',(#51));
#175=EDGE_LOOP('',(#52));
#176=EDGE_LOOP('',(#53));
#177=EDGE_LOOP('',(#54,#55,#56,#57));
#178=EDGE_LOOP('',(#58));
#179=EDGE_LOOP('',(#59));
#180=EDGE_LOOP('',(#60));
#181=EDGE_LOOP('',(#61));
#182=EDGE_LOOP('',(#62));
#183=EDGE_LOOP('',(#63));
#184=EDGE_LOOP('',(#64,#65,#66,#67));
#185=EDGE_LOOP('',(#68));
#186=EDGE_LOOP('',(#69));
#187=EDGE_LOOP('',(#70));
#188=EDGE_LOOP('',(#71));
#189=EDGE_LOOP('',(#72));
#190=EDGE_LOOP('',(#73));
#191=EDGE_LOOP('',(#74));
#192=EDGE_LOOP('',(#75));
#193=EDGE_LOOP('',(#76,#77,#78,#79));
#194=EDGE_LOOP('',(#80));
#195=EDGE_LOOP('',(#81));
#196=EDGE_LOOP('',(#82));
#197=EDGE_LOOP('',(#83));
#198=EDGE_LOOP('',(#84));
#199=EDGE_LOOP('',(#85));
#200=EDGE_LOOP('',(#86));
#201=EDGE_LOOP('',(#87));
#202=EDGE_LOOP('',(#88));
#203=EDGE_LOOP('',(#89));
#204=EDGE_LOOP('',(#90));
#205=EDGE_LOOP('',(#91));
#206=FACE_BOUND('',#168,.T.);
#207=FACE_BOUND('',#169,.T.);
#208=FACE_BOUND('',#170,.T.);
#209=FACE_BOUND('',#171,.T.);
#210=FACE_BOUND('',#172,.T.);
#211=FACE_BOUND('',#173,.T.);
#212=FACE_BOUND('',#174,.T.);
#213=FACE_BOUND('',#175,.T.);
#214=FACE_BOUND('',#176,.T.);
#215=FACE_BOUND('',#177,.T.);
#216=FACE_BOUND('',#178,.T.);
#217=FACE_BOUND('',#179,.T.);
#218=FACE_BOUND('',#180,.T.);
#219=FACE_BOUND('',#181,.T.);
#220=FACE_BOUND('',#182,.T.);
#221=FACE_BOUND('',#183,.T.);
#222=FACE_BOUND('',#184,.T.);
#223=FACE_BOUND('',#185,.T.);
#224=FACE_BOUND('',#186,.T.);
#225=FACE_BOUND('',#187,.T.);
#226=FACE_BOUND('',#188,.T.);
#227=FACE_BOUND('',#189,.T.);
#228=FACE_BOUND('',#190,.T.);
#229=FACE_BOUND('',#191,.T.);
#230=FACE_BOUND('',#192,.T.);
#231=FACE_BOUND('',#193,.T.);
#232=FACE_BOUND('',#194,.T.);
#233=FACE_BOUND('',#195,.T.);
#234=FACE_BOUND('',#196,.T.);
#235=FACE_BOUND('',#197,.T.);
#236=FACE_BOUND('',#198,.T.);
#237=FACE_BOUND('',#199,.T.);
#238=FACE_BOUND('',#200,.T.);
#239=FACE_BOUND('',#201,.T.);
#240=FACE_BOUND('',#202,.T.);
#241=FACE_BOUND('',#203,.T.);
#242=FACE_BOUND('',#204,.T.);
#243=FACE_BOUND('',#205,.T.);
#244=PLANE('',#277);
#245=PLANE('',#278);
#246=PLANE('',#279);
#247=PLANE('',#289);
#248=PLANE('',#293);
#249=PLANE('',#298);
#250=ADVANCED_FACE('',(#206),#244,.T.);
#251=ADVANCED_FACE('',(#207),#245,.F.);
#252=ADVANCED_FACE('',(#208),#246,.F.);
#253=ADVANCED_FACE('',(#209,#210),#28,.F.);
#254=ADVANCED_FACE('',(#211,#212),#29,.F.);
#255=ADVANCED_FACE('',(#213,#214),#30,.F.);
#256=ADVANCED_FACE('',(#215),#247,.F.);
#257=ADVANCED_FACE('',(#216,#217),#31,.F.);
#258=ADVANCED_FACE('',(#218,#219,#220,#221,#222,#223,#224,#225,#226),#248,
 .T.);
#259=ADVANCED_FACE('',(#227,#228,#229,#230,#231,#232,#233,#234,#235),#249,
 .F.);
#260=ADVANCED_FACE('',(#236,#237),#32,.F.);
#261=ADVANCED_FACE('',(#238,#239),#33,.F.);
#262=ADVANCED_FACE('',(#240,#241),#34,.F.);
#263=ADVANCED_FACE('',(#242,#243),#35,.F.);
#264=CLOSED_SHELL('',(#250,#251,#252,#253,#254,#255,#256,#257,#258,#259,
#260,#261,#262,#263));
#265=STYLED_ITEM('',(#266),#273);
#266=PRESENTATION_STYLE_ASSIGNMENT((#267));
#267=SURFACE_STYLE_USAGE(.BOTH.,#268);
#268=SURFACE_SIDE_STYLE('',(#269));
#269=SURFACE_STYLE_FILL_AREA(#270);
#270=FILL_AREA_STYLE('',(#271));
#271=FILL_AREA_STYLE_COLOUR('',#272);
#272=COLOUR_RGB('',0.972549019607843,0.529411764705882,0.00392156862745098);
#273=MANIFOLD_SOLID_BREP('Stepper_Motor_Mount',#264);
#274=SHAPE_DEFINITION_REPRESENTATION(#454,#275);
#275=SHAPE_REPRESENTATION('Stepper_Motor_Mount',(#276),#449);
#276=AXIS2_PLACEMENT_3D('',#381,#307,#308);
#277=AXIS2_PLACEMENT_3D('',#382,#309,#310);
#278=AXIS2_PLACEMENT_3D('',#391,#315,#316);
#279=AXIS2_PLACEMENT_3D('',#397,#320,#321);
#280=AXIS2_PLACEMENT_3D('',#403,#325,#326);
#281=AXIS2_PLACEMENT_3D('',#404,#327,#328);
#282=AXIS2_PLACEMENT_3D('',#406,#329,#330);
#283=AXIS2_PLACEMENT_3D('',#408,#331,#332);
#284=AXIS2_PLACEMENT_3D('',#409,#333,#334);
#285=AXIS2_PLACEMENT_3D('',#411,#335,#336);
#286=AXIS2_PLACEMENT_3D('',#413,#337,#338);
#287=AXIS2_PLACEMENT_3D('',#414,#339,#340);
#288=AXIS2_PLACEMENT_3D('',#416,#341,#342);
#289=AXIS2_PLACEMENT_3D('',#418,#343,#344);
#290=AXIS2_PLACEMENT_3D('',#421,#347,#348);
#291=AXIS2_PLACEMENT_3D('',#422,#349,#350);
#292=AXIS2_PLACEMENT_3D('',#424,#351,#352);
#293=AXIS2_PLACEMENT_3D('',#426,#353,#354);
#294=AXIS2_PLACEMENT_3D('',#427,#355,#356);
#295=AXIS2_PLACEMENT_3D('',#429,#357,#358);
#296=AXIS2_PLACEMENT_3D('',#431,#359,#360);
#297=AXIS2_PLACEMENT_3D('',#433,#361,#362);
#298=AXIS2_PLACEMENT_3D('',#435,#363,#364);
#299=AXIS2_PLACEMENT_3D('',#436,#365,#366);
#300=AXIS2_PLACEMENT_3D('',#438,#367,#368);
#301=AXIS2_PLACEMENT_3D('',#440,#369,#370);
#302=AXIS2_PLACEMENT_3D('',#442,#371,#372);
#303=AXIS2_PLACEMENT_3D('',#444,#373,#374);
#304=AXIS2_PLACEMENT_3D('',#445,#375,#376);
#305=AXIS2_PLACEMENT_3D('',#446,#377,#378);
#306=AXIS2_PLACEMENT_3D('',#447,#379,#380);
#307=DIRECTION('',(0.,0.,1.));
#308=DIRECTION('',(1.,0.,0.));
#309=DIRECTION('',(1.,0.,0.));
#310=DIRECTION('',(0.,0.,-1.));
#311=DIRECTION('',(0.,0.,-1.));
#312=DIRECTION('',(0.,1.,0.));
#313=DIRECTION('',(0.,0.,-1.));
#314=DIRECTION('',(0.,1.,0.));
#315=DIRECTION('',(0.,0.,-1.));
#316=DIRECTION('',(-1.,0.,0.));
#317=DIRECTION('',(-1.,0.,0.));
#318=DIRECTION('',(0.,1.,0.));
#319=DIRECTION('',(-1.,0.,0.));
#320=DIRECTION('',(1.,0.,0.));
#321=DIRECTION('',(0.,0.,-1.));
#322=DIRECTION('',(0.,0.,-1.));
#323=DIRECTION('',(0.,1.,0.));
#324=DIRECTION('',(0.,0.,-1.));
#325=DIRECTION('',(0.,1.,0.));
#326=DIRECTION('',(0.,0.,1.));
#327=DIRECTION('',(0.,1.,0.));
#328=DIRECTION('',(0.,0.,1.));
#329=DIRECTION('',(0.,1.,0.));
#330=DIRECTION('',(0.,0.,1.));
#331=DIRECTION('',(0.,1.,0.));
#332=DIRECTION('',(0.,0.,1.));
#333=DIRECTION('',(0.,1.,0.));
#334=DIRECTION('',(0.,0.,1.));
#335=DIRECTION('',(0.,1.,0.));
#336=DIRECTION('',(0.,0.,1.));
#337=DIRECTION('',(0.,1.,0.));
#338=DIRECTION('',(0.,0.,1.));
#339=DIRECTION('',(0.,1.,0.));
#340=DIRECTION('',(0.,0.,1.));
#341=DIRECTION('',(0.,1.,0.));
#342=DIRECTION('',(0.,0.,1.));
#343=DIRECTION('',(-1.9939361963609E-16,0.,1.));
#344=DIRECTION('',(1.,0.,1.9939361963609E-16));
#345=DIRECTION('',(1.,0.,1.9939361963609E-16));
#346=DIRECTION('',(1.,0.,1.9939361963609E-16));
#347=DIRECTION('',(0.,1.,0.));
#348=DIRECTION('',(0.,0.,1.));
#349=DIRECTION('',(0.,1.,0.));
#350=DIRECTION('',(0.,0.,1.));
#351=DIRECTION('',(0.,1.,0.));
#352=DIRECTION('',(0.,0.,1.));
#353=DIRECTION('',(0.,-1.,0.));
#354=DIRECTION('',(1.,0.,0.));
#355=DIRECTION('',(0.,-1.,0.));
#356=DIRECTION('',(0.,0.,-1.));
#357=DIRECTION('',(0.,-1.,0.));
#358=DIRECTION('',(0.,0.,-1.));
#359=DIRECTION('',(0.,-1.,0.));
#360=DIRECTION('',(0.,0.,-1.));
#361=DIRECTION('',(0.,-1.,0.));
#362=DIRECTION('',(0.,0.,-1.));
#363=DIRECTION('',(0.,-1.,0.));
#364=DIRECTION('',(1.,0.,0.));
#365=DIRECTION('',(0.,-1.,0.));
#366=DIRECTION('',(0.,0.,-1.));
#367=DIRECTION('',(0.,-1.,0.));
#368=DIRECTION('',(0.,0.,-1.));
#369=DIRECTION('',(0.,-1.,0.));
#370=DIRECTION('',(0.,0.,-1.));
#371=DIRECTION('',(0.,-1.,0.));
#372=DIRECTION('',(0.,0.,-1.));
#373=DIRECTION('',(0.,-1.,0.));
#374=DIRECTION('',(0.,0.,-1.));
#375=DIRECTION('',(0.,-1.,0.));
#376=DIRECTION('',(0.,0.,-1.));
#377=DIRECTION('',(0.,-1.,0.));
#378=DIRECTION('',(0.,0.,-1.));
#379=DIRECTION('',(0.,-1.,0.));
#380=DIRECTION('',(0.,0.,-1.));
#381=CARTESIAN_POINT('',(0.,0.,0.));
#382=CARTESIAN_POINT('',(0.084499949102826,-0.127408033896478,0.09));
#383=CARTESIAN_POINT('',(0.084499949102826,-0.124408033896478,0.09));
#384=CARTESIAN_POINT('',(0.084499949102826,-0.124408033896478,0.09));
#385=CARTESIAN_POINT('',(0.084499949102826,-0.124408033896478,0.01));
#386=CARTESIAN_POINT('',(0.084499949102826,-0.127408033896478,0.09));
#387=CARTESIAN_POINT('',(0.084499949102826,-0.127408033896478,0.09));
#388=CARTESIAN_POINT('',(0.084499949102826,-0.127408033896478,0.09));
#389=CARTESIAN_POINT('',(0.084499949102826,-0.127408033896478,0.01));
#390=CARTESIAN_POINT('',(0.084499949102826,-0.127408033896478,0.01));
#391=CARTESIAN_POINT('',(0.040999974551413,-0.127408033896478,0.09));
#392=CARTESIAN_POINT('',(0.040999974551413,-0.124408033896478,0.09));
#393=CARTESIAN_POINT('',(-0.0025,-0.124408033896478,0.09));
#394=CARTESIAN_POINT('',(-0.0025,-0.127408033896478,0.09));
#395=CARTESIAN_POINT('',(-0.0025,-0.127408033896478,0.09));
#396=CARTESIAN_POINT('',(0.040999974551413,-0.127408033896478,0.09));
#397=CARTESIAN_POINT('',(-0.0025,-0.127408033896478,0.09));
#398=CARTESIAN_POINT('',(-0.0025,-0.124408033896478,0.09));
#399=CARTESIAN_POINT('',(-0.0025,-0.124408033896478,0.01));
#400=CARTESIAN_POINT('',(-0.0025,-0.127408033896478,0.01));
#401=CARTESIAN_POINT('',(-0.0025,-0.127408033896478,0.01));
#402=CARTESIAN_POINT('',(-0.0025,-0.127408033896478,0.09));
#403=CARTESIAN_POINT('',(0.0035,-0.127408033896478,0.04));
#404=CARTESIAN_POINT('',(0.0035,-0.127408033896478,0.04));
#405=CARTESIAN_POINT('',(0.0035,-0.127408033896478,0.04165));
#406=CARTESIAN_POINT('',(0.0035,-0.124408033896478,0.04));
#407=CARTESIAN_POINT('',(0.0035,-0.124408033896478,0.04165));
#408=CARTESIAN_POINT('',(0.078499949102826,-0.127408033896478,0.08));
#409=CARTESIAN_POINT('',(0.078499949102826,-0.127408033896478,0.08));
#410=CARTESIAN_POINT('',(0.078499949102826,-0.127408033896478,0.08165));
#411=CARTESIAN_POINT('',(0.078499949102826,-0.124408033896478,0.08));
#412=CARTESIAN_POINT('',(0.078499949102826,-0.124408033896478,0.08165));
#413=CARTESIAN_POINT('',(0.0035,-0.127408033896478,0.08));
#414=CARTESIAN_POINT('',(0.0035,-0.127408033896478,0.08));
#415=CARTESIAN_POINT('',(0.0035,-0.127408033896478,0.08165));
#416=CARTESIAN_POINT('',(0.0035,-0.124408033896478,0.08));
#417=CARTESIAN_POINT('',(0.0035,-0.124408033896478,0.08165));
#418=CARTESIAN_POINT('',(0.040999974551413,-0.127408033896478,0.01));
#419=CARTESIAN_POINT('',(0.040999974551413,-0.124408033896478,0.01));
#420=CARTESIAN_POINT('',(0.040999974551413,-0.127408033896478,0.01));
#421=CARTESIAN_POINT('',(0.078499949102826,-0.127408033896478,0.04));
#422=CARTESIAN_POINT('',(0.078499949102826,-0.127408033896478,0.04));
#423=CARTESIAN_POINT('',(0.078499949102826,-0.127408033896478,0.04165));
#424=CARTESIAN_POINT('',(0.078499949102826,-0.124408033896478,0.04));
#425=CARTESIAN_POINT('',(0.078499949102826,-0.124408033896478,0.04165));
#426=CARTESIAN_POINT('',(0.040999974551413,-0.127408033896478,0.045));
#427=CARTESIAN_POINT('',(0.048,-0.127408033896478,0.045));
#428=CARTESIAN_POINT('',(0.048,-0.127408033896478,0.04335));
#429=CARTESIAN_POINT('',(0.041,-0.127408033896478,0.052));
#430=CARTESIAN_POINT('',(0.041,-0.127408033896478,0.05035));
#431=CARTESIAN_POINT('',(0.041,-0.127408033896478,0.038));
#432=CARTESIAN_POINT('',(0.041,-0.127408033896478,0.03635));
#433=CARTESIAN_POINT('',(0.034,-0.127408033896478,0.045));
#434=CARTESIAN_POINT('',(0.034,-0.127408033896478,0.04335));
#435=CARTESIAN_POINT('',(0.040999974551413,-0.124408033896478,0.045));
#436=CARTESIAN_POINT('',(0.048,-0.124408033896478,0.045));
#437=CARTESIAN_POINT('',(0.048,-0.124408033896478,0.04335));
#438=CARTESIAN_POINT('',(0.041,-0.124408033896478,0.052));
#439=CARTESIAN_POINT('',(0.041,-0.124408033896478,0.05035));
#440=CARTESIAN_POINT('',(0.041,-0.124408033896478,0.038));
#441=CARTESIAN_POINT('',(0.041,-0.124408033896478,0.03635));
#442=CARTESIAN_POINT('',(0.034,-0.124408033896478,0.045));
#443=CARTESIAN_POINT('',(0.034,-0.124408033896478,0.04335));
#444=CARTESIAN_POINT('',(0.034,-0.124408033896478,0.045));
#445=CARTESIAN_POINT('',(0.041,-0.124408033896478,0.038));
#446=CARTESIAN_POINT('',(0.041,-0.124408033896478,0.052));
#447=CARTESIAN_POINT('',(0.048,-0.124408033896478,0.045));
#448=MECHANICAL_DESIGN_GEOMETRIC_PRESENTATION_REPRESENTATION('',(#265),
#449);
#449=(
GEOMETRIC_REPRESENTATION_CONTEXT(3)
GLOBAL_UNCERTAINTY_ASSIGNED_CONTEXT((#450))
GLOBAL_UNIT_ASSIGNED_CONTEXT((#453,#452,#451))
REPRESENTATION_CONTEXT('Stepper_Motor_Mount','TOP_LEVEL_ASSEMBLY_PART')
);
#450=UNCERTAINTY_MEASURE_WITH_UNIT(LENGTH_MEASURE(1.E-8),#453,
'DISTANCE_ACCURACY_VALUE','Maximum Tolerance applied to model');
#451=(
NAMED_UNIT(*)
SI_UNIT($,.STERADIAN.)
SOLID_ANGLE_UNIT()
);
#452=(
NAMED_UNIT(*)
PLANE_ANGLE_UNIT()
SI_UNIT($,.RADIAN.)
);
#453=(
LENGTH_UNIT()
NAMED_UNIT(*)
SI_UNIT($,.METRE.)
);
#454=PRODUCT_DEFINITION_SHAPE('','',#455);
#455=PRODUCT_DEFINITION('','',#457,#456);
#456=PRODUCT_DEFINITION_CONTEXT('',#463,'design');
#457=PRODUCT_DEFINITION_FORMATION_WITH_SPECIFIED_SOURCE('','',#459,
 .NOT_KNOWN.);
#458=PRODUCT_RELATED_PRODUCT_CATEGORY('','',(#459));
#459=PRODUCT('Stepper_Motor_Mount','Stepper_Motor_Mount',
'Stepper_Motor_Mount',(#461));
#460=PRODUCT_CATEGORY('','');
#461=PRODUCT_CONTEXT('',#463,'mechanical');
#462=APPLICATION_PROTOCOL_DEFINITION('international standard',
'ap242_managed_model_based_3d_engineering',2020,#463);
#463=APPLICATION_CONTEXT('managed model based 3d engineering');
ENDSEC;
END-ISO-10303-21;
